<svg id="svg" version="1.1" xmlns="http://www.w3.org/2000/svg" xmlns:xlink="http://www.w3.org/1999/xlink" width="400" height="400" viewBox="0, 0, 400,400"><g id="svgg"><path id="path0" d="M145.236 98.837 C 140.316 101.486,132.023 106.749,130.800 108.000 C 130.690 108.113,129.880 108.734,129.000 109.381 C 116.316 118.708,103.728 134.040,96.005 149.569 C 83.698 174.315,80.727 199.880,86.820 228.600 C 89.625 241.818,100.975 265.243,108.383 273.100 C 109.835 274.641,110.169 274.085,108.743 272.500 C 108.001 271.675,106.135 269.110,104.597 266.800 C 103.058 264.490,101.710 262.510,101.600 262.400 C 101.420 262.220,100.633 260.843,99.429 258.600 C 99.193 258.160,98.904 257.710,98.786 257.600 C 98.167 257.023,93.251 246.468,92.172 243.400 C 91.785 242.300,91.318 241.229,91.134 241.020 C 90.950 240.811,90.800 240.314,90.800 239.915 C 90.800 239.516,90.636 238.877,90.436 238.495 C 90.084 237.824,88.343 232.069,87.624 229.200 C 86.729 225.629,85.427 218.487,84.927 214.400 C 84.514 211.028,84.514 191.772,84.927 188.400 C 85.590 182.987,86.975 176.000,87.386 176.000 C 87.677 176.000,95.002 177.631,96.400 178.007 C 97.170 178.214,101.940 179.292,107.000 180.403 C 112.060 181.514,116.920 182.591,117.800 182.798 C 118.680 183.004,121.470 183.639,124.000 184.209 C 126.530 184.779,129.320 185.409,130.200 185.609 C 131.080 185.809,133.870 186.439,136.400 187.009 C 138.930 187.579,141.720 188.209,142.600 188.410 C 143.480 188.610,145.910 189.157,148.000 189.626 C 150.090 190.094,152.970 190.741,154.400 191.062 C 155.830 191.384,157.810 191.824,158.800 192.040 C 164.928 193.377,165.011 193.412,164.861 194.651 C 163.917 202.454,164.966 210.665,167.614 216.200 C 169.503 220.150,171.703 223.600,172.333 223.600 C 172.660 223.600,172.326 222.860,171.476 221.700 C 159.330 205.118,164.517 181.396,182.599 170.829 C 184.133 169.933,185.177 169.200,184.921 169.200 C 184.664 169.200,183.560 167.355,182.467 165.100 C 181.373 162.845,178.549 157.040,176.190 152.200 C 173.831 147.360,170.867 141.240,169.602 138.600 C 168.336 135.960,165.680 130.470,163.698 126.400 C 157.137 112.926,151.374 101.029,150.380 98.907 C 149.200 96.387,149.774 96.395,145.236 98.837 " stroke="none" fill="#3fb2a1" fill-rule="evenodd"></path><path id="path1" d="M86.826 177.500 C 86.323 179.360,85.351 184.937,84.927 188.400 C 84.752 189.830,84.609 195.680,84.609 201.400 C 84.609 213.166,84.911 216.444,86.857 225.800 C 87.680 229.759,89.803 237.289,90.436 238.495 C 90.636 238.877,90.800 239.516,90.800 239.915 C 90.800 240.314,90.950 240.811,91.134 241.020 C 91.318 241.229,91.785 242.300,92.172 243.400 C 93.251 246.468,98.167 257.023,98.786 257.600 C 98.904 257.710,99.193 258.160,99.429 258.600 C 100.633 260.843,101.420 262.220,101.600 262.400 C 101.710 262.510,103.200 264.688,104.911 267.241 C 106.622 269.793,108.458 272.290,108.989 272.790 L 109.956 273.699 117.878 267.320 C 122.235 263.811,134.890 253.666,146.000 244.775 C 157.110 235.883,166.435 228.384,166.723 228.110 C 167.010 227.836,168.318 226.787,169.629 225.778 C 171.104 224.643,171.904 223.764,171.729 223.472 C 171.573 223.212,170.883 222.100,170.195 221.000 C 165.984 214.265,164.600 209.303,164.673 201.200 C 164.700 198.230,164.785 195.283,164.861 194.651 C 165.011 193.412,164.928 193.377,158.800 192.040 C 157.810 191.824,155.830 191.384,154.400 191.062 C 152.970 190.741,150.090 190.094,148.000 189.626 C 145.910 189.157,143.480 188.610,142.600 188.410 C 141.720 188.209,138.930 187.579,136.400 187.009 C 133.870 186.439,131.080 185.809,130.200 185.609 C 129.320 185.409,126.530 184.779,124.000 184.209 C 121.470 183.639,118.680 183.004,117.800 182.798 C 116.920 182.591,112.060 181.514,107.000 180.403 C 101.940 179.292,97.170 178.214,96.400 178.007 C 95.002 177.631,87.677 176.000,87.386 176.000 C 87.301 176.000,87.049 176.675,86.826 177.500 " stroke="none" fill="#43b9e9" fill-rule="evenodd"></path><path id="path2" d="M162.885 48.184 C 157.957 50.904,157.275 56.805,161.299 61.895 C 161.747 62.463,162.048 62.321,156.800 64.015 C 152.062 65.543,147.914 67.048,145.704 68.039 C 144.772 68.458,143.930 68.800,143.834 68.800 C 142.965 68.800,131.899 74.366,127.527 77.001 C 125.521 78.211,123.810 79.200,123.725 79.200 C 123.098 79.200,111.047 88.052,106.400 91.926 C 104.096 93.847,93.064 104.787,90.997 107.200 C 87.200 111.634,78.400 123.500,78.400 124.185 C 78.400 124.346,77.995 125.042,77.500 125.733 C 77.005 126.423,76.400 127.351,76.156 127.794 C 75.911 128.237,75.040 129.770,74.219 131.200 C 72.129 134.843,68.805 141.838,66.808 146.800 C 65.879 149.110,64.965 151.360,64.777 151.800 C 63.537 154.708,60.445 165.265,59.622 169.400 C 59.447 170.280,59.014 172.350,58.660 174.000 C 55.794 187.369,55.254 204.926,57.237 220.200 C 57.719 223.910,58.683 229.578,59.177 231.600 C 59.365 232.370,59.816 234.260,60.179 235.800 C 61.140 239.870,63.868 248.882,64.781 251.000 C 64.970 251.440,65.408 252.557,65.753 253.483 C 66.098 254.409,66.765 256.029,67.236 257.083 C 67.708 258.137,68.360 259.630,68.687 260.400 C 69.666 262.709,73.592 270.403,74.631 272.049 C 75.164 272.893,75.600 273.674,75.600 273.783 C 75.600 274.277,83.496 286.316,84.400 287.200 C 84.513 287.310,85.140 288.120,85.796 289.000 C 92.080 297.442,102.493 307.974,111.400 314.897 C 113.970 316.894,123.492 323.600,123.758 323.600 C 123.821 323.600,125.386 324.515,127.236 325.633 C 137.845 332.044,153.528 338.410,165.600 341.204 C 166.370 341.382,168.260 341.823,169.800 342.185 C 174.028 343.177,179.883 344.050,187.560 344.831 C 192.966 345.381,213.166 345.107,217.400 344.427 C 218.940 344.180,221.370 343.797,222.800 343.576 C 226.248 343.045,229.121 342.466,233.000 341.519 C 234.760 341.089,236.830 340.591,237.600 340.410 C 261.853 334.732,291.304 316.250,309.002 295.600 C 312.784 291.187,321.600 279.301,321.600 278.615 C 321.600 278.454,322.005 277.758,322.500 277.067 C 322.995 276.377,323.600 275.449,323.844 275.006 C 324.089 274.563,324.960 273.030,325.781 271.600 C 328.330 267.159,332.842 257.503,334.380 253.200 C 334.656 252.430,335.036 251.440,335.227 251.000 C 335.672 249.970,337.208 245.355,337.624 243.800 C 337.800 243.140,338.417 240.980,338.993 239.000 C 339.570 237.020,340.205 234.590,340.405 233.600 C 341.449 228.428,341.697 227.124,342.232 224.000 C 344.578 210.285,344.288 186.379,341.638 175.000 C 341.433 174.120,341.045 172.320,340.776 171.000 C 340.507 169.680,339.931 167.250,339.497 165.600 C 339.062 163.950,338.569 162.060,338.402 161.400 C 338.021 159.900,335.701 152.878,335.230 151.800 C 335.038 151.360,334.656 150.370,334.380 149.600 C 330.340 138.294,321.967 123.592,313.206 112.418 C 305.778 102.945,295.125 92.583,285.600 85.568 C 280.024 81.460,279.654 81.200,279.400 81.200 C 279.261 81.200,278.574 80.768,277.873 80.239 C 274.352 77.583,261.401 70.772,255.400 68.421 C 254.960 68.248,254.150 67.917,253.600 67.686 C 251.742 66.903,247.020 65.248,243.600 64.181 C 238.712 62.657,238.268 62.412,238.959 61.632 C 242.676 57.436,242.297 51.439,238.148 48.808 L 236.243 47.600 200.022 47.639 C 171.657 47.670,163.602 47.788,162.885 48.184 M236.524 48.594 C 241.046 50.483,242.222 54.969,239.427 59.662 C 237.999 62.058,237.852 63.072,238.891 63.358 C 240.585 63.825,246.731 65.739,247.400 66.007 C 247.840 66.184,250.000 66.999,252.200 67.819 C 265.869 72.910,280.632 81.747,293.000 92.242 C 310.176 106.817,324.494 126.589,332.796 147.200 C 333.284 148.410,333.840 149.760,334.032 150.200 C 334.936 152.273,338.751 164.543,339.379 167.400 C 346.410 199.377,343.932 230.198,332.168 257.100 C 331.856 257.815,331.307 259.075,330.949 259.900 C 328.894 264.636,324.812 272.323,322.133 276.504 C 321.180 277.991,320.400 279.294,320.400 279.400 C 320.400 280.929,308.332 295.706,301.616 302.400 C 294.998 308.996,295.025 308.972,289.197 313.643 C 280.450 320.654,266.764 329.002,258.917 332.113 C 257.991 332.480,256.371 333.162,255.317 333.630 C 254.263 334.097,253.040 334.619,252.600 334.790 C 252.160 334.961,251.260 335.321,250.600 335.591 C 224.343 346.328,191.254 347.596,160.000 339.063 C 155.576 337.855,150.006 335.896,145.000 333.788 C 144.340 333.511,142.810 332.867,141.600 332.358 C 133.442 328.927,121.251 321.703,113.099 315.470 C 103.324 307.996,92.878 297.564,86.193 288.600 C 85.537 287.720,84.775 286.762,84.500 286.471 C 84.225 286.181,84.000 285.810,84.000 285.647 C 84.000 285.484,83.677 285.002,83.281 284.575 C 80.454 281.525,71.367 265.507,68.319 258.200 C 56.806 230.605,53.778 202.582,59.239 174.200 C 61.048 164.800,64.517 153.361,67.971 145.400 C 68.162 144.960,68.630 143.880,69.011 143.000 C 71.053 138.282,75.089 130.679,77.879 126.296 C 78.826 124.809,79.600 123.506,79.600 123.400 C 79.600 123.295,80.713 121.632,82.073 119.705 C 92.092 105.507,105.214 92.483,118.739 83.311 C 121.083 81.722,123.217 80.237,123.483 80.011 C 123.749 79.785,124.081 79.600,124.221 79.600 C 124.362 79.600,124.954 79.266,125.538 78.857 C 129.533 76.063,142.951 69.508,149.400 67.202 C 150.720 66.729,152.160 66.197,152.600 66.019 C 154.345 65.311,159.932 63.600,160.500 63.600 C 160.831 63.600,161.331 63.325,161.610 62.988 C 162.154 62.332,162.186 62.428,160.205 58.800 C 158.015 54.788,159.716 49.905,163.800 48.481 C 165.904 47.748,234.755 47.855,236.524 48.594 M164.654 53.229 C 163.383 54.229,163.284 55.773,164.400 57.200 C 164.830 57.750,165.186 58.326,165.191 58.479 C 165.196 58.633,166.282 60.475,167.604 62.574 C 168.926 64.672,170.344 66.977,170.754 67.695 C 171.165 68.413,173.257 71.880,175.404 75.400 C 177.551 78.920,180.336 83.510,181.592 85.600 C 186.764 94.207,190.991 101.099,192.062 102.672 C 192.688 103.592,193.200 104.434,193.200 104.544 C 193.200 105.532,198.566 113.155,199.411 113.367 C 200.925 113.747,204.800 110.038,204.800 108.209 C 204.800 108.113,206.060 106.038,207.600 103.600 C 209.140 101.162,210.400 99.092,210.400 99.000 C 210.400 98.908,211.660 96.838,213.200 94.400 C 214.740 91.962,216.000 89.892,216.000 89.800 C 216.000 89.708,217.260 87.638,218.800 85.200 C 220.340 82.762,221.600 80.687,221.600 80.591 C 221.600 80.494,222.240 79.414,223.023 78.191 C 224.735 75.515,231.788 63.956,232.885 62.030 C 233.314 61.277,234.276 59.705,235.023 58.537 C 236.956 55.516,237.095 54.659,235.856 53.420 L 234.836 52.400 200.272 52.400 C 165.910 52.400,165.702 52.405,164.654 53.229 M235.761 54.480 C 236.089 55.414,235.879 55.984,234.211 58.680 C 233.150 60.396,231.950 62.387,231.545 63.105 C 231.139 63.823,229.726 66.128,228.404 68.226 C 227.082 70.325,226.000 72.115,226.000 72.204 C 226.000 72.293,224.740 74.362,223.200 76.800 C 221.660 79.238,220.400 81.308,220.400 81.400 C 220.400 81.492,219.140 83.562,217.600 86.000 C 216.060 88.438,214.800 90.508,214.800 90.600 C 214.800 90.692,213.540 92.762,212.000 95.200 C 210.460 97.638,209.200 99.707,209.200 99.796 C 209.200 99.885,208.120 101.672,206.800 103.768 C 205.480 105.863,204.400 107.762,204.400 107.989 C 204.400 108.215,204.220 108.400,204.000 108.400 C 203.780 108.400,203.600 108.593,203.600 108.828 C 203.600 109.063,203.051 110.053,202.381 111.028 C 200.315 114.030,199.409 113.679,196.369 108.700 C 192.205 101.878,188.409 95.648,185.462 90.800 C 183.924 88.270,181.346 84.075,179.733 81.478 C 178.120 78.882,176.800 76.686,176.800 76.599 C 176.800 76.513,175.718 74.725,174.396 72.626 C 173.074 70.528,171.658 68.223,171.250 67.505 C 170.075 65.439,166.451 59.441,166.110 58.998 C 164.501 56.908,163.941 55.150,164.576 54.181 L 165.221 53.196 200.301 53.298 L 235.381 53.400 235.761 54.480 M162.000 67.626 C 161.450 67.813,158.776 68.697,156.058 69.590 C 151.753 71.005,150.121 71.604,146.200 73.210 C 107.367 89.119,77.001 123.984,65.733 165.600 C 65.406 166.810,64.987 168.340,64.804 169.000 C 60.402 184.831,59.880 207.645,63.474 227.200 C 64.020 230.170,64.622 233.140,64.813 233.800 C 65.004 234.460,65.450 236.128,65.803 237.507 C 69.585 252.266,77.575 269.147,86.957 282.200 C 88.064 283.740,89.068 285.090,89.187 285.200 C 89.307 285.310,89.934 286.120,90.581 287.000 C 91.228 287.880,91.858 288.690,91.980 288.800 C 92.102 288.910,93.488 290.530,95.060 292.400 C 103.488 302.426,119.067 315.387,130.200 321.634 C 140.123 327.203,150.890 331.759,162.200 335.175 C 163.690 335.625,171.438 337.387,174.400 337.950 C 191.559 341.207,208.935 341.206,226.000 337.947 C 228.553 337.459,236.047 335.697,237.800 335.172 C 248.537 331.957,259.300 327.495,267.204 322.983 C 268.632 322.168,270.610 321.049,271.600 320.497 C 283.166 314.044,299.792 299.390,309.161 287.391 C 321.001 272.226,330.012 254.161,334.397 236.800 C 334.647 235.810,335.005 234.460,335.193 233.800 C 344.692 200.382,336.859 156.224,315.820 124.596 C 307.566 112.188,295.605 99.303,285.000 91.393 C 284.120 90.737,283.153 89.965,282.850 89.679 C 279.535 86.536,262.029 76.553,254.400 73.455 C 253.410 73.053,252.060 72.488,251.400 72.200 C 250.176 71.665,240.725 68.477,237.766 67.600 C 235.527 66.936,234.856 67.158,233.858 68.891 C 233.386 69.711,232.032 71.961,230.849 73.891 C 229.665 75.821,228.248 78.210,227.699 79.200 C 227.150 80.190,226.543 81.171,226.351 81.380 C 225.762 82.018,225.959 83.134,226.700 83.357 C 227.085 83.473,229.200 84.041,231.400 84.620 C 235.202 85.620,239.257 86.872,241.000 87.584 C 241.440 87.763,243.510 88.587,245.600 89.414 C 280.831 103.354,310.048 137.346,317.617 173.200 C 318.199 175.958,319.531 183.058,320.055 186.200 C 320.795 190.631,320.790 211.750,320.049 216.400 C 318.913 223.520,317.687 229.559,316.596 233.400 C 316.221 234.720,315.775 236.340,315.604 237.000 C 314.150 242.639,308.159 256.395,304.931 261.508 C 304.199 262.667,303.600 263.713,303.600 263.831 C 303.600 264.083,298.005 272.503,297.641 272.800 C 297.506 272.910,296.866 273.720,296.220 274.600 C 282.710 292.986,260.727 308.722,238.400 315.991 C 230.802 318.464,228.306 319.084,219.200 320.758 C 208.959 322.641,191.041 322.641,180.800 320.758 C 174.898 319.673,170.783 318.782,167.800 317.943 C 165.421 317.274,157.920 314.834,157.000 314.429 C 156.560 314.236,154.940 313.570,153.400 312.950 C 149.331 311.312,142.705 307.986,138.836 305.640 C 136.986 304.518,135.418 303.600,135.351 303.600 C 135.049 303.600,127.843 298.415,124.600 295.863 C 120.402 292.560,115.307 287.802,110.996 283.158 C 95.843 266.837,85.516 246.270,81.291 224.000 C 79.559 214.872,79.419 213.191,79.419 201.400 C 79.419 189.982,79.553 188.218,81.054 179.800 C 83.377 166.767,89.355 150.343,95.069 141.292 C 95.801 140.133,96.400 139.087,96.400 138.969 C 96.400 138.474,102.345 129.925,105.073 126.497 C 114.021 115.253,128.062 102.880,137.800 97.658 C 138.680 97.187,140.480 96.168,141.800 95.395 C 145.043 93.496,149.982 91.182,155.400 89.022 C 156.940 88.409,158.560 87.760,159.000 87.582 C 160.798 86.852,164.832 85.612,168.600 84.631 C 175.176 82.918,174.986 83.176,172.532 79.292 C 171.799 78.133,171.200 77.108,171.200 77.014 C 171.200 76.920,169.834 74.673,168.165 72.022 C 164.915 66.860,164.700 66.706,162.000 67.626 M167.432 72.000 C 168.827 74.310,170.156 76.417,170.385 76.683 C 170.613 76.949,170.800 77.272,170.800 77.402 C 170.800 77.532,171.430 78.623,172.200 79.827 C 174.167 82.902,174.455 82.589,168.400 83.963 C 166.697 84.349,156.820 87.675,154.600 88.609 C 148.673 91.104,141.282 94.781,137.800 96.968 C 123.386 106.019,113.176 115.080,103.732 127.200 C 101.059 130.631,96.000 138.191,96.000 138.755 C 96.000 139.000,95.865 139.201,95.700 139.203 C 95.535 139.205,95.196 139.610,94.948 140.103 C 94.699 140.596,93.169 143.622,91.548 146.826 C 89.926 150.030,88.360 153.270,88.066 154.026 C 87.773 154.782,87.381 155.760,87.195 156.200 C 86.184 158.596,84.800 162.394,84.800 162.774 C 84.800 163.014,84.642 163.523,84.449 163.905 C 83.910 164.972,83.060 167.998,81.611 174.000 C 78.854 185.422,77.762 199.919,78.824 210.982 C 80.015 223.374,81.869 231.806,85.865 243.000 C 87.547 247.712,87.669 247.998,90.833 254.600 C 92.203 257.460,93.926 260.748,94.662 261.908 C 95.398 263.067,96.000 264.122,96.000 264.253 C 96.000 264.384,97.281 266.405,98.847 268.745 C 111.615 287.824,130.496 303.697,151.000 312.588 C 151.880 312.969,152.960 313.438,153.400 313.630 C 156.064 314.789,161.778 316.780,167.000 318.369 C 169.193 319.036,175.369 320.475,177.600 320.839 C 187.352 322.430,191.387 322.779,200.000 322.779 C 208.613 322.779,212.648 322.430,222.400 320.839 C 224.603 320.480,230.744 319.051,233.000 318.373 C 235.802 317.531,243.064 315.134,243.800 314.808 C 244.240 314.614,245.275 314.172,246.100 313.827 C 268.945 304.277,287.461 289.111,301.142 268.745 C 302.714 266.405,304.000 264.290,304.000 264.045 C 304.000 263.800,304.135 263.599,304.300 263.597 C 304.465 263.595,304.801 263.190,305.047 262.697 C 305.293 262.204,306.739 259.370,308.260 256.400 C 310.697 251.641,311.615 249.662,312.807 246.600 C 312.978 246.160,313.386 245.170,313.713 244.400 C 314.040 243.630,314.534 242.280,314.809 241.400 C 315.085 240.520,315.441 239.440,315.600 239.000 C 316.105 237.602,316.720 235.479,317.396 232.800 C 317.756 231.370,318.218 229.570,318.422 228.800 C 321.000 219.056,322.276 201.926,321.188 191.677 C 320.319 183.489,320.062 181.915,318.009 172.200 C 317.823 171.320,317.368 169.610,316.997 168.400 C 316.627 167.190,316.230 165.703,316.116 165.095 C 316.001 164.487,315.749 163.892,315.554 163.771 C 315.359 163.651,315.200 163.220,315.200 162.813 C 315.200 162.406,314.289 159.799,313.177 157.019 C 305.289 137.319,293.551 121.181,277.200 107.557 C 273.659 104.606,268.520 100.800,268.076 100.800 C 267.851 100.800,267.607 100.664,267.533 100.498 C 266.908 99.082,253.185 91.781,244.800 88.404 C 243.590 87.916,242.240 87.365,241.800 87.179 C 240.532 86.642,237.400 85.679,230.200 83.610 C 229.540 83.421,228.415 83.147,227.700 83.001 C 226.108 82.677,226.102 82.827,227.800 80.173 C 228.570 78.969,229.200 77.906,229.200 77.809 C 229.200 77.713,230.460 75.638,232.000 73.200 C 233.540 70.762,234.800 68.613,234.800 68.426 C 234.800 67.852,235.960 67.602,236.905 67.972 C 237.397 68.165,239.420 68.801,241.400 69.385 C 243.380 69.970,245.360 70.602,245.800 70.792 C 246.240 70.981,247.950 71.628,249.600 72.230 C 278.643 82.827,305.554 106.179,321.013 134.200 C 323.520 138.745,327.242 146.539,328.366 149.600 C 328.649 150.370,329.028 151.360,329.208 151.800 C 330.305 154.477,331.600 158.315,331.600 158.885 C 331.600 159.252,331.756 159.649,331.946 159.767 C 332.136 159.884,332.404 160.570,332.541 161.290 C 332.678 162.011,333.079 163.590,333.433 164.800 C 334.979 170.087,336.629 178.111,337.216 183.200 C 339.271 201.023,338.509 216.426,334.761 232.800 C 333.211 239.576,329.988 249.681,328.353 252.895 C 328.159 253.277,328.000 253.765,328.000 253.979 C 328.000 254.194,327.177 256.131,326.171 258.285 C 325.165 260.438,324.047 262.830,323.687 263.600 C 320.603 270.196,309.015 287.781,306.027 290.400 C 305.901 290.510,305.194 291.320,304.454 292.200 C 299.782 297.762,290.221 306.662,283.513 311.694 C 279.963 314.358,271.052 320.400,270.674 320.400 C 270.560 320.400,269.146 321.170,267.533 322.112 C 264.673 323.782,258.612 326.821,255.400 328.196 C 254.520 328.573,253.440 329.038,253.000 329.230 C 247.106 331.795,235.253 335.456,228.600 336.766 C 227.280 337.026,225.390 337.403,224.400 337.605 C 209.517 340.637,193.149 340.506,173.400 337.197 C 167.183 336.155,153.255 331.952,147.000 329.230 C 146.560 329.038,145.480 328.572,144.600 328.193 C 141.045 326.663,135.233 323.757,132.467 322.128 C 130.854 321.178,129.433 320.400,129.310 320.400 C 128.470 320.400,114.891 310.689,110.600 307.019 C 105.208 302.408,96.893 294.035,93.800 290.102 C 93.360 289.543,92.460 288.423,91.800 287.614 C 91.140 286.804,90.240 285.642,89.800 285.031 C 89.360 284.420,88.488 283.263,87.861 282.460 C 86.483 280.694,81.600 273.306,81.600 272.988 C 81.600 272.864,81.003 271.825,80.273 270.681 C 78.970 268.637,73.200 257.227,73.200 256.694 C 73.200 256.544,72.767 255.472,72.239 254.311 C 71.710 253.150,70.789 250.850,70.191 249.200 C 69.594 247.550,68.966 245.840,68.795 245.400 C 68.098 243.604,66.002 236.161,65.246 232.800 C 63.137 223.427,62.667 220.031,61.942 208.936 C 61.065 195.505,62.540 180.227,66.013 166.800 C 66.593 164.554,68.456 158.273,68.800 157.400 C 68.973 156.960,69.418 155.700,69.789 154.600 C 70.509 152.462,71.078 151.024,71.647 149.905 C 71.841 149.523,72.000 149.035,72.000 148.821 C 72.000 148.606,72.823 146.669,73.829 144.515 C 74.835 142.362,75.953 139.970,76.313 139.200 C 82.791 125.348,95.855 108.605,109.200 97.052 C 115.149 91.901,128.206 82.400,129.335 82.400 C 129.472 82.400,130.533 81.801,131.692 81.069 C 133.640 79.839,140.991 76.152,144.500 74.644 C 145.325 74.290,146.585 73.744,147.300 73.430 C 148.015 73.117,149.680 72.474,151.000 72.002 C 152.320 71.530,153.760 70.987,154.200 70.795 C 154.640 70.604,156.620 69.969,158.600 69.384 C 160.580 68.800,162.560 68.169,163.000 67.983 C 164.445 67.372,164.867 67.755,167.432 72.000 M194.000 171.441 C 182.388 173.946,174.675 181.198,170.431 193.600 C 168.712 198.624,169.681 208.698,172.426 214.348 C 186.678 243.677,230.247 233.911,230.189 201.400 C 230.154 181.751,212.801 167.386,194.000 171.441 M204.000 171.793 C 214.341 173.555,221.587 178.560,226.338 187.223 C 227.478 189.301,227.797 190.135,229.242 194.800 C 230.007 197.269,229.907 205.497,229.078 208.400 C 227.969 212.281,227.713 212.958,226.462 215.308 C 224.767 218.494,221.947 222.067,219.697 223.879 C 218.658 224.716,217.500 225.670,217.124 226.000 C 216.491 226.555,212.855 228.462,211.000 229.211 C 204.290 231.921,195.308 231.884,188.800 229.120 C 186.929 228.325,184.602 227.083,183.969 226.541 C 183.621 226.243,183.218 226.000,183.072 226.000 C 182.252 226.000,177.841 221.641,175.710 218.727 C 171.942 213.571,170.306 208.327,170.306 201.400 C 170.306 196.891,170.539 195.400,171.931 191.000 C 173.093 187.325,177.169 181.445,180.303 178.921 C 181.342 178.084,182.500 177.130,182.876 176.800 C 183.503 176.250,187.079 174.372,189.000 173.584 C 191.468 172.571,196.927 171.373,199.600 171.257 C 200.150 171.233,202.130 171.475,204.000 171.793 M224.864 225.956 C 211.549 239.839,189.351 239.991,175.341 226.296 L 172.481 223.501 169.541 225.829 C 167.923 227.109,166.510 228.260,166.400 228.387 C 166.290 228.513,154.972 237.613,141.248 248.608 C 127.524 259.604,114.834 269.774,113.048 271.210 C 109.167 274.328,109.202 274.071,112.195 277.475 C 157.913 329.477,237.124 331.282,284.415 281.400 C 287.869 277.757,290.800 274.318,290.800 273.909 C 290.800 273.487,290.682 273.608,287.200 277.601 C 283.179 282.212,277.376 287.851,273.400 291.011 C 272.300 291.885,271.310 292.702,271.200 292.826 C 270.867 293.202,263.151 298.544,260.821 300.012 C 255.997 303.051,243.581 309.200,242.269 309.200 C 241.989 309.200,241.589 309.353,241.380 309.539 C 240.085 310.695,226.003 314.559,219.400 315.571 C 212.829 316.578,210.593 316.795,205.800 316.894 L 200.600 317.000 200.276 277.821 C 200.098 256.273,200.050 238.255,200.169 237.781 C 200.361 237.015,200.751 236.891,203.693 236.656 C 206.961 236.395,210.492 235.641,211.047 235.086 C 211.205 234.929,211.630 234.800,211.992 234.800 C 214.905 234.800,227.600 225.708,227.600 223.622 C 227.600 223.071,227.771 222.925,224.864 225.956 " stroke="none" fill="#8e6cc2" fill-rule="evenodd"></path><path id="path3" d="M225.400 226.158 C 221.347 230.282,214.337 234.800,211.992 234.800 C 211.630 234.800,211.205 234.929,211.047 235.086 C 210.492 235.641,206.961 236.395,203.693 236.656 C 200.751 236.891,200.361 237.015,200.169 237.781 C 200.050 238.255,200.098 256.273,200.276 277.821 L 200.600 317.000 205.800 316.894 C 215.662 316.692,225.977 314.806,237.000 311.190 C 239.200 310.469,241.171 309.726,241.380 309.539 C 241.589 309.353,241.989 309.200,242.269 309.200 C 243.581 309.200,255.997 303.051,260.821 300.012 C 263.151 298.544,270.867 293.202,271.200 292.826 C 271.310 292.702,272.300 291.885,273.400 291.011 C 277.398 287.833,283.209 282.183,287.200 277.591 C 288.630 275.946,289.935 274.540,290.100 274.467 C 291.141 274.004,289.610 272.407,283.517 267.600 C 279.753 264.630,273.866 259.979,270.436 257.264 C 267.006 254.550,262.110 250.680,259.555 248.664 C 257.000 246.649,248.990 240.308,241.755 234.573 C 234.520 228.837,228.420 224.048,228.200 223.930 C 227.980 223.812,226.720 224.815,225.400 226.158 " stroke="none" fill="#fd68d0" fill-rule="evenodd"></path><path id="path4" d="M257.200 100.421 C 258.242 101.130,260.000 102.028,260.000 101.850 C 260.000 101.628,257.239 99.998,256.877 100.006 C 256.725 100.009,256.870 100.196,257.200 100.421 M266.000 105.746 C 266.000 105.856,266.540 106.330,267.200 106.800 C 267.860 107.270,268.400 107.564,268.400 107.454 C 268.400 107.344,267.860 106.870,267.200 106.400 C 266.540 105.930,266.000 105.636,266.000 105.746 M274.400 112.125 C 274.400 112.194,274.985 112.779,275.700 113.425 L 277.000 114.600 275.825 113.300 C 274.730 112.088,274.400 111.816,274.400 112.125 M282.000 119.400 C 284.523 121.930,286.677 124.000,286.787 124.000 C 286.897 124.000,284.923 121.930,282.400 119.400 C 279.877 116.870,277.723 114.800,277.613 114.800 C 277.503 114.800,279.477 116.870,282.000 119.400 M294.400 134.000 C 294.870 134.660,295.344 135.200,295.454 135.200 C 295.564 135.200,295.270 134.660,294.800 134.000 C 294.330 133.340,293.856 132.800,293.746 132.800 C 293.636 132.800,293.930 133.340,294.400 134.000 M217.800 171.007 C 218.240 171.366,218.960 171.835,219.400 172.051 L 220.200 172.444 219.400 171.793 C 218.960 171.434,218.240 170.965,217.800 170.749 L 217.000 170.356 217.800 171.007 M222.000 173.710 C 222.000 173.771,223.395 175.166,225.100 176.810 L 228.200 179.800 225.210 176.700 C 222.433 173.821,222.000 173.417,222.000 173.710 M312.767 174.362 C 312.588 175.394,313.018 175.257,302.400 177.656 C 300.310 178.128,295.990 179.120,292.800 179.860 C 289.610 180.601,285.020 181.665,282.600 182.226 C 280.180 182.787,276.670 183.604,274.800 184.042 C 267.170 185.829,261.920 187.039,254.200 188.789 C 249.740 189.800,242.435 191.494,238.415 192.451 C 235.147 193.228,235.011 193.231,234.474 192.528 C 233.945 191.836,233.928 191.839,234.143 192.600 C 236.704 201.657,234.473 213.833,228.822 221.633 C 228.141 222.574,227.722 223.462,227.892 223.607 C 228.355 224.003,258.892 248.160,267.057 254.590 C 278.418 263.535,290.242 273.008,290.505 273.375 C 291.584 274.878,302.523 257.292,306.935 246.960 C 311.214 236.939,313.954 226.696,315.431 215.200 C 316.258 208.768,316.036 190.170,315.067 184.600 C 313.428 175.188,312.974 173.167,312.767 174.362 M228.800 181.200 C 229.270 181.860,229.744 182.400,229.854 182.400 C 229.964 182.400,229.670 181.860,229.200 181.200 C 228.730 180.540,228.256 180.000,228.146 180.000 C 228.036 180.000,228.330 180.540,228.800 181.200 " stroke="none" fill="#f74344" fill-rule="evenodd"></path><path id="path5" d="M176.291 87.887 C 176.860 87.992,177.715 88.914,178.652 90.432 C 179.460 91.741,180.199 92.734,180.294 92.640 C 180.795 92.138,177.323 87.798,176.392 87.761 C 175.535 87.728,175.521 87.745,176.291 87.887 M219.968 92.300 C 218.380 94.885,216.141 98.530,214.992 100.400 C 213.843 102.270,211.771 105.690,210.389 108.000 C 209.006 110.310,207.600 112.650,207.264 113.200 C 206.928 113.750,206.844 114.020,207.077 113.800 C 207.521 113.381,212.400 105.678,212.400 105.396 C 212.400 105.307,213.634 103.280,215.141 100.893 C 216.649 98.506,217.954 96.374,218.041 96.156 C 219.002 93.757,223.133 88.012,223.995 87.877 L 225.000 87.720 223.927 87.660 C 222.969 87.606,222.547 88.100,219.968 92.300 M172.600 88.400 L 171.800 88.744 172.600 88.744 C 173.040 88.744,173.760 88.589,174.200 88.400 L 175.000 88.056 174.200 88.056 C 173.760 88.056,173.040 88.211,172.600 88.400 M226.000 88.400 C 226.330 88.613,226.960 88.778,227.400 88.766 L 228.200 88.744 227.400 88.400 C 226.204 87.886,225.205 87.886,226.000 88.400 M168.600 89.411 C 167.720 89.701,167.270 89.950,167.600 89.963 C 167.930 89.977,169.010 89.733,170.000 89.421 C 170.990 89.109,171.440 88.860,171.000 88.869 C 170.560 88.877,169.480 89.121,168.600 89.411 M230.000 89.421 C 230.990 89.733,232.070 89.979,232.400 89.967 C 232.730 89.956,232.190 89.691,231.200 89.379 C 230.210 89.067,229.130 88.821,228.800 88.833 C 228.470 88.844,229.010 89.109,230.000 89.421 M162.800 91.200 C 162.267 91.545,162.267 91.588,162.800 91.588 C 163.130 91.588,163.670 91.413,164.000 91.200 C 164.533 90.855,164.533 90.812,164.000 90.812 C 163.670 90.812,163.130 90.987,162.800 91.200 M236.000 91.200 C 236.330 91.413,236.870 91.588,237.200 91.588 C 237.733 91.588,237.733 91.545,237.200 91.200 C 236.870 90.987,236.330 90.812,236.000 90.812 C 235.467 90.812,235.467 90.855,236.000 91.200 M158.800 92.616 C 157.590 93.137,156.780 93.571,157.000 93.581 C 157.425 93.601,161.685 92.043,161.967 91.765 C 162.409 91.327,160.773 91.767,158.800 92.616 M240.168 92.617 C 241.470 93.158,242.730 93.592,242.968 93.583 C 243.206 93.574,242.334 93.124,241.032 92.583 C 239.730 92.042,238.470 91.608,238.232 91.617 C 237.994 91.626,238.866 92.076,240.168 92.617 M243.600 93.781 C 243.600 93.943,244.294 94.273,248.500 96.114 C 249.976 96.760,249.978 96.754,246.955 103.072 C 245.500 106.112,243.542 110.220,242.604 112.200 C 241.667 114.180,239.640 118.410,238.101 121.600 C 236.561 124.790,234.536 129.020,233.600 131.000 C 230.810 136.903,226.088 146.775,220.207 159.000 C 218.725 162.080,217.077 165.545,216.544 166.700 C 215.440 169.097,215.035 169.215,212.163 167.984 C 211.116 167.535,209.995 167.220,209.672 167.284 C 209.349 167.348,210.630 167.913,212.519 168.540 C 222.156 171.739,230.198 179.978,233.568 190.103 C 234.686 193.463,234.509 193.379,238.481 192.435 C 242.471 191.486,249.804 189.785,254.200 188.789 C 259.406 187.608,266.359 186.011,270.000 185.158 C 271.870 184.720,274.480 184.111,275.800 183.804 C 277.120 183.497,280.090 182.806,282.400 182.268 C 286.241 181.373,294.508 179.467,302.600 177.610 C 304.360 177.206,307.240 176.557,309.000 176.167 C 313.058 175.270,313.064 175.263,312.439 172.703 C 311.665 169.533,309.537 162.660,308.817 161.000 C 308.626 160.560,307.894 158.760,307.192 157.000 C 299.688 138.197,286.127 120.951,268.400 107.669 C 261.593 102.568,243.600 92.493,243.600 93.781 M151.800 95.585 C 150.480 96.216,149.580 96.741,149.800 96.753 C 150.020 96.765,151.280 96.253,152.600 95.615 C 153.920 94.977,154.820 94.451,154.600 94.447 C 154.380 94.443,153.120 94.955,151.800 95.585 M181.250 94.618 C 181.571 95.511,185.727 102.007,185.880 101.854 C 185.969 101.765,185.101 100.186,183.952 98.346 C 181.923 95.097,180.931 93.728,181.250 94.618 M186.800 103.699 C 186.800 104.034,191.571 111.674,192.108 112.200 C 192.676 112.755,192.292 112.060,189.677 107.800 C 187.422 104.126,186.800 103.240,186.800 103.699 M192.424 112.935 C 192.251 115.391,198.711 119.443,201.209 118.446 C 202.076 118.100,201.961 118.048,200.287 118.025 C 197.120 117.983,194.958 116.615,192.924 113.362 C 192.661 112.943,192.436 112.751,192.424 112.935 M205.640 115.544 C 205.192 116.173,204.235 116.979,203.513 117.335 C 202.791 117.691,202.453 117.986,202.762 117.991 C 203.504 118.003,205.878 116.176,206.409 115.184 C 207.032 114.020,206.572 114.235,205.640 115.544 M197.300 166.297 C 198.785 166.374,201.215 166.374,202.700 166.297 C 204.185 166.220,202.970 166.157,200.000 166.157 C 197.030 166.157,195.815 166.220,197.300 166.297 M191.800 166.800 L 191.000 167.144 191.800 167.132 C 192.240 167.126,193.050 166.976,193.600 166.800 L 194.600 166.480 193.600 166.468 C 193.050 166.462,192.240 166.611,191.800 166.800 M206.400 166.800 C 206.950 166.976,207.760 167.126,208.200 167.132 L 209.000 167.144 208.200 166.800 C 207.760 166.611,206.950 166.462,206.400 166.468 L 205.400 166.480 206.400 166.800 M187.200 168.216 C 184.320 169.455,185.086 169.454,188.400 168.214 C 189.830 167.679,190.640 167.248,190.200 167.256 C 189.760 167.263,188.410 167.696,187.200 168.216 " stroke="none" fill="#faa048" fill-rule="evenodd"></path><path id="path6" d="M170.800 89.203 C 168.490 89.813,165.700 90.614,164.600 90.983 C 161.474 92.031,157.119 93.625,155.800 94.204 C 152.889 95.482,149.788 96.908,149.650 97.032 C 149.568 97.106,150.047 98.299,150.716 99.683 C 152.680 103.748,159.799 118.402,163.696 126.400 C 165.679 130.470,168.336 135.960,169.602 138.600 C 170.867 141.240,173.831 147.360,176.190 152.200 C 178.549 157.040,181.373 162.845,182.467 165.100 C 183.560 167.355,184.526 169.200,184.612 169.200 C 184.699 169.200,185.722 168.822,186.885 168.359 C 194.431 165.358,205.649 165.268,212.549 168.152 C 215.032 169.191,215.470 169.032,216.544 166.700 C 217.077 165.545,218.725 162.080,220.207 159.000 C 226.088 146.775,230.810 136.903,233.600 131.000 C 234.536 129.020,236.561 124.790,238.101 121.600 C 239.640 118.410,241.667 114.180,242.604 112.200 C 243.542 110.220,245.500 106.112,246.955 103.072 C 250.022 96.662,250.001 96.769,248.300 96.032 C 247.585 95.723,246.100 95.068,245.000 94.578 C 239.312 92.042,228.370 88.615,224.400 88.126 C 223.009 87.954,221.061 90.443,217.771 96.597 C 217.535 97.039,216.378 98.930,215.200 100.800 C 214.022 102.670,212.865 104.563,212.629 105.007 C 210.704 108.624,205.584 116.269,204.609 116.982 C 200.596 119.916,195.204 118.428,192.779 113.718 C 192.462 113.103,190.987 110.657,189.502 108.283 C 188.016 105.909,186.800 103.892,186.800 103.800 C 186.800 103.708,185.540 101.638,184.000 99.200 C 182.460 96.762,181.200 94.690,181.200 94.596 C 181.200 94.503,180.282 92.981,179.160 91.213 C 176.776 87.458,177.106 87.538,170.800 89.203 " stroke="none" fill="#ecd83b" fill-rule="evenodd"></path><path id="path7" d="M78.500 0.298 C 75.936 0.402,75.200 0.562,75.200 1.016 C 75.200 1.472,74.588 1.600,72.400 1.600 C 70.800 1.600,69.600 1.771,69.600 2.000 C 69.600 2.222,68.533 2.400,67.200 2.400 C 65.867 2.400,64.800 2.578,64.800 2.800 C 64.800 3.020,64.170 3.200,63.400 3.200 C 62.422 3.200,62.000 3.381,62.000 3.800 C 62.000 4.244,61.533 4.400,60.200 4.400 C 59.210 4.400,58.400 4.580,58.400 4.800 C 58.400 5.020,57.950 5.200,57.400 5.200 C 56.850 5.200,56.400 5.380,56.400 5.600 C 56.400 5.820,55.770 6.000,55.000 6.000 C 54.022 6.000,53.600 6.181,53.600 6.600 C 53.600 6.933,53.244 7.200,52.800 7.200 C 52.360 7.200,52.000 7.380,52.000 7.600 C 52.000 7.820,51.370 8.000,50.600 8.000 C 49.830 8.000,49.200 8.180,49.200 8.400 C 49.200 8.620,48.750 8.800,48.200 8.800 C 47.578 8.800,47.200 9.027,47.200 9.400 C 47.200 9.773,46.822 10.000,46.200 10.000 C 45.650 10.000,45.200 10.180,45.200 10.400 C 45.200 10.620,44.840 10.800,44.400 10.800 C 43.960 10.800,43.600 10.980,43.600 11.200 C 43.600 11.420,43.330 11.600,43.000 11.600 C 42.670 11.600,42.400 11.870,42.400 12.200 C 42.400 12.533,42.044 12.800,41.600 12.800 C 41.160 12.800,40.800 12.980,40.800 13.200 C 40.800 13.420,40.427 13.600,39.971 13.600 C 39.086 13.600,38.000 14.466,38.000 15.171 C 38.000 15.407,37.590 15.600,37.088 15.600 C 36.587 15.600,35.917 15.960,35.600 16.400 C 35.283 16.840,34.793 17.200,34.512 17.200 C 34.230 17.200,34.000 17.393,34.000 17.629 C 34.000 18.276,32.942 19.200,32.200 19.200 C 31.553 19.200,30.400 20.097,30.400 20.600 C 30.400 20.934,29.334 22.000,29.000 22.000 C 28.666 22.000,27.600 23.066,27.600 23.400 C 27.600 23.957,26.413 24.800,25.629 24.800 C 25.057 24.800,24.800 25.057,24.800 25.629 C 24.800 26.413,23.957 27.600,23.400 27.600 C 23.066 27.600,22.000 28.666,22.000 29.000 C 22.000 29.334,20.934 30.400,20.600 30.400 C 20.185 30.400,19.200 31.505,19.200 31.971 C 19.200 32.207,19.020 32.400,18.800 32.400 C 18.580 32.400,18.400 32.760,18.400 33.200 C 18.400 33.644,18.133 34.000,17.800 34.000 C 17.470 34.000,17.200 34.230,17.200 34.512 C 17.200 34.793,16.840 35.283,16.400 35.600 C 15.960 35.917,15.600 36.587,15.600 37.088 C 15.600 37.590,15.407 38.000,15.171 38.000 C 14.466 38.000,13.600 39.086,13.600 39.971 C 13.600 40.427,13.420 40.800,13.200 40.800 C 12.980 40.800,12.800 41.160,12.800 41.600 C 12.800 42.044,12.533 42.400,12.200 42.400 C 11.870 42.400,11.600 42.670,11.600 43.000 C 11.600 43.330,11.420 43.600,11.200 43.600 C 10.980 43.600,10.800 43.960,10.800 44.400 C 10.800 44.840,10.620 45.200,10.400 45.200 C 10.180 45.200,10.000 45.650,10.000 46.200 C 10.000 46.822,9.773 47.200,9.400 47.200 C 9.027 47.200,8.800 47.578,8.800 48.200 C 8.800 48.750,8.620 49.200,8.400 49.200 C 8.180 49.200,8.000 49.830,8.000 50.600 C 8.000 51.370,7.820 52.000,7.600 52.000 C 7.380 52.000,7.200 52.360,7.200 52.800 C 7.200 53.244,6.933 53.600,6.600 53.600 C 6.227 53.600,6.000 53.978,6.000 54.600 C 6.000 55.150,5.820 55.600,5.600 55.600 C 5.380 55.600,5.200 56.230,5.200 57.000 C 5.200 57.770,5.020 58.400,4.800 58.400 C 4.580 58.400,4.400 59.210,4.400 60.200 C 4.400 61.533,4.244 62.000,3.800 62.000 C 3.381 62.000,3.200 62.422,3.200 63.400 C 3.200 64.170,3.020 64.800,2.800 64.800 C 2.578 64.800,2.400 65.867,2.400 67.200 C 2.400 68.533,2.222 69.600,2.000 69.600 C 1.771 69.600,1.600 70.800,1.600 72.400 C 1.600 74.480,1.462 75.200,1.061 75.200 C 0.071 75.200,0.000 83.541,0.000 200.000 C -0.000 316.459,0.071 324.800,1.061 324.800 C 1.462 324.800,1.600 325.520,1.600 327.600 C 1.600 329.200,1.771 330.400,2.000 330.400 C 2.222 330.400,2.400 331.467,2.400 332.800 C 2.400 334.133,2.578 335.200,2.800 335.200 C 3.020 335.200,3.200 335.830,3.200 336.600 C 3.200 337.578,3.381 338.000,3.800 338.000 C 4.244 338.000,4.400 338.467,4.400 339.800 C 4.400 340.790,4.580 341.600,4.800 341.600 C 5.020 341.600,5.200 342.230,5.200 343.000 C 5.200 343.770,5.380 344.400,5.600 344.400 C 5.820 344.400,6.000 344.850,6.000 345.400 C 6.000 346.022,6.227 346.400,6.600 346.400 C 6.933 346.400,7.200 346.756,7.200 347.200 C 7.200 347.640,7.380 348.000,7.600 348.000 C 7.820 348.000,8.000 348.630,8.000 349.400 C 8.000 350.170,8.180 350.800,8.400 350.800 C 8.620 350.800,8.800 351.250,8.800 351.800 C 8.800 352.422,9.027 352.800,9.400 352.800 C 9.773 352.800,10.000 353.178,10.000 353.800 C 10.000 354.350,10.180 354.800,10.400 354.800 C 10.620 354.800,10.800 355.160,10.800 355.600 C 10.800 356.040,10.980 356.400,11.200 356.400 C 11.420 356.400,11.600 356.670,11.600 357.000 C 11.600 357.330,11.870 357.600,12.200 357.600 C 12.533 357.600,12.800 357.956,12.800 358.400 C 12.800 358.840,12.980 359.200,13.200 359.200 C 13.420 359.200,13.600 359.573,13.600 360.029 C 13.600 360.914,14.466 362.000,15.171 362.000 C 15.407 362.000,15.600 362.410,15.600 362.912 C 15.600 363.413,15.960 364.083,16.400 364.400 C 16.840 364.717,17.200 365.207,17.200 365.488 C 17.200 365.770,17.470 366.000,17.800 366.000 C 18.133 366.000,18.400 366.356,18.400 366.800 C 18.400 367.240,18.580 367.600,18.800 367.600 C 19.020 367.600,19.200 367.793,19.200 368.029 C 19.200 368.495,20.185 369.600,20.600 369.600 C 20.934 369.600,22.000 370.666,22.000 371.000 C 22.000 371.334,23.066 372.400,23.400 372.400 C 23.734 372.400,24.800 373.466,24.800 373.800 C 24.800 374.134,25.866 375.200,26.200 375.200 C 26.534 375.200,27.600 376.266,27.600 376.600 C 27.600 376.934,28.666 378.000,29.000 378.000 C 29.334 378.000,30.400 379.066,30.400 379.400 C 30.400 379.903,31.553 380.800,32.200 380.800 C 32.942 380.800,34.000 381.724,34.000 382.371 C 34.000 382.607,34.230 382.800,34.512 382.800 C 34.793 382.800,35.283 383.160,35.600 383.600 C 35.917 384.040,36.587 384.400,37.088 384.400 C 37.632 384.400,38.000 384.642,38.000 385.000 C 38.000 385.333,38.356 385.600,38.800 385.600 C 39.240 385.600,39.600 385.780,39.600 386.000 C 39.600 386.220,39.870 386.400,40.200 386.400 C 40.530 386.400,40.800 386.580,40.800 386.800 C 40.800 387.020,41.160 387.200,41.600 387.200 C 42.044 387.200,42.400 387.467,42.400 387.800 C 42.400 388.130,42.670 388.400,43.000 388.400 C 43.330 388.400,43.600 388.580,43.600 388.800 C 43.600 389.020,43.960 389.200,44.400 389.200 C 44.840 389.200,45.200 389.380,45.200 389.600 C 45.200 389.820,45.650 390.000,46.200 390.000 C 46.822 390.000,47.200 390.227,47.200 390.600 C 47.200 390.973,47.578 391.200,48.200 391.200 C 48.750 391.200,49.200 391.380,49.200 391.600 C 49.200 391.820,49.830 392.000,50.600 392.000 C 51.370 392.000,52.000 392.180,52.000 392.400 C 52.000 392.620,52.360 392.800,52.800 392.800 C 53.244 392.800,53.600 393.067,53.600 393.400 C 53.600 393.819,54.022 394.000,55.000 394.000 C 55.770 394.000,56.400 394.180,56.400 394.400 C 56.400 394.620,57.030 394.800,57.800 394.800 C 58.570 394.800,59.200 394.980,59.200 395.200 C 59.200 395.420,59.830 395.600,60.600 395.600 C 61.578 395.600,62.000 395.781,62.000 396.200 C 62.000 396.619,62.422 396.800,63.400 396.800 C 64.170 396.800,64.800 396.980,64.800 397.200 C 64.800 397.422,65.867 397.600,67.200 397.600 C 68.533 397.600,69.600 397.778,69.600 398.000 C 69.600 398.229,70.800 398.400,72.400 398.400 C 74.480 398.400,75.200 398.538,75.200 398.939 C 75.200 399.929,83.541 400.000,200.000 400.000 C 316.459 400.000,324.800 399.929,324.800 398.939 C 324.800 398.538,325.520 398.400,327.600 398.400 C 329.200 398.400,330.400 398.229,330.400 398.000 C 330.400 397.778,331.467 397.600,332.800 397.600 C 334.133 397.600,335.200 397.422,335.200 397.200 C 335.200 396.980,335.830 396.800,336.600 396.800 C 337.578 396.800,338.000 396.619,338.000 396.200 C 338.000 395.781,338.422 395.600,339.400 395.600 C 340.170 395.600,340.800 395.420,340.800 395.200 C 340.800 394.980,341.430 394.800,342.200 394.800 C 342.970 394.800,343.600 394.620,343.600 394.400 C 343.600 394.180,344.230 394.000,345.000 394.000 C 345.978 394.000,346.400 393.819,346.400 393.400 C 346.400 393.067,346.756 392.800,347.200 392.800 C 347.640 392.800,348.000 392.620,348.000 392.400 C 348.000 392.180,348.630 392.000,349.400 392.000 C 350.170 392.000,350.800 391.820,350.800 391.600 C 350.800 391.380,351.250 391.200,351.800 391.200 C 352.422 391.200,352.800 390.973,352.800 390.600 C 352.800 390.227,353.178 390.000,353.800 390.000 C 354.350 390.000,354.800 389.820,354.800 389.600 C 354.800 389.380,355.160 389.200,355.600 389.200 C 356.040 389.200,356.400 389.020,356.400 388.800 C 356.400 388.580,356.670 388.400,357.000 388.400 C 357.330 388.400,357.600 388.130,357.600 387.800 C 357.600 387.467,357.956 387.200,358.400 387.200 C 358.840 387.200,359.200 387.020,359.200 386.800 C 359.200 386.580,359.470 386.400,359.800 386.400 C 360.130 386.400,360.400 386.220,360.400 386.000 C 360.400 385.780,360.760 385.600,361.200 385.600 C 361.644 385.600,362.000 385.333,362.000 385.000 C 362.000 384.642,362.368 384.400,362.912 384.400 C 363.413 384.400,364.083 384.040,364.400 383.600 C 364.717 383.160,365.207 382.800,365.488 382.800 C 365.770 382.800,366.000 382.607,366.000 382.371 C 366.000 381.724,367.058 380.800,367.800 380.800 C 368.447 380.800,369.600 379.903,369.600 379.400 C 369.600 379.066,370.666 378.000,371.000 378.000 C 371.334 378.000,372.400 376.934,372.400 376.600 C 372.400 376.266,373.466 375.200,373.800 375.200 C 374.134 375.200,375.200 374.134,375.200 373.800 C 375.200 373.466,376.266 372.400,376.600 372.400 C 376.934 372.400,378.000 371.334,378.000 371.000 C 378.000 370.666,379.066 369.600,379.400 369.600 C 379.815 369.600,380.800 368.495,380.800 368.029 C 380.800 367.793,380.980 367.600,381.200 367.600 C 381.420 367.600,381.600 367.240,381.600 366.800 C 381.600 366.356,381.867 366.000,382.200 366.000 C 382.530 366.000,382.800 365.770,382.800 365.488 C 382.800 365.207,383.160 364.717,383.600 364.400 C 384.040 364.083,384.400 363.413,384.400 362.912 C 384.400 362.410,384.593 362.000,384.829 362.000 C 385.534 362.000,386.400 360.914,386.400 360.029 C 386.400 359.573,386.580 359.200,386.800 359.200 C 387.020 359.200,387.200 358.840,387.200 358.400 C 387.200 357.956,387.467 357.600,387.800 357.600 C 388.130 357.600,388.400 357.330,388.400 357.000 C 388.400 356.670,388.580 356.400,388.800 356.400 C 389.020 356.400,389.200 356.040,389.200 355.600 C 389.200 355.160,389.380 354.800,389.600 354.800 C 389.820 354.800,390.000 354.350,390.000 353.800 C 390.000 353.178,390.227 352.800,390.600 352.800 C 390.973 352.800,391.200 352.422,391.200 351.800 C 391.200 351.250,391.380 350.800,391.600 350.800 C 391.820 350.800,392.000 350.170,392.000 349.400 C 392.000 348.630,392.180 348.000,392.400 348.000 C 392.620 348.000,392.800 347.640,392.800 347.200 C 392.800 346.756,393.067 346.400,393.400 346.400 C 393.773 346.400,394.000 346.022,394.000 345.400 C 394.000 344.850,394.180 344.400,394.400 344.400 C 394.620 344.400,394.800 343.590,394.800 342.600 C 394.800 341.610,394.980 340.800,395.200 340.800 C 395.420 340.800,395.600 340.170,395.600 339.400 C 395.600 338.422,395.781 338.000,396.200 338.000 C 396.619 338.000,396.800 337.578,396.800 336.600 C 396.800 335.830,396.980 335.200,397.200 335.200 C 397.422 335.200,397.600 334.133,397.600 332.800 C 397.600 331.467,397.778 330.400,398.000 330.400 C 398.229 330.400,398.400 329.200,398.400 327.600 C 398.400 325.520,398.538 324.800,398.939 324.800 C 399.929 324.800,400.000 316.459,400.000 200.000 C 400.000 83.541,399.929 75.200,398.939 75.200 C 398.538 75.200,398.400 74.480,398.400 72.400 C 398.400 70.800,398.229 69.600,398.000 69.600 C 397.778 69.600,397.600 68.533,397.600 67.200 C 397.600 65.867,397.422 64.800,397.200 64.800 C 396.980 64.800,396.800 64.170,396.800 63.400 C 396.800 62.422,396.619 62.000,396.200 62.000 C 395.756 62.000,395.600 61.533,395.600 60.200 C 395.600 59.210,395.420 58.400,395.200 58.400 C 394.980 58.400,394.800 57.770,394.800 57.000 C 394.800 56.230,394.620 55.600,394.400 55.600 C 394.180 55.600,394.000 55.150,394.000 54.600 C 394.000 53.978,393.773 53.600,393.400 53.600 C 393.067 53.600,392.800 53.244,392.800 52.800 C 392.800 52.360,392.620 52.000,392.400 52.000 C 392.180 52.000,392.000 51.370,392.000 50.600 C 392.000 49.830,391.820 49.200,391.600 49.200 C 391.380 49.200,391.200 48.750,391.200 48.200 C 391.200 47.578,390.973 47.200,390.600 47.200 C 390.227 47.200,390.000 46.822,390.000 46.200 C 390.000 45.650,389.820 45.200,389.600 45.200 C 389.380 45.200,389.200 44.840,389.200 44.400 C 389.200 43.960,389.020 43.600,388.800 43.600 C 388.580 43.600,388.400 43.330,388.400 43.000 C 388.400 42.670,388.130 42.400,387.800 42.400 C 387.467 42.400,387.200 42.044,387.200 41.600 C 387.200 41.160,387.020 40.800,386.800 40.800 C 386.580 40.800,386.400 40.427,386.400 39.971 C 386.400 39.086,385.534 38.000,384.829 38.000 C 384.593 38.000,384.400 37.590,384.400 37.088 C 384.400 36.587,384.040 35.917,383.600 35.600 C 383.160 35.283,382.800 34.793,382.800 34.512 C 382.800 34.230,382.530 34.000,382.200 34.000 C 381.867 34.000,381.600 33.644,381.600 33.200 C 381.600 32.760,381.420 32.400,381.200 32.400 C 380.980 32.400,380.800 32.207,380.800 31.971 C 380.800 31.505,379.815 30.400,379.400 30.400 C 379.066 30.400,378.000 29.334,378.000 29.000 C 378.000 28.666,376.934 27.600,376.600 27.600 C 376.266 27.600,375.200 26.534,375.200 26.200 C 375.200 25.866,374.134 24.800,373.800 24.800 C 373.466 24.800,372.400 23.734,372.400 23.400 C 372.400 23.066,371.334 22.000,371.000 22.000 C 370.666 22.000,369.600 20.934,369.600 20.600 C 369.600 20.097,368.447 19.200,367.800 19.200 C 367.058 19.200,366.000 18.276,366.000 17.629 C 366.000 17.393,365.770 17.200,365.488 17.200 C 365.207 17.200,364.717 16.840,364.400 16.400 C 364.083 15.960,363.413 15.600,362.912 15.600 C 362.410 15.600,362.000 15.407,362.000 15.171 C 362.000 14.466,360.914 13.600,360.029 13.600 C 359.573 13.600,359.200 13.420,359.200 13.200 C 359.200 12.980,358.840 12.800,358.400 12.800 C 357.956 12.800,357.600 12.533,357.600 12.200 C 357.600 11.870,357.330 11.600,357.000 11.600 C 356.670 11.600,356.400 11.420,356.400 11.200 C 356.400 10.980,356.040 10.800,355.600 10.800 C 355.160 10.800,354.800 10.620,354.800 10.400 C 354.800 10.180,354.350 10.000,353.800 10.000 C 353.178 10.000,352.800 9.773,352.800 9.400 C 352.800 9.027,352.422 8.800,351.800 8.800 C 351.250 8.800,350.800 8.620,350.800 8.400 C 350.800 8.180,350.170 8.000,349.400 8.000 C 348.630 8.000,348.000 7.820,348.000 7.600 C 348.000 7.380,347.640 7.200,347.200 7.200 C 346.756 7.200,346.400 6.933,346.400 6.600 C 346.400 6.181,345.978 6.000,345.000 6.000 C 344.230 6.000,343.600 5.820,343.600 5.600 C 343.600 5.380,343.150 5.200,342.600 5.200 C 342.050 5.200,341.600 5.020,341.600 4.800 C 341.600 4.580,340.790 4.400,339.800 4.400 C 338.467 4.400,338.000 4.244,338.000 3.800 C 338.000 3.381,337.578 3.200,336.600 3.200 C 335.830 3.200,335.200 3.020,335.200 2.800 C 335.200 2.578,334.133 2.400,332.800 2.400 C 331.467 2.400,330.400 2.222,330.400 2.000 C 330.400 1.771,329.200 1.600,327.600 1.600 C 325.520 1.600,324.800 1.462,324.800 1.061 C 324.800 0.654,323.617 0.459,319.937 0.261 C 315.129 0.003,84.872 0.037,78.500 0.298 M238.148 48.808 C 242.297 51.439,242.676 57.436,238.959 61.632 C 238.268 62.412,238.712 62.657,243.600 64.181 C 247.020 65.248,251.742 66.903,253.600 67.686 C 254.150 67.917,254.960 68.248,255.400 68.421 C 261.401 70.772,274.352 77.583,277.873 80.239 C 278.574 80.768,279.261 81.200,279.400 81.200 C 279.654 81.200,280.024 81.460,285.600 85.568 C 292.479 90.635,303.596 100.908,309.008 107.200 C 319.368 119.245,329.705 136.519,334.380 149.600 C 334.656 150.370,335.038 151.360,335.230 151.800 C 335.701 152.878,338.021 159.900,338.402 161.400 C 338.569 162.060,339.062 163.950,339.497 165.600 C 339.931 167.250,340.507 169.680,340.776 171.000 C 341.045 172.320,341.433 174.120,341.638 175.000 C 344.288 186.379,344.578 210.285,342.232 224.000 C 341.697 227.124,341.449 228.428,340.405 233.600 C 340.205 234.590,339.570 237.020,338.993 239.000 C 338.417 240.980,337.800 243.140,337.624 243.800 C 337.208 245.355,335.672 249.970,335.227 251.000 C 335.036 251.440,334.656 252.430,334.380 253.200 C 332.842 257.503,328.330 267.159,325.781 271.600 C 324.960 273.030,324.089 274.563,323.844 275.006 C 323.600 275.449,322.995 276.377,322.500 277.067 C 322.005 277.758,321.600 278.454,321.600 278.615 C 321.600 279.036,316.337 286.399,313.033 290.600 C 295.210 313.261,270.353 330.275,242.200 339.081 C 240.440 339.632,238.370 340.230,237.600 340.410 C 236.830 340.591,234.760 341.089,233.000 341.519 C 229.121 342.466,226.248 343.045,222.800 343.576 C 221.370 343.797,218.940 344.180,217.400 344.427 C 213.166 345.107,192.966 345.381,187.560 344.831 C 179.883 344.050,174.028 343.177,169.800 342.185 C 168.260 341.823,166.370 341.382,165.600 341.204 C 153.528 338.410,137.845 332.044,127.236 325.633 C 125.386 324.515,123.821 323.600,123.758 323.600 C 123.492 323.600,113.970 316.894,111.400 314.897 C 102.493 307.974,92.080 297.442,85.796 289.000 C 85.140 288.120,84.513 287.310,84.400 287.200 C 83.496 286.316,75.600 274.277,75.600 273.783 C 75.600 273.674,75.164 272.893,74.631 272.049 C 73.592 270.403,69.666 262.709,68.687 260.400 C 68.360 259.630,67.708 258.137,67.236 257.083 C 66.765 256.029,66.098 254.409,65.753 253.483 C 65.408 252.557,64.970 251.440,64.781 251.000 C 63.868 248.882,61.140 239.870,60.179 235.800 C 59.816 234.260,59.365 232.370,59.177 231.600 C 58.683 229.578,57.719 223.910,57.237 220.200 C 55.254 204.926,55.794 187.369,58.660 174.000 C 59.014 172.350,59.447 170.280,59.622 169.400 C 60.445 165.265,63.537 154.708,64.777 151.800 C 64.965 151.360,65.879 149.110,66.808 146.800 C 68.805 141.838,72.129 134.843,74.219 131.200 C 75.040 129.770,75.911 128.237,76.156 127.794 C 76.400 127.351,77.005 126.423,77.500 125.733 C 77.995 125.042,78.400 124.346,78.400 124.185 C 78.400 123.500,87.200 111.634,90.997 107.200 C 93.064 104.787,104.096 93.847,106.400 91.926 C 111.047 88.052,123.098 79.200,123.725 79.200 C 123.810 79.200,125.521 78.211,127.527 77.001 C 131.899 74.366,142.965 68.800,143.834 68.800 C 143.930 68.800,144.772 68.458,145.704 68.039 C 147.914 67.048,152.062 65.543,156.800 64.015 C 162.048 62.321,161.747 62.463,161.299 61.895 C 157.936 57.642,157.792 52.592,160.947 49.644 C 163.144 47.592,161.412 47.681,200.022 47.639 L 236.243 47.600 238.148 48.808 M164.576 54.181 C 163.941 55.150,164.501 56.908,166.110 58.998 C 166.451 59.441,170.075 65.439,171.250 67.505 C 171.658 68.223,173.074 70.528,174.396 72.626 C 175.718 74.725,176.800 76.513,176.800 76.599 C 176.800 76.686,178.120 78.882,179.733 81.478 C 181.346 84.075,183.924 88.270,185.462 90.800 C 188.409 95.648,192.205 101.878,196.369 108.700 C 199.409 113.679,200.315 114.030,202.381 111.028 C 203.051 110.053,203.600 109.063,203.600 108.828 C 203.600 108.593,203.780 108.400,204.000 108.400 C 204.220 108.400,204.400 108.215,204.400 107.989 C 204.400 107.762,205.480 105.863,206.800 103.768 C 208.120 101.672,209.200 99.885,209.200 99.796 C 209.200 99.707,210.460 97.638,212.000 95.200 C 213.540 92.762,214.800 90.692,214.800 90.600 C 214.800 90.508,216.060 88.438,217.600 86.000 C 219.140 83.562,220.400 81.492,220.400 81.400 C 220.400 81.308,221.660 79.238,223.200 76.800 C 224.740 74.362,226.000 72.293,226.000 72.204 C 226.000 72.115,227.082 70.325,228.404 68.226 C 229.726 66.128,231.139 63.823,231.545 63.105 C 231.950 62.387,233.150 60.396,234.211 58.680 C 235.879 55.984,236.089 55.414,235.761 54.480 L 235.381 53.400 200.301 53.298 L 165.221 53.196 164.576 54.181 M163.000 67.983 C 162.560 68.169,160.580 68.800,158.600 69.384 C 156.620 69.969,154.640 70.604,154.200 70.795 C 153.760 70.987,152.320 71.530,151.000 72.002 C 149.680 72.474,148.015 73.117,147.300 73.430 C 146.585 73.744,145.325 74.290,144.500 74.644 C 140.991 76.152,133.640 79.839,131.692 81.069 C 130.533 81.801,129.472 82.400,129.335 82.400 C 128.924 82.400,118.399 89.553,115.600 91.735 C 103.244 101.367,93.275 112.040,84.904 124.600 C 81.842 129.194,77.701 136.232,76.313 139.200 C 75.953 139.970,74.835 142.362,73.829 144.515 C 72.823 146.669,72.000 148.606,72.000 148.821 C 72.000 149.035,71.841 149.523,71.647 149.905 C 71.078 151.024,70.509 152.462,69.789 154.600 C 69.418 155.700,68.973 156.960,68.800 157.400 C 68.116 159.135,66.011 166.597,65.246 170.000 C 63.114 179.476,62.653 182.847,61.942 194.136 C 61.088 207.694,62.532 222.540,66.013 236.000 C 66.577 238.184,68.450 244.511,68.795 245.400 C 68.966 245.840,69.594 247.550,70.191 249.200 C 70.789 250.850,71.710 253.150,72.239 254.311 C 72.767 255.472,73.200 256.544,73.200 256.694 C 73.200 257.227,78.970 268.637,80.273 270.681 C 81.003 271.825,81.600 272.864,81.600 272.988 C 81.600 273.306,86.483 280.694,87.861 282.460 C 88.488 283.263,89.360 284.420,89.800 285.031 C 90.240 285.642,91.140 286.804,91.800 287.614 C 92.460 288.423,93.360 289.543,93.800 290.102 C 96.893 294.035,105.208 302.408,110.600 307.019 C 114.891 310.689,128.470 320.400,129.310 320.400 C 129.433 320.400,130.854 321.178,132.467 322.128 C 135.233 323.757,141.045 326.663,144.600 328.193 C 145.480 328.572,146.560 329.038,147.000 329.230 C 153.255 331.952,167.183 336.155,173.400 337.197 C 193.149 340.506,209.517 340.637,224.400 337.605 C 225.390 337.403,227.280 337.026,228.600 336.766 C 235.253 335.456,247.106 331.795,253.000 329.230 C 253.440 329.038,254.520 328.573,255.400 328.196 C 258.612 326.821,264.673 323.782,267.533 322.112 C 269.146 321.170,270.560 320.400,270.674 320.400 C 271.052 320.400,279.963 314.358,283.513 311.694 C 290.221 306.662,299.782 297.762,304.454 292.200 C 305.194 291.320,305.901 290.510,306.027 290.400 C 309.015 287.781,320.603 270.196,323.687 263.600 C 324.047 262.830,325.165 260.438,326.171 258.285 C 327.177 256.131,328.000 254.194,328.000 253.979 C 328.000 253.765,328.159 253.277,328.353 252.895 C 329.988 249.681,333.211 239.576,334.761 232.800 C 338.509 216.426,339.271 201.023,337.216 183.200 C 336.629 178.111,334.979 170.087,333.433 164.800 C 333.079 163.590,332.678 162.011,332.541 161.290 C 332.404 160.570,332.136 159.884,331.946 159.767 C 331.756 159.649,331.600 159.252,331.600 158.885 C 331.600 158.315,330.305 154.477,329.208 151.800 C 329.028 151.360,328.649 150.370,328.366 149.600 C 324.769 139.808,316.357 125.368,308.444 115.400 C 293.099 96.070,271.489 80.217,249.600 72.230 C 247.950 71.628,246.240 70.981,245.800 70.792 C 245.360 70.602,243.380 69.970,241.400 69.385 C 239.420 68.801,237.397 68.165,236.905 67.972 C 235.960 67.602,234.800 67.852,234.800 68.426 C 234.800 68.613,233.540 70.762,232.000 73.200 C 230.460 75.638,229.200 77.713,229.200 77.809 C 229.200 77.906,228.570 78.969,227.800 80.173 C 226.102 82.827,226.108 82.677,227.700 83.001 C 228.415 83.147,229.540 83.421,230.200 83.610 C 237.400 85.679,240.532 86.642,241.800 87.179 C 242.240 87.365,243.590 87.916,244.800 88.404 C 253.185 91.781,266.908 99.082,267.533 100.498 C 267.607 100.664,267.851 100.800,268.076 100.800 C 268.520 100.800,273.659 104.606,277.200 107.557 C 293.551 121.181,305.289 137.319,313.177 157.019 C 314.289 159.799,315.200 162.406,315.200 162.813 C 315.200 163.220,315.359 163.651,315.554 163.771 C 315.749 163.892,316.001 164.487,316.116 165.095 C 316.230 165.703,316.627 167.190,316.997 168.400 C 317.368 169.610,317.823 171.320,318.009 172.200 C 320.062 181.915,320.319 183.489,321.188 191.677 C 322.276 201.926,321.000 219.056,318.422 228.800 C 318.218 229.570,317.756 231.370,317.396 232.800 C 316.720 235.479,316.105 237.602,315.600 239.000 C 315.441 239.440,315.085 240.520,314.809 241.400 C 314.534 242.280,314.040 243.630,313.713 244.400 C 313.386 245.170,312.978 246.160,312.807 246.600 C 311.615 249.662,310.697 251.641,308.260 256.400 C 306.739 259.370,305.293 262.204,305.047 262.697 C 304.801 263.190,304.465 263.595,304.300 263.597 C 304.135 263.599,304.000 263.800,304.000 264.045 C 304.000 264.290,302.714 266.405,301.142 268.745 C 287.461 289.111,268.945 304.277,246.100 313.827 C 245.275 314.172,244.240 314.614,243.800 314.808 C 243.064 315.134,235.802 317.531,233.000 318.373 C 230.744 319.051,224.603 320.480,222.400 320.839 C 212.648 322.430,208.613 322.779,200.000 322.779 C 191.387 322.779,187.352 322.430,177.600 320.839 C 175.369 320.475,169.193 319.036,167.000 318.369 C 161.778 316.780,156.064 314.789,153.400 313.630 C 152.960 313.438,151.880 312.969,151.000 312.588 C 130.496 303.697,111.615 287.824,98.847 268.745 C 97.281 266.405,96.000 264.384,96.000 264.253 C 96.000 264.122,95.398 263.067,94.662 261.908 C 93.151 259.527,88.601 250.220,87.179 246.600 C 85.624 242.645,83.375 235.859,82.604 232.800 C 81.020 226.516,80.635 224.644,79.849 219.400 C 77.522 203.884,78.120 188.461,81.611 174.000 C 83.060 167.998,83.910 164.972,84.449 163.905 C 84.642 163.523,84.800 163.014,84.800 162.774 C 84.800 162.394,86.184 158.596,87.195 156.200 C 87.381 155.760,87.773 154.782,88.066 154.026 C 88.360 153.270,89.926 150.030,91.548 146.826 C 93.169 143.622,94.699 140.596,94.948 140.103 C 95.196 139.610,95.535 139.205,95.700 139.203 C 95.865 139.201,96.000 139.000,96.000 138.755 C 96.000 138.191,101.059 130.631,103.732 127.200 C 113.176 115.080,123.386 106.019,137.800 96.968 C 141.282 94.781,148.673 91.104,154.600 88.609 C 156.820 87.675,166.697 84.349,168.400 83.963 C 174.455 82.589,174.167 82.902,172.200 79.827 C 171.430 78.623,170.800 77.532,170.800 77.402 C 170.800 77.272,170.613 76.949,170.385 76.683 C 170.156 76.417,168.827 74.310,167.432 72.000 C 164.867 67.755,164.445 67.372,163.000 67.983 M195.800 171.778 C 193.136 172.232,190.755 172.864,189.000 173.584 C 187.079 174.372,183.503 176.250,182.876 176.800 C 182.500 177.130,181.342 178.084,180.303 178.921 C 177.169 181.445,173.093 187.325,171.931 191.000 C 170.539 195.400,170.306 196.891,170.306 201.400 C 170.306 208.327,171.942 213.571,175.710 218.727 C 177.841 221.641,182.252 226.000,183.072 226.000 C 183.218 226.000,183.621 226.243,183.969 226.541 C 188.939 230.796,201.211 232.504,208.800 229.997 C 211.663 229.051,216.045 226.947,217.124 226.000 C 217.500 225.670,218.658 224.716,219.697 223.879 C 221.947 222.067,224.767 218.494,226.462 215.308 C 227.713 212.958,227.969 212.281,229.078 208.400 C 229.907 205.497,230.007 197.269,229.242 194.800 C 227.797 190.135,227.478 189.301,226.338 187.223 C 220.243 176.109,207.679 169.754,195.800 171.778 " stroke="none" fill="#ffffff" fill-rule="evenodd"></path><path id="path8" d="M163.800 48.481 C 159.716 49.905,158.015 54.788,160.205 58.800 C 162.186 62.428,162.154 62.332,161.610 62.988 C 161.331 63.325,160.831 63.600,160.500 63.600 C 159.932 63.600,154.345 65.311,152.600 66.019 C 152.160 66.197,150.720 66.729,149.400 67.202 C 142.951 69.508,129.533 76.063,125.538 78.857 C 124.954 79.266,124.362 79.600,124.221 79.600 C 124.081 79.600,123.749 79.785,123.483 80.011 C 123.217 80.237,121.083 81.722,118.739 83.311 C 105.214 92.483,92.092 105.507,82.073 119.705 C 80.713 121.632,79.600 123.295,79.600 123.400 C 79.600 123.506,78.826 124.809,77.879 126.296 C 75.089 130.679,71.053 138.282,69.011 143.000 C 68.630 143.880,68.162 144.960,67.971 145.400 C 55.297 174.607,53.180 210.177,62.268 241.200 C 63.881 246.707,65.958 252.540,68.319 258.200 C 71.367 265.507,80.454 281.525,83.281 284.575 C 83.677 285.002,84.000 285.484,84.000 285.647 C 84.000 285.810,84.225 286.181,84.500 286.471 C 84.775 286.762,85.537 287.720,86.193 288.600 C 91.509 295.728,100.307 304.899,108.543 311.896 C 112.883 315.584,123.332 322.825,128.600 325.795 C 131.936 327.676,139.264 331.376,141.600 332.358 C 142.810 332.867,144.340 333.511,145.000 333.788 C 172.898 345.535,206.163 347.981,235.200 340.421 C 239.306 339.352,248.303 336.530,250.600 335.591 C 251.260 335.321,252.160 334.961,252.600 334.790 C 253.040 334.619,254.263 334.097,255.317 333.630 C 256.371 333.162,257.991 332.480,258.917 332.113 C 266.764 329.002,280.450 320.654,289.197 313.643 C 295.025 308.972,294.998 308.996,301.616 302.400 C 308.332 295.706,320.400 280.929,320.400 279.400 C 320.400 279.294,321.180 277.991,322.133 276.504 C 324.812 272.323,328.894 264.636,330.949 259.900 C 331.307 259.075,331.856 257.815,332.168 257.100 C 343.932 230.198,346.410 199.377,339.379 167.400 C 338.751 164.543,334.936 152.273,334.032 150.200 C 333.840 149.760,333.284 148.410,332.796 147.200 C 318.400 111.461,287.402 80.931,252.200 67.819 C 250.000 66.999,247.840 66.184,247.400 66.007 C 246.731 65.739,240.585 63.825,238.891 63.358 C 237.852 63.072,237.999 62.058,239.427 59.662 C 242.222 54.969,241.046 50.483,236.524 48.594 C 234.755 47.855,165.904 47.748,163.800 48.481 M235.856 53.420 C 237.095 54.659,236.956 55.516,235.023 58.537 C 234.276 59.705,233.314 61.277,232.885 62.030 C 231.788 63.956,224.735 75.515,223.023 78.191 C 222.240 79.414,221.600 80.494,221.600 80.591 C 221.600 80.687,220.340 82.762,218.800 85.200 C 217.260 87.638,216.000 89.708,216.000 89.800 C 216.000 89.892,214.740 91.962,213.200 94.400 C 211.660 96.838,210.400 98.908,210.400 99.000 C 210.400 99.092,209.140 101.162,207.600 103.600 C 206.060 106.038,204.800 108.113,204.800 108.209 C 204.800 110.038,200.925 113.747,199.411 113.367 C 198.566 113.155,193.200 105.532,193.200 104.544 C 193.200 104.434,192.688 103.592,192.062 102.672 C 190.991 101.099,186.764 94.207,181.592 85.600 C 180.336 83.510,177.551 78.920,175.404 75.400 C 173.257 71.880,171.165 68.413,170.754 67.695 C 170.344 66.977,168.926 64.672,167.604 62.574 C 166.282 60.475,165.196 58.633,165.191 58.479 C 165.186 58.326,164.830 57.750,164.400 57.200 C 163.284 55.773,163.383 54.229,164.654 53.229 C 165.702 52.405,165.910 52.400,200.272 52.400 L 234.836 52.400 235.856 53.420 M168.165 72.022 C 169.834 74.673,171.200 76.920,171.200 77.014 C 171.200 77.108,171.799 78.133,172.532 79.292 C 174.986 83.176,175.176 82.918,168.600 84.631 C 164.832 85.612,160.798 86.852,159.000 87.582 C 158.560 87.760,156.940 88.409,155.400 89.022 C 149.982 91.182,145.043 93.496,141.800 95.395 C 140.480 96.168,138.680 97.187,137.800 97.658 C 128.062 102.880,114.021 115.253,105.073 126.497 C 102.345 129.925,96.400 138.474,96.400 138.969 C 96.400 139.087,95.801 140.133,95.069 141.292 C 89.355 150.343,83.377 166.767,81.054 179.800 C 79.553 188.218,79.419 189.982,79.419 201.400 C 79.419 213.191,79.559 214.872,81.291 224.000 C 85.516 246.270,95.843 266.837,110.996 283.158 C 115.307 287.802,120.402 292.560,124.600 295.863 C 127.843 298.415,135.049 303.600,135.351 303.600 C 135.418 303.600,136.986 304.518,138.836 305.640 C 142.705 307.986,149.331 311.312,153.400 312.950 C 154.940 313.570,156.560 314.236,157.000 314.429 C 157.920 314.834,165.421 317.274,167.800 317.943 C 170.783 318.782,174.898 319.673,180.800 320.758 C 191.041 322.641,208.959 322.641,219.200 320.758 C 228.306 319.084,230.802 318.464,238.400 315.991 C 260.727 308.722,282.710 292.986,296.220 274.600 C 296.866 273.720,297.506 272.910,297.641 272.800 C 298.005 272.503,303.600 264.083,303.600 263.831 C 303.600 263.713,304.199 262.667,304.931 261.508 C 308.159 256.395,314.150 242.639,315.604 237.000 C 315.775 236.340,316.221 234.720,316.596 233.400 C 317.687 229.559,318.913 223.520,320.049 216.400 C 320.790 211.750,320.795 190.631,320.055 186.200 C 319.531 183.058,318.199 175.958,317.617 173.200 C 310.048 137.346,280.831 103.354,245.600 89.414 C 243.510 88.587,241.440 87.763,241.000 87.584 C 239.257 86.872,235.202 85.620,231.400 84.620 C 229.200 84.041,227.085 83.473,226.700 83.357 C 225.959 83.134,225.762 82.018,226.351 81.380 C 226.543 81.171,227.150 80.190,227.699 79.200 C 228.248 78.210,229.665 75.821,230.849 73.891 C 232.032 71.961,233.386 69.711,233.858 68.891 C 234.856 67.158,235.527 66.936,237.766 67.600 C 240.725 68.477,250.176 71.665,251.400 72.200 C 252.060 72.488,253.410 73.053,254.400 73.455 C 262.029 76.553,279.535 86.536,282.850 89.679 C 283.153 89.965,284.120 90.737,285.000 91.393 C 292.838 97.239,302.788 107.197,309.784 116.196 C 332.244 145.089,342.779 183.383,337.957 218.600 C 337.431 222.437,335.671 232.118,335.193 233.800 C 335.005 234.460,334.647 235.810,334.397 236.800 C 330.012 254.161,321.001 272.226,309.161 287.391 C 299.792 299.390,283.166 314.044,271.600 320.497 C 270.610 321.049,268.632 322.168,267.204 322.983 C 259.300 327.495,248.537 331.957,237.800 335.172 C 218.701 340.892,195.298 341.917,174.400 337.950 C 171.438 337.387,163.690 335.625,162.200 335.175 C 150.890 331.759,140.123 327.203,130.200 321.634 C 119.067 315.387,103.488 302.426,95.060 292.400 C 93.488 290.530,92.102 288.910,91.980 288.800 C 91.858 288.690,91.228 287.880,90.581 287.000 C 89.934 286.120,89.307 285.310,89.187 285.200 C 89.068 285.090,88.064 283.740,86.957 282.200 C 77.575 269.147,69.585 252.266,65.803 237.507 C 65.450 236.128,65.004 234.460,64.813 233.800 C 60.410 218.580,59.878 195.734,63.463 175.800 C 64.017 172.720,64.620 169.660,64.804 169.000 C 64.987 168.340,65.406 166.810,65.733 165.600 C 77.001 123.984,107.367 89.119,146.200 73.210 C 150.121 71.604,151.753 71.005,156.058 69.590 C 158.776 68.697,161.450 67.813,162.000 67.626 C 164.700 66.706,164.915 66.860,168.165 72.022 M178.869 90.000 C 179.687 91.210,180.366 92.332,180.378 92.492 C 180.390 92.653,181.040 93.786,181.823 95.009 C 183.669 97.895,190.511 109.109,192.311 112.200 C 194.903 116.650,196.745 118.000,200.227 118.000 C 204.086 118.000,204.807 117.297,210.281 108.200 C 221.578 89.429,222.756 87.600,223.560 87.600 C 225.370 87.600,236.501 90.823,242.183 92.993 C 269.883 103.570,295.393 127.974,306.369 154.400 C 306.872 155.610,307.517 157.140,307.803 157.800 C 308.244 158.819,309.329 161.768,310.819 166.000 C 311.374 167.577,313.045 173.980,313.533 176.400 C 313.777 177.610,314.161 179.500,314.386 180.600 C 316.604 191.412,316.591 210.960,314.358 222.400 C 309.459 247.499,297.442 269.475,279.362 286.400 C 231.327 331.367,155.546 327.307,112.195 277.445 C 110.878 275.930,109.293 274.130,108.673 273.445 C 100.642 264.574,89.680 242.080,86.820 228.600 C 80.727 199.880,83.698 174.315,96.005 149.569 C 103.728 134.039,116.280 118.750,129.000 109.379 C 129.880 108.730,130.831 107.982,131.112 107.716 C 131.394 107.450,133.374 106.086,135.512 104.685 C 147.423 96.880,158.041 92.154,171.600 88.623 C 176.746 87.283,177.074 87.345,178.869 90.000 M191.707 167.216 C 164.974 174.123,155.997 206.097,175.165 226.136 C 194.640 246.495,230.367 234.908,234.785 206.800 C 238.626 182.367,215.459 161.079,191.707 167.216 M205.674 171.405 C 230.899 176.619,239.206 208.092,219.722 224.622 C 199.246 241.993,168.483 226.592,169.738 199.600 C 169.956 194.927,170.115 194.204,171.940 189.607 C 177.126 176.543,191.918 168.561,205.674 171.405 " stroke="none" fill="#1e1e1e" fill-rule="evenodd"></path></g></svg>