<?xml version="1.0" encoding="UTF-8" standalone="no"?>
<svg
   id="svg"
   version="1.1"
   width="400"
   height="400"
   viewBox="0, 0, 400,400"
   sodipodi:docname="icon-512x512.svg"
   inkscape:export-filename="icon-512x512.svg"
   inkscape:export-xdpi="122.88"
   inkscape:export-ydpi="122.88"
   inkscape:version="1.2 (dc2aedaf03, 2022-05-15)"
   xmlns:inkscape="http://www.inkscape.org/namespaces/inkscape"
   xmlns:sodipodi="http://sodipodi.sourceforge.net/DTD/sodipodi-0.dtd"
   xmlns="http://www.w3.org/2000/svg"
   xmlns:svg="http://www.w3.org/2000/svg">
  <defs
     id="defs15" />
  <sodipodi:namedview
     id="namedview13"
     pagecolor="#ffffff"
     bordercolor="#000000"
     borderopacity="0.25"
     inkscape:showpageshadow="2"
     inkscape:pageopacity="0.0"
     inkscape:pagecheckerboard="0"
     inkscape:deskcolor="#d1d1d1"
     showgrid="false"
     inkscape:zoom="0.35355339"
     inkscape:cx="-309.71277"
     inkscape:cy="811.75858"
     inkscape:window-width="1920"
     inkscape:window-height="1009"
     inkscape:window-x="-8"
     inkscape:window-y="-8"
     inkscape:window-maximized="1"
     inkscape:current-layer="svgg" />
  <g
     id="svgg">
    <path
       id="path0"
       d="M145.236 98.837 C 140.316 101.486,132.023 106.749,130.800 108.000 C 130.690 108.113,129.880 108.734,129.000 109.381 C 116.316 118.708,103.728 134.040,96.005 149.569 C 83.698 174.315,80.727 199.880,86.820 228.600 C 89.625 241.818,100.975 265.243,108.383 273.100 C 109.835 274.641,110.169 274.085,108.743 272.500 C 108.001 271.675,106.135 269.110,104.597 266.800 C 103.058 264.490,101.710 262.510,101.600 262.400 C 101.420 262.220,100.633 260.843,99.429 258.600 C 99.193 258.160,98.904 257.710,98.786 257.600 C 98.167 257.023,93.251 246.468,92.172 243.400 C 91.785 242.300,91.318 241.229,91.134 241.020 C 90.950 240.811,90.800 240.314,90.800 239.915 C 90.800 239.516,90.636 238.877,90.436 238.495 C 90.084 237.824,88.343 232.069,87.624 229.200 C 86.729 225.629,85.427 218.487,84.927 214.400 C 84.514 211.028,84.514 191.772,84.927 188.400 C 85.590 182.987,86.975 176.000,87.386 176.000 C 87.677 176.000,95.002 177.631,96.400 178.007 C 97.170 178.214,101.940 179.292,107.000 180.403 C 112.060 181.514,116.920 182.591,117.800 182.798 C 118.680 183.004,121.470 183.639,124.000 184.209 C 126.530 184.779,129.320 185.409,130.200 185.609 C 131.080 185.809,133.870 186.439,136.400 187.009 C 138.930 187.579,141.720 188.209,142.600 188.410 C 143.480 188.610,145.910 189.157,148.000 189.626 C 150.090 190.094,152.970 190.741,154.400 191.062 C 155.830 191.384,157.810 191.824,158.800 192.040 C 164.928 193.377,165.011 193.412,164.861 194.651 C 163.917 202.454,164.966 210.665,167.614 216.200 C 169.503 220.150,171.703 223.600,172.333 223.600 C 172.660 223.600,172.326 222.860,171.476 221.700 C 159.330 205.118,164.517 181.396,182.599 170.829 C 184.133 169.933,185.177 169.200,184.921 169.200 C 184.664 169.200,183.560 167.355,182.467 165.100 C 181.373 162.845,178.549 157.040,176.190 152.200 C 173.831 147.360,170.867 141.240,169.602 138.600 C 168.336 135.960,165.680 130.470,163.698 126.400 C 157.137 112.926,151.374 101.029,150.380 98.907 C 149.200 96.387,149.774 96.395,145.236 98.837 "
       stroke="none"
       fill="#3fb2a1"
       fill-rule="evenodd" />
    <path
       id="path1"
       d="M86.826 177.500 C 86.323 179.360,85.351 184.937,84.927 188.400 C 84.752 189.830,84.609 195.680,84.609 201.400 C 84.609 213.166,84.911 216.444,86.857 225.800 C 87.680 229.759,89.803 237.289,90.436 238.495 C 90.636 238.877,90.800 239.516,90.800 239.915 C 90.800 240.314,90.950 240.811,91.134 241.020 C 91.318 241.229,91.785 242.300,92.172 243.400 C 93.251 246.468,98.167 257.023,98.786 257.600 C 98.904 257.710,99.193 258.160,99.429 258.600 C 100.633 260.843,101.420 262.220,101.600 262.400 C 101.710 262.510,103.200 264.688,104.911 267.241 C 106.622 269.793,108.458 272.290,108.989 272.790 L 109.956 273.699 117.878 267.320 C 122.235 263.811,134.890 253.666,146.000 244.775 C 157.110 235.883,166.435 228.384,166.723 228.110 C 167.010 227.836,168.318 226.787,169.629 225.778 C 171.104 224.643,171.904 223.764,171.729 223.472 C 171.573 223.212,170.883 222.100,170.195 221.000 C 165.984 214.265,164.600 209.303,164.673 201.200 C 164.700 198.230,164.785 195.283,164.861 194.651 C 165.011 193.412,164.928 193.377,158.800 192.040 C 157.810 191.824,155.830 191.384,154.400 191.062 C 152.970 190.741,150.090 190.094,148.000 189.626 C 145.910 189.157,143.480 188.610,142.600 188.410 C 141.720 188.209,138.930 187.579,136.400 187.009 C 133.870 186.439,131.080 185.809,130.200 185.609 C 129.320 185.409,126.530 184.779,124.000 184.209 C 121.470 183.639,118.680 183.004,117.800 182.798 C 116.920 182.591,112.060 181.514,107.000 180.403 C 101.940 179.292,97.170 178.214,96.400 178.007 C 95.002 177.631,87.677 176.000,87.386 176.000 C 87.301 176.000,87.049 176.675,86.826 177.500 "
       stroke="none"
       fill="#43b9e9"
       fill-rule="evenodd" />
    <path
       id="path2"
       d="M162.885 48.184 C 157.957 50.904,157.275 56.805,161.299 61.895 C 161.747 62.463,162.048 62.321,156.800 64.015 C 152.062 65.543,147.914 67.048,145.704 68.039 C 144.772 68.458,143.930 68.800,143.834 68.800 C 142.965 68.800,131.899 74.366,127.527 77.001 C 125.521 78.211,123.810 79.200,123.725 79.200 C 123.098 79.200,111.047 88.052,106.400 91.926 C 104.096 93.847,93.064 104.787,90.997 107.200 C 87.200 111.634,78.400 123.500,78.400 124.185 C 78.400 124.346,77.995 125.042,77.500 125.733 C 77.005 126.423,76.400 127.351,76.156 127.794 C 75.911 128.237,75.040 129.770,74.219 131.200 C 72.129 134.843,68.805 141.838,66.808 146.800 C 65.879 149.110,64.965 151.360,64.777 151.800 C 63.537 154.708,60.445 165.265,59.622 169.400 C 59.447 170.280,59.014 172.350,58.660 174.000 C 55.794 187.369,55.254 204.926,57.237 220.200 C 57.719 223.910,58.683 229.578,59.177 231.600 C 59.365 232.370,59.816 234.260,60.179 235.800 C 61.140 239.870,63.868 248.882,64.781 251.000 C 64.970 251.440,65.408 252.557,65.753 253.483 C 66.098 254.409,66.765 256.029,67.236 257.083 C 67.708 258.137,68.360 259.630,68.687 260.400 C 69.666 262.709,73.592 270.403,74.631 272.049 C 75.164 272.893,75.600 273.674,75.600 273.783 C 75.600 274.277,83.496 286.316,84.400 287.200 C 84.513 287.310,85.140 288.120,85.796 289.000 C 92.080 297.442,102.493 307.974,111.400 314.897 C 113.970 316.894,123.492 323.600,123.758 323.600 C 123.821 323.600,125.386 324.515,127.236 325.633 C 137.845 332.044,153.528 338.410,165.600 341.204 C 166.370 341.382,168.260 341.823,169.800 342.185 C 174.028 343.177,179.883 344.050,187.560 344.831 C 192.966 345.381,213.166 345.107,217.400 344.427 C 218.940 344.180,221.370 343.797,222.800 343.576 C 226.248 343.045,229.121 342.466,233.000 341.519 C 234.760 341.089,236.830 340.591,237.600 340.410 C 261.853 334.732,291.304 316.250,309.002 295.600 C 312.784 291.187,321.600 279.301,321.600 278.615 C 321.600 278.454,322.005 277.758,322.500 277.067 C 322.995 276.377,323.600 275.449,323.844 275.006 C 324.089 274.563,324.960 273.030,325.781 271.600 C 328.330 267.159,332.842 257.503,334.380 253.200 C 334.656 252.430,335.036 251.440,335.227 251.000 C 335.672 249.970,337.208 245.355,337.624 243.800 C 337.800 243.140,338.417 240.980,338.993 239.000 C 339.570 237.020,340.205 234.590,340.405 233.600 C 341.449 228.428,341.697 227.124,342.232 224.000 C 344.578 210.285,344.288 186.379,341.638 175.000 C 341.433 174.120,341.045 172.320,340.776 171.000 C 340.507 169.680,339.931 167.250,339.497 165.600 C 339.062 163.950,338.569 162.060,338.402 161.400 C 338.021 159.900,335.701 152.878,335.230 151.800 C 335.038 151.360,334.656 150.370,334.380 149.600 C 330.340 138.294,321.967 123.592,313.206 112.418 C 305.778 102.945,295.125 92.583,285.600 85.568 C 280.024 81.460,279.654 81.200,279.400 81.200 C 279.261 81.200,278.574 80.768,277.873 80.239 C 274.352 77.583,261.401 70.772,255.400 68.421 C 254.960 68.248,254.150 67.917,253.600 67.686 C 251.742 66.903,247.020 65.248,243.600 64.181 C 238.712 62.657,238.268 62.412,238.959 61.632 C 242.676 57.436,242.297 51.439,238.148 48.808 L 236.243 47.600 200.022 47.639 C 171.657 47.670,163.602 47.788,162.885 48.184 M236.524 48.594 C 241.046 50.483,242.222 54.969,239.427 59.662 C 237.999 62.058,237.852 63.072,238.891 63.358 C 240.585 63.825,246.731 65.739,247.400 66.007 C 247.840 66.184,250.000 66.999,252.200 67.819 C 265.869 72.910,280.632 81.747,293.000 92.242 C 310.176 106.817,324.494 126.589,332.796 147.200 C 333.284 148.410,333.840 149.760,334.032 150.200 C 334.936 152.273,338.751 164.543,339.379 167.400 C 346.410 199.377,343.932 230.198,332.168 257.100 C 331.856 257.815,331.307 259.075,330.949 259.900 C 328.894 264.636,324.812 272.323,322.133 276.504 C 321.180 277.991,320.400 279.294,320.400 279.400 C 320.400 280.929,308.332 295.706,301.616 302.400 C 294.998 308.996,295.025 308.972,289.197 313.643 C 280.450 320.654,266.764 329.002,258.917 332.113 C 257.991 332.480,256.371 333.162,255.317 333.630 C 254.263 334.097,253.040 334.619,252.600 334.790 C 252.160 334.961,251.260 335.321,250.600 335.591 C 224.343 346.328,191.254 347.596,160.000 339.063 C 155.576 337.855,150.006 335.896,145.000 333.788 C 144.340 333.511,142.810 332.867,141.600 332.358 C 133.442 328.927,121.251 321.703,113.099 315.470 C 103.324 307.996,92.878 297.564,86.193 288.600 C 85.537 287.720,84.775 286.762,84.500 286.471 C 84.225 286.181,84.000 285.810,84.000 285.647 C 84.000 285.484,83.677 285.002,83.281 284.575 C 80.454 281.525,71.367 265.507,68.319 258.200 C 56.806 230.605,53.778 202.582,59.239 174.200 C 61.048 164.800,64.517 153.361,67.971 145.400 C 68.162 144.960,68.630 143.880,69.011 143.000 C 71.053 138.282,75.089 130.679,77.879 126.296 C 78.826 124.809,79.600 123.506,79.600 123.400 C 79.600 123.295,80.713 121.632,82.073 119.705 C 92.092 105.507,105.214 92.483,118.739 83.311 C 121.083 81.722,123.217 80.237,123.483 80.011 C 123.749 79.785,124.081 79.600,124.221 79.600 C 124.362 79.600,124.954 79.266,125.538 78.857 C 129.533 76.063,142.951 69.508,149.400 67.202 C 150.720 66.729,152.160 66.197,152.600 66.019 C 154.345 65.311,159.932 63.600,160.500 63.600 C 160.831 63.600,161.331 63.325,161.610 62.988 C 162.154 62.332,162.186 62.428,160.205 58.800 C 158.015 54.788,159.716 49.905,163.800 48.481 C 165.904 47.748,234.755 47.855,236.524 48.594 M164.654 53.229 C 163.383 54.229,163.284 55.773,164.400 57.200 C 164.830 57.750,165.186 58.326,165.191 58.479 C 165.196 58.633,166.282 60.475,167.604 62.574 C 168.926 64.672,170.344 66.977,170.754 67.695 C 171.165 68.413,173.257 71.880,175.404 75.400 C 177.551 78.920,180.336 83.510,181.592 85.600 C 186.764 94.207,190.991 101.099,192.062 102.672 C 192.688 103.592,193.200 104.434,193.200 104.544 C 193.200 105.532,198.566 113.155,199.411 113.367 C 200.925 113.747,204.800 110.038,204.800 108.209 C 204.800 108.113,206.060 106.038,207.600 103.600 C 209.140 101.162,210.400 99.092,210.400 99.000 C 210.400 98.908,211.660 96.838,213.200 94.400 C 214.740 91.962,216.000 89.892,216.000 89.800 C 216.000 89.708,217.260 87.638,218.800 85.200 C 220.340 82.762,221.600 80.687,221.600 80.591 C 221.600 80.494,222.240 79.414,223.023 78.191 C 224.735 75.515,231.788 63.956,232.885 62.030 C 233.314 61.277,234.276 59.705,235.023 58.537 C 236.956 55.516,237.095 54.659,235.856 53.420 L 234.836 52.400 200.272 52.400 C 165.910 52.400,165.702 52.405,164.654 53.229 M235.761 54.480 C 236.089 55.414,235.879 55.984,234.211 58.680 C 233.150 60.396,231.950 62.387,231.545 63.105 C 231.139 63.823,229.726 66.128,228.404 68.226 C 227.082 70.325,226.000 72.115,226.000 72.204 C 226.000 72.293,224.740 74.362,223.200 76.800 C 221.660 79.238,220.400 81.308,220.400 81.400 C 220.400 81.492,219.140 83.562,217.600 86.000 C 216.060 88.438,214.800 90.508,214.800 90.600 C 214.800 90.692,213.540 92.762,212.000 95.200 C 210.460 97.638,209.200 99.707,209.200 99.796 C 209.200 99.885,208.120 101.672,206.800 103.768 C 205.480 105.863,204.400 107.762,204.400 107.989 C 204.400 108.215,204.220 108.400,204.000 108.400 C 203.780 108.400,203.600 108.593,203.600 108.828 C 203.600 109.063,203.051 110.053,202.381 111.028 C 200.315 114.030,199.409 113.679,196.369 108.700 C 192.205 101.878,188.409 95.648,185.462 90.800 C 183.924 88.270,181.346 84.075,179.733 81.478 C 178.120 78.882,176.800 76.686,176.800 76.599 C 176.800 76.513,175.718 74.725,174.396 72.626 C 173.074 70.528,171.658 68.223,171.250 67.505 C 170.075 65.439,166.451 59.441,166.110 58.998 C 164.501 56.908,163.941 55.150,164.576 54.181 L 165.221 53.196 200.301 53.298 L 235.381 53.400 235.761 54.480 M162.000 67.626 C 161.450 67.813,158.776 68.697,156.058 69.590 C 151.753 71.005,150.121 71.604,146.200 73.210 C 107.367 89.119,77.001 123.984,65.733 165.600 C 65.406 166.810,64.987 168.340,64.804 169.000 C 60.402 184.831,59.880 207.645,63.474 227.200 C 64.020 230.170,64.622 233.140,64.813 233.800 C 65.004 234.460,65.450 236.128,65.803 237.507 C 69.585 252.266,77.575 269.147,86.957 282.200 C 88.064 283.740,89.068 285.090,89.187 285.200 C 89.307 285.310,89.934 286.120,90.581 287.000 C 91.228 287.880,91.858 288.690,91.980 288.800 C 92.102 288.910,93.488 290.530,95.060 292.400 C 103.488 302.426,119.067 315.387,130.200 321.634 C 140.123 327.203,150.890 331.759,162.200 335.175 C 163.690 335.625,171.438 337.387,174.400 337.950 C 191.559 341.207,208.935 341.206,226.000 337.947 C 228.553 337.459,236.047 335.697,237.800 335.172 C 248.537 331.957,259.300 327.495,267.204 322.983 C 268.632 322.168,270.610 321.049,271.600 320.497 C 283.166 314.044,299.792 299.390,309.161 287.391 C 321.001 272.226,330.012 254.161,334.397 236.800 C 334.647 235.810,335.005 234.460,335.193 233.800 C 344.692 200.382,336.859 156.224,315.820 124.596 C 307.566 112.188,295.605 99.303,285.000 91.393 C 284.120 90.737,283.153 89.965,282.850 89.679 C 279.535 86.536,262.029 76.553,254.400 73.455 C 253.410 73.053,252.060 72.488,251.400 72.200 C 250.176 71.665,240.725 68.477,237.766 67.600 C 235.527 66.936,234.856 67.158,233.858 68.891 C 233.386 69.711,232.032 71.961,230.849 73.891 C 229.665 75.821,228.248 78.210,227.699 79.200 C 227.150 80.190,226.543 81.171,226.351 81.380 C 225.762 82.018,225.959 83.134,226.700 83.357 C 227.085 83.473,229.200 84.041,231.400 84.620 C 235.202 85.620,239.257 86.872,241.000 87.584 C 241.440 87.763,243.510 88.587,245.600 89.414 C 280.831 103.354,310.048 137.346,317.617 173.200 C 318.199 175.958,319.531 183.058,320.055 186.200 C 320.795 190.631,320.790 211.750,320.049 216.400 C 318.913 223.520,317.687 229.559,316.596 233.400 C 316.221 234.720,315.775 236.340,315.604 237.000 C 314.150 242.639,308.159 256.395,304.931 261.508 C 304.199 262.667,303.600 263.713,303.600 263.831 C 303.600 264.083,298.005 272.503,297.641 272.800 C 297.506 272.910,296.866 273.720,296.220 274.600 C 282.710 292.986,260.727 308.722,238.400 315.991 C 230.802 318.464,228.306 319.084,219.200 320.758 C 208.959 322.641,191.041 322.641,180.800 320.758 C 174.898 319.673,170.783 318.782,167.800 317.943 C 165.421 317.274,157.920 314.834,157.000 314.429 C 156.560 314.236,154.940 313.570,153.400 312.950 C 149.331 311.312,142.705 307.986,138.836 305.640 C 136.986 304.518,135.418 303.600,135.351 303.600 C 135.049 303.600,127.843 298.415,124.600 295.863 C 120.402 292.560,115.307 287.802,110.996 283.158 C 95.843 266.837,85.516 246.270,81.291 224.000 C 79.559 214.872,79.419 213.191,79.419 201.400 C 79.419 189.982,79.553 188.218,81.054 179.800 C 83.377 166.767,89.355 150.343,95.069 141.292 C 95.801 140.133,96.400 139.087,96.400 138.969 C 96.400 138.474,102.345 129.925,105.073 126.497 C 114.021 115.253,128.062 102.880,137.800 97.658 C 138.680 97.187,140.480 96.168,141.800 95.395 C 145.043 93.496,149.982 91.182,155.400 89.022 C 156.940 88.409,158.560 87.760,159.000 87.582 C 160.798 86.852,164.832 85.612,168.600 84.631 C 175.176 82.918,174.986 83.176,172.532 79.292 C 171.799 78.133,171.200 77.108,171.200 77.014 C 171.200 76.920,169.834 74.673,168.165 72.022 C 164.915 66.860,164.700 66.706,162.000 67.626 M167.432 72.000 C 168.827 74.310,170.156 76.417,170.385 76.683 C 170.613 76.949,170.800 77.272,170.800 77.402 C 170.800 77.532,171.430 78.623,172.200 79.827 C 174.167 82.902,174.455 82.589,168.400 83.963 C 166.697 84.349,156.820 87.675,154.600 88.609 C 148.673 91.104,141.282 94.781,137.800 96.968 C 123.386 106.019,113.176 115.080,103.732 127.200 C 101.059 130.631,96.000 138.191,96.000 138.755 C 96.000 139.000,95.865 139.201,95.700 139.203 C 95.535 139.205,95.196 139.610,94.948 140.103 C 94.699 140.596,93.169 143.622,91.548 146.826 C 89.926 150.030,88.360 153.270,88.066 154.026 C 87.773 154.782,87.381 155.760,87.195 156.200 C 86.184 158.596,84.800 162.394,84.800 162.774 C 84.800 163.014,84.642 163.523,84.449 163.905 C 83.910 164.972,83.060 167.998,81.611 174.000 C 78.854 185.422,77.762 199.919,78.824 210.982 C 80.015 223.374,81.869 231.806,85.865 243.000 C 87.547 247.712,87.669 247.998,90.833 254.600 C 92.203 257.460,93.926 260.748,94.662 261.908 C 95.398 263.067,96.000 264.122,96.000 264.253 C 96.000 264.384,97.281 266.405,98.847 268.745 C 111.615 287.824,130.496 303.697,151.000 312.588 C 151.880 312.969,152.960 313.438,153.400 313.630 C 156.064 314.789,161.778 316.780,167.000 318.369 C 169.193 319.036,175.369 320.475,177.600 320.839 C 187.352 322.430,191.387 322.779,200.000 322.779 C 208.613 322.779,212.648 322.430,222.400 320.839 C 224.603 320.480,230.744 319.051,233.000 318.373 C 235.802 317.531,243.064 315.134,243.800 314.808 C 244.240 314.614,245.275 314.172,246.100 313.827 C 268.945 304.277,287.461 289.111,301.142 268.745 C 302.714 266.405,304.000 264.290,304.000 264.045 C 304.000 263.800,304.135 263.599,304.300 263.597 C 304.465 263.595,304.801 263.190,305.047 262.697 C 305.293 262.204,306.739 259.370,308.260 256.400 C 310.697 251.641,311.615 249.662,312.807 246.600 C 312.978 246.160,313.386 245.170,313.713 244.400 C 314.040 243.630,314.534 242.280,314.809 241.400 C 315.085 240.520,315.441 239.440,315.600 239.000 C 316.105 237.602,316.720 235.479,317.396 232.800 C 317.756 231.370,318.218 229.570,318.422 228.800 C 321.000 219.056,322.276 201.926,321.188 191.677 C 320.319 183.489,320.062 181.915,318.009 172.200 C 317.823 171.320,317.368 169.610,316.997 168.400 C 316.627 167.190,316.230 165.703,316.116 165.095 C 316.001 164.487,315.749 163.892,315.554 163.771 C 315.359 163.651,315.200 163.220,315.200 162.813 C 315.200 162.406,314.289 159.799,313.177 157.019 C 305.289 137.319,293.551 121.181,277.200 107.557 C 273.659 104.606,268.520 100.800,268.076 100.800 C 267.851 100.800,267.607 100.664,267.533 100.498 C 266.908 99.082,253.185 91.781,244.800 88.404 C 243.590 87.916,242.240 87.365,241.800 87.179 C 240.532 86.642,237.400 85.679,230.200 83.610 C 229.540 83.421,228.415 83.147,227.700 83.001 C 226.108 82.677,226.102 82.827,227.800 80.173 C 228.570 78.969,229.200 77.906,229.200 77.809 C 229.200 77.713,230.460 75.638,232.000 73.200 C 233.540 70.762,234.800 68.613,234.800 68.426 C 234.800 67.852,235.960 67.602,236.905 67.972 C 237.397 68.165,239.420 68.801,241.400 69.385 C 243.380 69.970,245.360 70.602,245.800 70.792 C 246.240 70.981,247.950 71.628,249.600 72.230 C 278.643 82.827,305.554 106.179,321.013 134.200 C 323.520 138.745,327.242 146.539,328.366 149.600 C 328.649 150.370,329.028 151.360,329.208 151.800 C 330.305 154.477,331.600 158.315,331.600 158.885 C 331.600 159.252,331.756 159.649,331.946 159.767 C 332.136 159.884,332.404 160.570,332.541 161.290 C 332.678 162.011,333.079 163.590,333.433 164.800 C 334.979 170.087,336.629 178.111,337.216 183.200 C 339.271 201.023,338.509 216.426,334.761 232.800 C 333.211 239.576,329.988 249.681,328.353 252.895 C 328.159 253.277,328.000 253.765,328.000 253.979 C 328.000 254.194,327.177 256.131,326.171 258.285 C 325.165 260.438,324.047 262.830,323.687 263.600 C 320.603 270.196,309.015 287.781,306.027 290.400 C 305.901 290.510,305.194 291.320,304.454 292.200 C 299.782 297.762,290.221 306.662,283.513 311.694 C 279.963 314.358,271.052 320.400,270.674 320.400 C 270.560 320.400,269.146 321.170,267.533 322.112 C 264.673 323.782,258.612 326.821,255.400 328.196 C 254.520 328.573,253.440 329.038,253.000 329.230 C 247.106 331.795,235.253 335.456,228.600 336.766 C 227.280 337.026,225.390 337.403,224.400 337.605 C 209.517 340.637,193.149 340.506,173.400 337.197 C 167.183 336.155,153.255 331.952,147.000 329.230 C 146.560 329.038,145.480 328.572,144.600 328.193 C 141.045 326.663,135.233 323.757,132.467 322.128 C 130.854 321.178,129.433 320.400,129.310 320.400 C 128.470 320.400,114.891 310.689,110.600 307.019 C 105.208 302.408,96.893 294.035,93.800 290.102 C 93.360 289.543,92.460 288.423,91.800 287.614 C 91.140 286.804,90.240 285.642,89.800 285.031 C 89.360 284.420,88.488 283.263,87.861 282.460 C 86.483 280.694,81.600 273.306,81.600 272.988 C 81.600 272.864,81.003 271.825,80.273 270.681 C 78.970 268.637,73.200 257.227,73.200 256.694 C 73.200 256.544,72.767 255.472,72.239 254.311 C 71.710 253.150,70.789 250.850,70.191 249.200 C 69.594 247.550,68.966 245.840,68.795 245.400 C 68.098 243.604,66.002 236.161,65.246 232.800 C 63.137 223.427,62.667 220.031,61.942 208.936 C 61.065 195.505,62.540 180.227,66.013 166.800 C 66.593 164.554,68.456 158.273,68.800 157.400 C 68.973 156.960,69.418 155.700,69.789 154.600 C 70.509 152.462,71.078 151.024,71.647 149.905 C 71.841 149.523,72.000 149.035,72.000 148.821 C 72.000 148.606,72.823 146.669,73.829 144.515 C 74.835 142.362,75.953 139.970,76.313 139.200 C 82.791 125.348,95.855 108.605,109.200 97.052 C 115.149 91.901,128.206 82.400,129.335 82.400 C 129.472 82.400,130.533 81.801,131.692 81.069 C 133.640 79.839,140.991 76.152,144.500 74.644 C 145.325 74.290,146.585 73.744,147.300 73.430 C 148.015 73.117,149.680 72.474,151.000 72.002 C 152.320 71.530,153.760 70.987,154.200 70.795 C 154.640 70.604,156.620 69.969,158.600 69.384 C 160.580 68.800,162.560 68.169,163.000 67.983 C 164.445 67.372,164.867 67.755,167.432 72.000 M194.000 171.441 C 182.388 173.946,174.675 181.198,170.431 193.600 C 168.712 198.624,169.681 208.698,172.426 214.348 C 186.678 243.677,230.247 233.911,230.189 201.400 C 230.154 181.751,212.801 167.386,194.000 171.441 M204.000 171.793 C 214.341 173.555,221.587 178.560,226.338 187.223 C 227.478 189.301,227.797 190.135,229.242 194.800 C 230.007 197.269,229.907 205.497,229.078 208.400 C 227.969 212.281,227.713 212.958,226.462 215.308 C 224.767 218.494,221.947 222.067,219.697 223.879 C 218.658 224.716,217.500 225.670,217.124 226.000 C 216.491 226.555,212.855 228.462,211.000 229.211 C 204.290 231.921,195.308 231.884,188.800 229.120 C 186.929 228.325,184.602 227.083,183.969 226.541 C 183.621 226.243,183.218 226.000,183.072 226.000 C 182.252 226.000,177.841 221.641,175.710 218.727 C 171.942 213.571,170.306 208.327,170.306 201.400 C 170.306 196.891,170.539 195.400,171.931 191.000 C 173.093 187.325,177.169 181.445,180.303 178.921 C 181.342 178.084,182.500 177.130,182.876 176.800 C 183.503 176.250,187.079 174.372,189.000 173.584 C 191.468 172.571,196.927 171.373,199.600 171.257 C 200.150 171.233,202.130 171.475,204.000 171.793 M224.864 225.956 C 211.549 239.839,189.351 239.991,175.341 226.296 L 172.481 223.501 169.541 225.829 C 167.923 227.109,166.510 228.260,166.400 228.387 C 166.290 228.513,154.972 237.613,141.248 248.608 C 127.524 259.604,114.834 269.774,113.048 271.210 C 109.167 274.328,109.202 274.071,112.195 277.475 C 157.913 329.477,237.124 331.282,284.415 281.400 C 287.869 277.757,290.800 274.318,290.800 273.909 C 290.800 273.487,290.682 273.608,287.200 277.601 C 283.179 282.212,277.376 287.851,273.400 291.011 C 272.300 291.885,271.310 292.702,271.200 292.826 C 270.867 293.202,263.151 298.544,260.821 300.012 C 255.997 303.051,243.581 309.200,242.269 309.200 C 241.989 309.200,241.589 309.353,241.380 309.539 C 240.085 310.695,226.003 314.559,219.400 315.571 C 212.829 316.578,210.593 316.795,205.800 316.894 L 200.600 317.000 200.276 277.821 C 200.098 256.273,200.050 238.255,200.169 237.781 C 200.361 237.015,200.751 236.891,203.693 236.656 C 206.961 236.395,210.492 235.641,211.047 235.086 C 211.205 234.929,211.630 234.800,211.992 234.800 C 214.905 234.800,227.600 225.708,227.600 223.622 C 227.600 223.071,227.771 222.925,224.864 225.956 "
       stroke="none"
       fill="#8e6cc2"
       fill-rule="evenodd" />
    <path
       id="path3"
       d="M225.400 226.158 C 221.347 230.282,214.337 234.800,211.992 234.800 C 211.630 234.800,211.205 234.929,211.047 235.086 C 210.492 235.641,206.961 236.395,203.693 236.656 C 200.751 236.891,200.361 237.015,200.169 237.781 C 200.050 238.255,200.098 256.273,200.276 277.821 L 200.600 317.000 205.800 316.894 C 215.662 316.692,225.977 314.806,237.000 311.190 C 239.200 310.469,241.171 309.726,241.380 309.539 C 241.589 309.353,241.989 309.200,242.269 309.200 C 243.581 309.200,255.997 303.051,260.821 300.012 C 263.151 298.544,270.867 293.202,271.200 292.826 C 271.310 292.702,272.300 291.885,273.400 291.011 C 277.398 287.833,283.209 282.183,287.200 277.591 C 288.630 275.946,289.935 274.540,290.100 274.467 C 291.141 274.004,289.610 272.407,283.517 267.600 C 279.753 264.630,273.866 259.979,270.436 257.264 C 267.006 254.550,262.110 250.680,259.555 248.664 C 257.000 246.649,248.990 240.308,241.755 234.573 C 234.520 228.837,228.420 224.048,228.200 223.930 C 227.980 223.812,226.720 224.815,225.400 226.158 "
       stroke="none"
       fill="#fd68d0"
       fill-rule="evenodd" />
    <path
       id="path4"
       d="m 257.2,100.421 c 1.042,0.709 2.8,1.607 2.8,1.429 0,-0.222 -2.761,-1.852 -3.123,-1.844 -0.152,0.003 -0.007,0.19 0.323,0.415 m 8.8,5.325 c 0,0.11 0.54,0.584 1.2,1.054 0.66,0.47 1.2,0.764 1.2,0.654 0,-0.11 -0.54,-0.584 -1.2,-1.054 -0.66,-0.47 -1.2,-0.764 -1.2,-0.654 m 8.4,6.379 c 0,0.069 0.585,0.654 1.3,1.3 l 1.3,1.175 -1.175,-1.3 c -1.095,-1.212 -1.425,-1.484 -1.425,-1.175 m 7.6,7.275 c 2.523,2.53 4.677,4.6 4.787,4.6 0.11,0 -1.864,-2.07 -4.387,-4.6 -2.523,-2.53 -4.677,-4.6 -4.787,-4.6 -0.11,0 1.864,2.07 4.387,4.6 m 12.4,14.6 c 0.47,0.66 0.944,1.2 1.054,1.2 0.11,0 -0.184,-0.54 -0.654,-1.2 -0.47,-0.66 -0.944,-1.2 -1.054,-1.2 -0.11,0 0.184,0.54 0.654,1.2 m -76.6,37.007 c 0.44,0.359 1.16,0.828 1.6,1.044 l 0.8,0.393 -0.8,-0.651 c -0.44,-0.359 -1.16,-0.828 -1.6,-1.044 l -0.8,-0.393 0.8,0.651 m 94.967,3.355 c -0.179,1.032 0.251,0.895 -10.367,3.294 -2.09,0.472 -6.41,1.464 -9.6,2.204 -3.19,0.741 -7.78,1.805 -10.2,2.366 -2.42,0.561 -5.93,1.378 -7.8,1.816 -7.63,1.787 -12.88,2.997 -20.6,4.747 -4.46,1.011 -11.765,2.705 -15.785,3.662 -3.268,0.777 -3.404,0.78 -3.941,0.077 -0.529,-0.692 -0.546,-0.689 -0.331,0.072 2.561,9.057 0.33,21.233 -5.321,29.033 -0.681,0.941 -1.1,1.829 -0.93,1.974 0.463,0.396 31,24.553 39.165,30.983 11.361,8.945 23.185,18.418 23.448,18.785 1.079,1.503 12.018,-16.083 16.43,-26.415 4.279,-10.021 7.019,-20.264 8.496,-31.76 0.827,-6.432 0.605,-25.03 -0.364,-30.6 -1.639,-9.412 -2.093,-11.433 -2.3,-10.238 M 228.8,181.2 c 0.47,0.66 0.944,1.2 1.054,1.2 0.11,0 -0.184,-0.54 -0.654,-1.2"
       stroke="none"
       fill="#f74344"
       fill-rule="evenodd"
       sodipodi:nodetypes="cscccssscccccccsssccssscccccccccccscsccccccccccccsc" />
    <path
       id="path5"
       d="M176.291 87.887 C 176.860 87.992,177.715 88.914,178.652 90.432 C 179.460 91.741,180.199 92.734,180.294 92.640 C 180.795 92.138,177.323 87.798,176.392 87.761 C 175.535 87.728,175.521 87.745,176.291 87.887 M219.968 92.300 C 218.380 94.885,216.141 98.530,214.992 100.400 C 213.843 102.270,211.771 105.690,210.389 108.000 C 209.006 110.310,207.600 112.650,207.264 113.200 C 206.928 113.750,206.844 114.020,207.077 113.800 C 207.521 113.381,212.400 105.678,212.400 105.396 C 212.400 105.307,213.634 103.280,215.141 100.893 C 216.649 98.506,217.954 96.374,218.041 96.156 C 219.002 93.757,223.133 88.012,223.995 87.877 L 225.000 87.720 223.927 87.660 C 222.969 87.606,222.547 88.100,219.968 92.300 M172.600 88.400 L 171.800 88.744 172.600 88.744 C 173.040 88.744,173.760 88.589,174.200 88.400 L 175.000 88.056 174.200 88.056 C 173.760 88.056,173.040 88.211,172.600 88.400 M226.000 88.400 C 226.330 88.613,226.960 88.778,227.400 88.766 L 228.200 88.744 227.400 88.400 C 226.204 87.886,225.205 87.886,226.000 88.400 M168.600 89.411 C 167.720 89.701,167.270 89.950,167.600 89.963 C 167.930 89.977,169.010 89.733,170.000 89.421 C 170.990 89.109,171.440 88.860,171.000 88.869 C 170.560 88.877,169.480 89.121,168.600 89.411 M230.000 89.421 C 230.990 89.733,232.070 89.979,232.400 89.967 C 232.730 89.956,232.190 89.691,231.200 89.379 C 230.210 89.067,229.130 88.821,228.800 88.833 C 228.470 88.844,229.010 89.109,230.000 89.421 M162.800 91.200 C 162.267 91.545,162.267 91.588,162.800 91.588 C 163.130 91.588,163.670 91.413,164.000 91.200 C 164.533 90.855,164.533 90.812,164.000 90.812 C 163.670 90.812,163.130 90.987,162.800 91.200 M236.000 91.200 C 236.330 91.413,236.870 91.588,237.200 91.588 C 237.733 91.588,237.733 91.545,237.200 91.200 C 236.870 90.987,236.330 90.812,236.000 90.812 C 235.467 90.812,235.467 90.855,236.000 91.200 M158.800 92.616 C 157.590 93.137,156.780 93.571,157.000 93.581 C 157.425 93.601,161.685 92.043,161.967 91.765 C 162.409 91.327,160.773 91.767,158.800 92.616 M240.168 92.617 C 241.470 93.158,242.730 93.592,242.968 93.583 C 243.206 93.574,242.334 93.124,241.032 92.583 C 239.730 92.042,238.470 91.608,238.232 91.617 C 237.994 91.626,238.866 92.076,240.168 92.617 M243.600 93.781 C 243.600 93.943,244.294 94.273,248.500 96.114 C 249.976 96.760,249.978 96.754,246.955 103.072 C 245.500 106.112,243.542 110.220,242.604 112.200 C 241.667 114.180,239.640 118.410,238.101 121.600 C 236.561 124.790,234.536 129.020,233.600 131.000 C 230.810 136.903,226.088 146.775,220.207 159.000 C 218.725 162.080,217.077 165.545,216.544 166.700 C 215.440 169.097,215.035 169.215,212.163 167.984 C 211.116 167.535,209.995 167.220,209.672 167.284 C 209.349 167.348,210.630 167.913,212.519 168.540 C 222.156 171.739,230.198 179.978,233.568 190.103 C 234.686 193.463,234.509 193.379,238.481 192.435 C 242.471 191.486,249.804 189.785,254.200 188.789 C 259.406 187.608,266.359 186.011,270.000 185.158 C 271.870 184.720,274.480 184.111,275.800 183.804 C 277.120 183.497,280.090 182.806,282.400 182.268 C 286.241 181.373,294.508 179.467,302.600 177.610 C 304.360 177.206,307.240 176.557,309.000 176.167 C 313.058 175.270,313.064 175.263,312.439 172.703 C 311.665 169.533,309.537 162.660,308.817 161.000 C 308.626 160.560,307.894 158.760,307.192 157.000 C 299.688 138.197,286.127 120.951,268.400 107.669 C 261.593 102.568,243.600 92.493,243.600 93.781 M151.800 95.585 C 150.480 96.216,149.580 96.741,149.800 96.753 C 150.020 96.765,151.280 96.253,152.600 95.615 C 153.920 94.977,154.820 94.451,154.600 94.447 C 154.380 94.443,153.120 94.955,151.800 95.585 M181.250 94.618 C 181.571 95.511,185.727 102.007,185.880 101.854 C 185.969 101.765,185.101 100.186,183.952 98.346 C 181.923 95.097,180.931 93.728,181.250 94.618 M186.800 103.699 C 186.800 104.034,191.571 111.674,192.108 112.200 C 192.676 112.755,192.292 112.060,189.677 107.800 C 187.422 104.126,186.800 103.240,186.800 103.699 M192.424 112.935 C 192.251 115.391,198.711 119.443,201.209 118.446 C 202.076 118.100,201.961 118.048,200.287 118.025 C 197.120 117.983,194.958 116.615,192.924 113.362 C 192.661 112.943,192.436 112.751,192.424 112.935 M205.640 115.544 C 205.192 116.173,204.235 116.979,203.513 117.335 C 202.791 117.691,202.453 117.986,202.762 117.991 C 203.504 118.003,205.878 116.176,206.409 115.184 C 207.032 114.020,206.572 114.235,205.640 115.544 M197.300 166.297 C 198.785 166.374,201.215 166.374,202.700 166.297 C 204.185 166.220,202.970 166.157,200.000 166.157 C 197.030 166.157,195.815 166.220,197.300 166.297 M191.800 166.800 L 191.000 167.144 191.800 167.132 C 192.240 167.126,193.050 166.976,193.600 166.800 L 194.600 166.480 193.600 166.468 C 193.050 166.462,192.240 166.611,191.800 166.800 M206.400 166.800 C 206.950 166.976,207.760 167.126,208.200 167.132 L 209.000 167.144 208.200 166.800 C 207.760 166.611,206.950 166.462,206.400 166.468 L 205.400 166.480 206.400 166.800 M187.200 168.216 C 184.320 169.455,185.086 169.454,188.400 168.214 C 189.830 167.679,190.640 167.248,190.200 167.256 C 189.760 167.263,188.410 167.696,187.200 168.216 "
       stroke="none"
       fill="#faa048"
       fill-rule="evenodd" />
    <path
       id="path6"
       d="m 170.8,89.203 c -2.31,0.61 -5.1,1.411 -6.2,1.78 -3.126,1.048 -7.481,2.642 -8.8,3.221 -2.911,1.278 -6.012,2.704 -6.15,2.828 -0.082,0.074 0.397,1.267 1.066,2.651 1.964,4.065 9.083,18.719 12.98,26.717 1.983,4.07 4.64,9.56 5.906,12.2 1.265,2.64 4.229,8.76 6.588,13.6 2.359,4.84 5.183,10.645 6.277,12.9 1.093,2.255 2.31291,4.57266 2.39891,4.57266 0.087,0 1.14515,-0.52254 2.30815,-0.98554 7.546,-3.001 18.39682,-3.04412 25.29682,-0.16012 2.483,1.039 2.99912,0.505 4.07312,-1.827 0.533,-1.155 2.181,-4.62 3.663,-7.7 5.881,-12.225 10.603,-22.097 13.393,-28 0.936,-1.98 2.961,-6.21 4.501,-9.4 1.539,-3.19 3.566,-7.42 4.503,-9.4 0.938,-1.98 2.896,-6.088 4.351,-9.128 3.067,-6.41 3.046,-6.303 1.345,-7.04 -0.715,-0.309 -2.2,-0.964 -3.3,-1.454 -5.688,-2.536 -16.63,-5.963 -20.6,-6.452 -1.391,-0.172 -3.339,2.317 -6.629,8.471 -0.236,0.442 -1.393,2.333 -2.571,4.203 -1.178,1.87 -2.335,3.763 -2.571,4.207 -1.925,3.617 -7.045,11.262 -8.02,11.975 -4.013,2.934 -9.405,1.446 -11.83,-3.264 -0.317,-0.615 -1.792,-3.061 -3.277,-5.435 -1.486,-2.374 -2.702,-4.391 -2.702,-4.483 0,-0.092 -1.26,-2.162 -2.8,-4.6 -1.54,-2.438 -2.8,-4.51 -2.8,-4.604 0,-0.093 -0.918,-1.615 -2.04,-3.383 -2.384,-3.755 -2.054,-3.675 -8.36,-2.01"
       stroke="none"
       fill="#ecd83b"
       fill-rule="evenodd"
       sodipodi:nodetypes="cccccccscsccccccccccccsccccssscc" />
    <path
       id="path8"
       d="m 163.8,48.481 c -4.084,1.424 -5.785,6.307 -3.595,10.319 1.981,3.628 1.949,3.532 1.405,4.188 -0.279,0.337 -0.779,0.612 -1.11,0.612 -0.568,0 -6.155,1.711 -7.9,2.419 -0.44,0.178 -1.88,0.71 -3.2,1.183 -6.449,2.306 -19.867,8.861 -23.862,11.655 -0.584,0.409 -1.176,0.743 -1.317,0.743 -0.14,0 -0.472,0.185 -0.738,0.411 -0.266,0.226 -2.4,1.711 -4.744,3.3 -13.525,9.172 -26.647,22.196 -36.666,36.394 -1.36,1.927 -2.473,3.59 -2.473,3.695 0,0.106 -0.774,1.409 -1.721,2.896 -2.79,4.383 -6.826,11.986 -8.868,16.704 -0.381,0.88 -0.849,1.96 -1.04,2.4 -12.674,29.207 -14.791,64.777 -5.703,95.8 1.613,5.507 3.69,11.34 6.051,17 3.048,7.307 12.135,23.325 14.962,26.375 0.396,0.427 0.719,0.909 0.719,1.072 0,0.163 0.225,0.534 0.5,0.824 0.275,0.291 1.037,1.249 1.693,2.129 5.316,7.128 14.114,16.299 22.35,23.296 4.34,3.688 14.789,10.929 20.057,13.899 3.336,1.881 10.664,5.581 13,6.563 1.21,0.509 2.74,1.153 3.4,1.43 27.898,11.747 61.163,14.193 90.2,6.633 4.106,-1.069 13.103,-3.891 15.4,-4.83 0.66,-0.27 1.56,-0.63 2,-0.801 0.44,-0.171 1.663,-0.693 2.717,-1.16 1.054,-0.468 2.674,-1.15 3.6,-1.517 7.847,-3.111 21.533,-11.459 30.28,-18.47 5.828,-4.671 5.801,-4.647 12.419,-11.243 6.716,-6.694 18.784,-21.471 18.784,-23 0,-0.106 0.78,-1.409 1.733,-2.896 2.679,-4.181 6.761,-11.868 8.816,-16.604 0.358,-0.825 0.907,-2.085 1.219,-2.8 11.764,-26.902 14.242,-57.723 7.211,-89.7 -0.628,-2.857 -4.443,-15.127 -5.347,-17.2 -0.192,-0.44 -0.748,-1.79 -1.236,-3 C 318.4,111.461 287.402,80.931 252.2,67.819 c -2.2,-0.82 -4.36,-1.635 -4.8,-1.812 -0.669,-0.268 -6.815,-2.182 -8.509,-2.649 -1.039,-0.286 -0.892,-1.3 0.536,-3.696 2.795,-4.693 1.619,-9.179 -2.903,-11.068 -1.769,-0.739 -70.62,-0.846 -72.724,-0.113 m 72.056,4.939 c 1.239,1.239 1.1,2.096 -0.833,5.117 -0.747,1.168 -1.709,2.74 -2.138,3.493 -1.097,1.926 -8.15,13.485 -9.862,16.161 -0.783,1.223 -1.423,2.303 -1.423,2.4 0,0.096 -1.26,2.171 -2.8,4.609 -1.54,2.438 -2.8,4.508 -2.8,4.6 0,0.092 -1.26,2.162 -2.8,4.6 -1.54,2.438 -2.8,4.508 -2.8,4.6 0,0.092 -1.26,2.162 -2.8,4.6 -1.54,2.438 -2.8,4.513 -2.8,4.609 0,1.829 -3.875,5.538 -5.389,5.158 -0.845,-0.212 -6.211,-7.835 -6.211,-8.823 0,-0.11 -0.512,-0.952 -1.138,-1.872 -1.071,-1.573 -5.298,-8.465 -10.47,-17.072 -1.256,-2.09 -4.041,-6.68 -6.188,-10.2 -2.147,-3.52 -4.239,-6.987 -4.65,-7.705 -0.41,-0.718 -1.828,-3.023 -3.15,-5.121 -1.322,-2.099 -2.408,-3.941 -2.413,-4.095 -0.005,-0.153 -0.361,-0.729 -0.791,-1.279 -1.116,-1.427 -1.017,-2.971 0.254,-3.971 1.048,-0.824 1.256,-0.829 35.618,-0.829 h 34.564 l 1.02,1.02 m -67.691,18.602 c 1.669,2.651 3.035,4.898 3.035,4.992 0,0.094 0.599,1.119 1.332,2.278 2.454,3.884 2.644,3.626 -3.932,5.339 -3.768,0.981 -7.802,2.221 -9.6,2.951 -0.44,0.178 -2.06,0.827 -3.6,1.44 -5.418,2.16 -10.357,4.474 -13.6,6.373 -1.32,0.773 -3.12,1.792 -4,2.263 -9.738,5.222 -23.779,17.595 -32.727,28.839 -2.728,3.428 -8.673,11.977 -8.673,12.472 0,0.118 -0.599,1.164 -1.331,2.323 -5.714,9.051 -11.692,25.475 -14.015,38.508 -1.501,8.418 -1.635,10.182 -1.635,21.6 0,11.791 0.14,13.472 1.872,22.6 4.225,22.27 14.552,42.837 29.705,59.158 4.311,4.644 9.406,9.402 13.604,12.705 3.243,2.552 10.449,7.737 10.751,7.737 0.067,0 1.635,0.918 3.485,2.04 3.869,2.346 10.495,5.672 14.564,7.31 1.54,0.62 3.16,1.286 3.6,1.479 0.92,0.405 8.421,2.845 10.8,3.514 2.983,0.839 7.098,1.73 13,2.815 10.241,1.883 28.159,1.883 38.4,0 9.106,-1.674 11.602,-2.294 19.2,-4.767 22.327,-7.269 44.31,-23.005 57.82,-41.391 0.646,-0.88 1.286,-1.69 1.421,-1.8 0.364,-0.297 5.959,-8.717 5.959,-8.969 0,-0.118 0.599,-1.164 1.331,-2.323 3.228,-5.113 9.219,-18.869 10.673,-24.508 0.171,-0.66 0.617,-2.28 0.992,-3.6 1.091,-3.841 2.317,-9.88 3.453,-17 0.741,-4.65 0.746,-25.769 0.006,-30.2 -0.524,-3.142 -1.856,-10.242 -2.438,-13 -7.569,-35.854 -36.786,-69.846 -72.017,-83.786 -2.09,-0.827 -4.16,-1.651 -4.6,-1.83 -1.743,-0.712 -5.798,-1.964 -9.6,-2.964 -2.2,-0.579 -4.315,-1.147 -4.7,-1.263 -0.741,-0.223 -0.938,-1.339 -0.349,-1.977 0.192,-0.209 0.799,-1.19 1.348,-2.18 0.549,-0.99 1.966,-3.379 3.15,-5.309 1.183,-1.93 2.537,-4.18 3.009,-5 0.998,-1.733 1.669,-1.955 3.908,-1.291 2.959,0.877 12.41,4.065 13.634,4.6 0.66,0.288 2.01,0.853 3,1.255 7.629,3.098 25.135,13.081 28.45,16.224 0.303,0.286 1.27,1.058 2.15,1.714 7.838,5.846 17.788,15.804 24.784,24.803 22.46,28.893 32.995,67.187 28.173,102.404 -0.526,3.837 -2.286,13.518 -2.764,15.2 -0.188,0.66 -0.546,2.01 -0.796,3 -4.385,17.361 -13.396,35.426 -25.236,50.591 -9.369,11.999 -25.995,26.653 -37.561,33.106 -0.99,0.552 -2.968,1.671 -4.396,2.486 -7.904,4.512 -18.667,8.974 -29.404,12.189 -19.099,5.72 -42.502,6.745 -63.4,2.778 -2.962,-0.563 -10.71,-2.325 -12.2,-2.775 -11.31,-3.416 -22.077,-7.972 -32,-13.541 -11.133,-6.247 -26.712,-19.208 -35.14,-29.234 -1.572,-1.87 -2.958,-3.49 -3.08,-3.6 -0.122,-0.11 -0.752,-0.92 -1.399,-1.8 -0.647,-0.88 -1.274,-1.69 -1.394,-1.8 -0.119,-0.11 -1.123,-1.46 -2.23,-3 -9.382,-13.053 -17.372,-29.934 -21.154,-44.693 -0.353,-1.379 -0.799,-3.047 -0.99,-3.707 -4.403,-15.22 -4.935,-38.066 -1.35,-58 0.554,-3.08 1.157,-6.14 1.341,-6.8 0.183,-0.66 0.602,-2.19 0.929,-3.4 11.268,-41.616 41.634,-76.481 80.467,-92.39 3.921,-1.606 5.553,-2.205 9.858,-3.62 2.718,-0.893 5.392,-1.777 5.942,-1.964 2.7,-0.92 2.915,-0.766 6.165,4.396 M 178.869,90 c 0.818,1.21 1.497,2.332 1.509,2.492 0.012,0.161 0.662,1.294 1.445,2.517 1.846,2.886 8.688,14.1 10.488,17.191 2.592,4.45 4.434,5.8 7.916,5.8 3.859,0 4.58,-0.703 10.054,-9.8 11.297,-18.771 12.475,-20.6 13.279,-20.6 1.81,0 12.941,3.223 18.623,5.393 27.7,10.577 53.21,34.981 64.186,61.407 0.503,1.21 1.148,2.74 1.434,3.4 0.441,1.019 1.526,3.968 3.016,8.2 0.555,1.577 2.226,7.98 2.714,10.4 0.244,1.21 0.628,3.1 0.853,4.2 2.218,10.812 2.205,30.36 -0.028,41.8 -4.899,25.099 -16.916,47.075 -34.996,64 -48.035,44.967 -123.816,40.907 -167.167,-8.955 -1.317,-1.515 -2.902,-3.315 -3.522,-4 C 100.642,264.574 89.68,242.08 86.82,228.6 c -6.093,-28.72 -3.122,-54.285 9.185,-79.031 7.723,-15.53 20.275,-30.819 32.995,-40.19 0.88,-0.649 1.831,-1.397 2.112,-1.663 0.282,-0.266 2.262,-1.63 4.4,-3.031 11.911,-7.805 22.529,-12.531 36.088,-16.062 5.146,-1.34 5.474,-1.278 7.269,1.377 m 12.838,77.216 c -26.733,6.907 -35.71,38.881 -16.542,58.92 19.475,20.359 55.202,8.772 59.62,-19.336 3.841,-24.433 -19.326,-45.721 -43.078,-39.584 m 13.967,4.189 c 25.225,5.214 33.532,36.687 14.048,53.217 -20.476,17.371 -51.239,1.97 -49.984,-25.022 0.218,-4.673 0.377,-5.396 2.202,-9.993 5.186,-13.064 19.978,-21.046 33.734,-18.202" />
  </g>
</svg>
