<?xml version="1.0" encoding="UTF-8" standalone="no"?>
<svg
   id="svg"
   version="1.1"
   width="400"
   height="400"
   viewBox="0 0 400 400"
   xmlns="http://www.w3.org/2000/svg"
   xmlns:svg="http://www.w3.org/2000/svg">
  <defs
     id="defs145" />
  <g
     id="svgg">
    <path
       id="path0"
       d="m 145.236,98.837 c -4.92,2.649 -13.213,7.912 -14.436,9.163 -0.11,0.113 -0.92,0.734 -1.8,1.381 -12.684,9.327 -25.272,24.659 -32.995,40.188 -12.307,24.746 -15.278,50.311 -9.185,79.031 2.805,13.218 14.155,36.643 21.563,44.5 1.452,1.541 1.786,0.985 0.36,-0.6 -0.742,-0.825 -2.608,-3.39 -4.146,-5.7 -1.539,-2.31 -2.887,-4.29 -2.997,-4.4 -0.18,-0.18 -0.967,-1.557 -2.171,-3.8 -0.236,-0.44 -0.525,-0.89 -0.643,-1 -0.619,-0.577 -5.535,-11.132 -6.614,-14.2 -0.387,-1.1 -0.854,-2.171 -1.038,-2.38 -0.184,-0.209 -0.334,-0.706 -0.334,-1.105 0,-0.399 -0.164,-1.038 -0.364,-1.42 -0.352,-0.671 -2.093,-6.426 -2.812,-9.295 -0.895,-3.571 -2.197,-10.713 -2.697,-14.8 -0.413,-3.372 -0.413,-22.628 0,-26 0.663,-5.413 2.048,-12.4 2.459,-12.4 0.291,0 7.616,1.631 9.014,2.007 0.77,0.207 5.54,1.285 10.6,2.396 5.06,1.111 9.92,2.188 10.8,2.395 0.88,0.206 3.67,0.841 6.2,1.411 2.53,0.57 5.32,1.2 6.2,1.4 0.88,0.2 3.67,0.83 6.2,1.4 2.53,0.57 5.32,1.2 6.2,1.401 0.88,0.2 3.31,0.747 5.4,1.216 2.09,0.468 4.97,1.115 6.4,1.436 1.43,0.322 3.41,0.762 4.4,0.978 6.128,1.337 6.211,1.372 6.061,2.611 -0.944,7.803 0.105,16.014 2.753,21.549 1.889,3.95 4.089,7.4 4.719,7.4 0.327,0 -0.007,-0.74 -0.857,-1.9 -12.146,-16.582 -6.959,-40.304 11.123,-50.871 1.534,-0.896 2.578,-1.629 2.322,-1.629 -0.257,0 -1.361,-1.845 -2.454,-4.1 -1.094,-2.255 -3.918,-8.06 -6.277,-12.9 -2.359,-4.84 -5.323,-10.96 -6.588,-13.6 -1.266,-2.64 -3.922,-8.13 -5.904,-12.2 -6.561,-13.474 -12.324,-25.371 -13.318,-27.493 -1.18,-2.52 -0.606,-2.512 -5.144,-0.07"
       stroke="none"
       fill="#3fb2a1"
       fill-rule="evenodd" />
    <path
       id="path1"
       d="m 86.826,177.5 c -0.503,1.86 -1.475,7.437 -1.899,10.9 -0.175,1.43 -0.318,7.28 -0.318,13 0,11.766 0.302,15.044 2.248,24.4 0.823,3.959 2.946,11.489 3.579,12.695 0.2,0.382 0.364,1.021 0.364,1.42 0,0.399 0.15,0.896 0.334,1.105 0.184,0.209 0.651,1.28 1.038,2.38 1.079,3.068 5.995,13.623 6.614,14.2 0.118,0.11 0.407,0.56 0.643,1 1.204,2.243 1.991,3.62 2.171,3.8 0.11,0.11 1.6,2.288 3.311,4.841 1.711,2.552 3.547,5.049 4.078,5.549 l 0.967,0.909 7.922,-6.379 c 4.357,-3.509 17.012,-13.654 28.122,-22.545 11.11,-8.892 20.435,-16.391 20.723,-16.665 0.287,-0.274 1.595,-1.323 2.906,-2.332 1.475,-1.135 2.275,-2.014 2.1,-2.306 -0.156,-0.26 -0.846,-1.372 -1.534,-2.472 -4.211,-6.735 -5.595,-11.697 -5.522,-19.8 0.027,-2.97 0.112,-5.917 0.188,-6.549 0.15,-1.239 0.067,-1.274 -6.061,-2.611 -0.99,-0.216 -2.97,-0.656 -4.4,-0.978 -1.43,-0.321 -4.31,-0.968 -6.4,-1.436 -2.09,-0.469 -4.52,-1.016 -5.4,-1.216 -0.88,-0.201 -3.67,-0.831 -6.2,-1.401 -2.53,-0.57 -5.32,-1.2 -6.2,-1.4 -0.88,-0.2 -3.67,-0.83 -6.2,-1.4 -2.53,-0.57 -5.32,-1.205 -6.2,-1.411 -0.88,-0.207 -5.74,-1.284 -10.8,-2.395 -5.06,-1.111 -9.83,-2.189 -10.6,-2.396 C 95.002,177.631 87.677,176 87.386,176 c -0.085,0 -0.337,0.675 -0.56,1.5"
       stroke="none"
       fill="#43b9e9"
       fill-rule="evenodd" />
    <path
       id="path2"
       d="m 162.885,48.184 c -4.928,2.72 -5.61,8.621 -1.586,13.711 0.448,0.568 0.749,0.426 -4.499,2.12 -4.738,1.528 -8.886,3.033 -11.096,4.024 -0.932,0.419 -1.774,0.761 -1.87,0.761 -0.869,0 -11.935,5.566 -16.307,8.201 -2.006,1.21 -3.717,2.199 -3.802,2.199 -0.627,0 -12.678,8.852 -17.325,12.726 -2.304,1.921 -13.336,12.861 -15.403,15.274 -3.797,4.434 -12.597,16.3 -12.597,16.985 0,0.161 -0.405,0.857 -0.9,1.548 -0.495,0.69 -1.1,1.618 -1.344,2.061 -0.245,0.443 -1.116,1.976 -1.937,3.406 -2.09,3.643 -5.414,10.638 -7.411,15.6 -0.929,2.31 -1.843,4.56 -2.031,5 -1.24,2.908 -4.332,13.465 -5.155,17.6 -0.175,0.88 -0.608,2.95 -0.962,4.6 -2.866,13.369 -3.406,30.926 -1.423,46.2 0.482,3.71 1.446,9.378 1.94,11.4 0.188,0.77 0.639,2.66 1.002,4.2 0.961,4.07 3.689,13.082 4.602,15.2 0.189,0.44 0.627,1.557 0.972,2.483 0.345,0.926 1.012,2.546 1.483,3.6 0.472,1.054 1.124,2.547 1.451,3.317 0.979,2.309 4.905,10.003 5.944,11.649 0.533,0.844 0.969,1.625 0.969,1.734 0,0.494 7.896,12.533 8.8,13.417 0.113,0.11 0.74,0.92 1.396,1.8 6.284,8.442 16.697,18.974 25.604,25.897 2.57,1.997 12.092,8.703 12.358,8.703 0.063,0 1.628,0.915 3.478,2.033 10.609,6.411 26.292,12.777 38.364,15.571 0.77,0.178 2.66,0.619 4.2,0.981 4.228,0.992 10.083,1.865 17.76,2.646 5.406,0.55 25.606,0.276 29.84,-0.404 1.54,-0.247 3.97,-0.63 5.4,-0.851 3.448,-0.531 6.321,-1.11 10.2,-2.057 1.76,-0.43 3.83,-0.928 4.6,-1.109 24.253,-5.678 53.704,-24.16 71.402,-44.81 3.782,-4.413 12.598,-16.299 12.598,-16.985 0,-0.161 0.405,-0.857 0.9,-1.548 0.495,-0.69 1.1,-1.618 1.344,-2.061 0.245,-0.443 1.116,-1.976 1.937,-3.406 2.549,-4.441 7.061,-14.097 8.599,-18.4 0.276,-0.77 0.656,-1.76 0.847,-2.2 0.445,-1.03 1.981,-5.645 2.397,-7.2 0.176,-0.66 0.793,-2.82 1.369,-4.8 0.577,-1.98 1.212,-4.41 1.412,-5.4 1.044,-5.172 1.292,-6.476 1.827,-9.6 2.346,-13.715 2.056,-37.621 -0.594,-49 -0.205,-0.88 -0.593,-2.68 -0.862,-4 -0.269,-1.32 -0.845,-3.75 -1.279,-5.4 -0.435,-1.65 -0.928,-3.54 -1.095,-4.2 -0.381,-1.5 -2.701,-8.522 -3.172,-9.6 -0.192,-0.44 -0.574,-1.43 -0.85,-2.2 -4.04,-11.306 -12.413,-26.008 -21.174,-37.182 -7.428,-9.473 -18.081,-19.835 -27.606,-26.85 -5.576,-4.108 -5.946,-4.368 -6.2,-4.368 -0.139,0 -0.826,-0.432 -1.527,-0.961 -3.521,-2.656 -16.472,-9.467 -22.473,-11.818 -0.44,-0.173 -1.25,-0.504 -1.8,-0.735 -1.858,-0.783 -6.58,-2.438 -10,-3.505 -4.888,-1.524 -5.332,-1.769 -4.641,-2.549 3.717,-4.196 3.338,-10.193 -0.811,-12.824 l -1.905,-1.208 -36.221,0.039 c -28.365,0.031 -36.42,0.149 -37.137,0.545 m 73.639,0.41 c 4.522,1.889 5.698,6.375 2.903,11.068 -1.428,2.396 -1.575,3.41 -0.536,3.696 1.694,0.467 7.84,2.381 8.509,2.649 0.44,0.177 2.6,0.992 4.8,1.812 13.669,5.091 28.432,13.928 40.8,24.423 17.176,14.575 31.494,34.347 39.796,54.958 0.488,1.21 1.044,2.56 1.236,3 0.904,2.073 4.719,14.343 5.347,17.2 7.031,31.977 4.553,62.798 -7.211,89.7 -0.312,0.715 -0.861,1.975 -1.219,2.8 -2.055,4.736 -6.137,12.423 -8.816,16.604 -0.953,1.487 -1.733,2.79 -1.733,2.896 0,1.529 -12.068,16.306 -18.784,23 -6.618,6.596 -6.591,6.572 -12.419,11.243 -8.747,7.011 -22.433,15.359 -30.28,18.47 -0.926,0.367 -2.546,1.049 -3.6,1.517 -1.054,0.467 -2.277,0.989 -2.717,1.16 -0.44,0.171 -1.34,0.531 -2,0.801 -26.257,10.737 -59.346,12.005 -90.6,3.472 -4.424,-1.208 -9.994,-3.167 -15,-5.275 -0.66,-0.277 -2.19,-0.921 -3.4,-1.43 -8.158,-3.431 -20.349,-10.655 -28.501,-16.888 -9.775,-7.474 -20.221,-17.906 -26.906,-26.87 -0.656,-0.88 -1.418,-1.838 -1.693,-2.129 -0.275,-0.29 -0.5,-0.661 -0.5,-0.824 0,-0.163 -0.323,-0.645 -0.719,-1.072 -2.827,-3.05 -11.914,-19.068 -14.962,-26.375 -11.513,-27.595 -14.541,-55.618 -9.08,-84 1.809,-9.4 5.278,-20.839 8.732,-28.8 0.191,-0.44 0.659,-1.52 1.04,-2.4 2.042,-4.718 6.078,-12.321 8.868,-16.704 0.947,-1.487 1.721,-2.79 1.721,-2.896 0,-0.105 1.113,-1.768 2.473,-3.695 10.019,-14.198 23.141,-27.222 36.666,-36.394 2.344,-1.589 4.478,-3.074 4.744,-3.3 0.266,-0.226 0.598,-0.411 0.738,-0.411 0.141,0 0.733,-0.334 1.317,-0.743 3.995,-2.794 17.413,-9.349 23.862,-11.655 1.32,-0.473 2.76,-1.005 3.2,-1.183 1.745,-0.708 7.332,-2.419 7.9,-2.419 0.331,0 0.831,-0.275 1.11,-0.612 0.544,-0.656 0.576,-0.56 -1.405,-4.188 -2.19,-4.012 -0.489,-8.895 3.595,-10.319 2.104,-0.733 70.955,-0.626 72.724,0.113 m -71.87,4.635 c -1.271,1 -1.37,2.544 -0.254,3.971 0.43,0.55 0.786,1.126 0.791,1.279 0.005,0.154 1.091,1.996 2.413,4.095 1.322,2.098 2.74,4.403 3.15,5.121 0.411,0.718 2.503,4.185 4.65,7.705 2.147,3.52 4.932,8.11 6.188,10.2 5.172,8.607 9.399,15.499 10.47,17.072 0.626,0.92 1.138,1.762 1.138,1.872 0,0.988 5.366,8.611 6.211,8.823 1.514,0.38 5.389,-3.329 5.389,-5.158 0,-0.096 1.26,-2.171 2.8,-4.609 1.54,-2.438 2.8,-4.508 2.8,-4.6 0,-0.092 1.26,-2.162 2.8,-4.6 1.54,-2.438 2.8,-4.508 2.8,-4.6 0,-0.092 1.26,-2.162 2.8,-4.6 1.54,-2.438 2.8,-4.513 2.8,-4.609 0,-0.097 0.64,-1.177 1.423,-2.4 1.712,-2.676 8.765,-14.235 9.862,-16.161 0.429,-0.753 1.391,-2.325 2.138,-3.493 1.933,-3.021 2.072,-3.878 0.833,-5.117 l -1.02,-1.02 h -34.564 c -34.362,0 -34.57,0.005 -35.618,0.829 m 71.107,1.251 c 0.328,0.934 0.118,1.504 -1.55,4.2 -1.061,1.716 -2.261,3.707 -2.666,4.425 -0.406,0.718 -1.819,3.023 -3.141,5.121 -1.322,2.099 -2.404,3.889 -2.404,3.978 0,0.089 -1.26,2.158 -2.8,4.596 -1.54,2.438 -2.8,4.508 -2.8,4.6 0,0.092 -1.26,2.162 -2.8,4.6 -1.54,2.438 -2.8,4.508 -2.8,4.6 0,0.092 -1.26,2.162 -2.8,4.6 -1.54,2.438 -2.8,4.507 -2.8,4.596 0,0.089 -1.08,1.876 -2.4,3.972 -1.32,2.095 -2.4,3.994 -2.4,4.221 0,0.226 -0.18,0.411 -0.4,0.411 -0.22,0 -0.4,0.193 -0.4,0.428 0,0.235 -0.549,1.225 -1.219,2.2 -2.066,3.002 -2.972,2.651 -6.012,-2.328 -4.164,-6.822 -7.96,-13.052 -10.907,-17.9 -1.538,-2.53 -4.116,-6.725 -5.729,-9.322 -1.613,-2.596 -2.933,-4.792 -2.933,-4.879 0,-0.086 -1.082,-1.874 -2.404,-3.973 -1.322,-2.098 -2.738,-4.403 -3.146,-5.121 -1.175,-2.066 -4.799,-8.064 -5.14,-8.507 -1.609,-2.09 -2.169,-3.848 -1.534,-4.817 l 0.645,-0.985 35.08,0.102 35.08,0.102 0.38,1.08 M 162,67.626 c -0.55,0.187 -3.224,1.071 -5.942,1.964 -4.305,1.415 -5.937,2.014 -9.858,3.62 -38.833,15.909 -69.199,50.774 -80.467,92.39 -0.327,1.21 -0.746,2.74 -0.929,3.4 -4.402,15.831 -4.924,38.645 -1.33,58.2 0.546,2.97 1.148,5.94 1.339,6.6 0.191,0.66 0.637,2.328 0.99,3.707 3.782,14.759 11.772,31.64 21.154,44.693 1.107,1.54 2.111,2.89 2.23,3 0.12,0.11 0.747,0.92 1.394,1.8 0.647,0.88 1.277,1.69 1.399,1.8 0.122,0.11 1.508,1.73 3.08,3.6 8.428,10.026 24.007,22.987 35.14,29.234 9.923,5.569 20.69,10.125 32,13.541 1.49,0.45 9.238,2.212 12.2,2.775 17.159,3.257 34.535,3.256 51.6,-0.003 2.553,-0.488 10.047,-2.25 11.8,-2.775 10.737,-3.215 21.5,-7.677 29.404,-12.189 1.428,-0.815 3.406,-1.934 4.396,-2.486 11.566,-6.453 28.192,-21.107 37.561,-33.106 11.84,-15.165 20.851,-33.23 25.236,-50.591 0.25,-0.99 0.608,-2.34 0.796,-3 9.499,-33.418 1.666,-77.576 -19.373,-109.204 -8.254,-12.408 -20.215,-25.293 -30.82,-33.203 -0.88,-0.656 -1.847,-1.428 -2.15,-1.714 -3.315,-3.143 -20.821,-13.126 -28.45,-16.224 -0.99,-0.402 -2.34,-0.967 -3,-1.255 -1.224,-0.535 -10.675,-3.723 -13.634,-4.6 -2.239,-0.664 -2.91,-0.442 -3.908,1.291 -0.472,0.82 -1.826,3.07 -3.009,5 -1.184,1.93 -2.601,4.319 -3.15,5.309 -0.549,0.99 -1.156,1.971 -1.348,2.18 -0.589,0.638 -0.392,1.754 0.349,1.977 0.385,0.116 2.5,0.684 4.7,1.263 3.802,1 7.857,2.252 9.6,2.964 0.44,0.179 2.51,1.003 4.6,1.83 35.231,13.94 64.448,47.932 72.017,83.786 0.582,2.758 1.914,9.858 2.438,13 0.74,4.431 0.735,25.55 -0.006,30.2 -1.136,7.12 -2.362,13.159 -3.453,17 -0.375,1.32 -0.821,2.94 -0.992,3.6 -1.454,5.639 -7.445,19.395 -10.673,24.508 -0.732,1.159 -1.331,2.205 -1.331,2.323 0,0.252 -5.595,8.672 -5.959,8.969 -0.135,0.11 -0.775,0.92 -1.421,1.8 -13.51,18.386 -35.493,34.122 -57.82,41.391 -7.598,2.473 -10.094,3.093 -19.2,4.767 -10.241,1.883 -28.159,1.883 -38.4,0 -5.902,-1.085 -10.017,-1.976 -13,-2.815 -2.379,-0.669 -9.88,-3.109 -10.8,-3.514 -0.44,-0.193 -2.06,-0.859 -3.6,-1.479 -4.069,-1.638 -10.695,-4.964 -14.564,-7.31 -1.85,-1.122 -3.418,-2.04 -3.485,-2.04 -0.302,0 -7.508,-5.185 -10.751,-7.737 -4.198,-3.303 -9.293,-8.061 -13.604,-12.705 C 95.843,266.837 85.516,246.27 81.291,224 c -1.732,-9.128 -1.872,-10.809 -1.872,-22.6 0,-11.418 0.134,-13.182 1.635,-21.6 2.323,-13.033 8.301,-29.457 14.015,-38.508 0.732,-1.159 1.331,-2.205 1.331,-2.323 0,-0.495 5.945,-9.044 8.673,-12.472 8.948,-11.244 22.989,-23.617 32.727,-28.839 0.88,-0.471 2.68,-1.49 4,-2.263 3.243,-1.899 8.182,-4.213 13.6,-6.373 1.54,-0.613 3.16,-1.262 3.6,-1.44 1.798,-0.73 5.832,-1.97 9.6,-2.951 6.576,-1.713 6.386,-1.455 3.932,-5.339 -0.733,-1.159 -1.332,-2.184 -1.332,-2.278 0,-0.094 -1.366,-2.341 -3.035,-4.992 C 164.915,66.86 164.7,66.706 162,67.626 M 167.432,72 c 1.395,2.31 2.724,4.417 2.953,4.683 0.228,0.266 0.415,0.589 0.415,0.719 0,0.13 0.63,1.221 1.4,2.425 1.967,3.075 2.255,2.762 -3.8,4.136 -1.703,0.386 -11.58,3.712 -13.8,4.646 -5.927,2.495 -13.318,6.172 -16.8,8.359 -14.414,9.051 -24.624,18.112 -34.068,30.232 -2.673,3.431 -7.732,10.991 -7.732,11.555 0,0.245 -0.135,0.446 -0.3,0.448 -0.165,0.002 -0.504,0.407 -0.752,0.9 -0.249,0.493 -1.779,3.519 -3.4,6.723 -1.622,3.204 -3.188,6.444 -3.482,7.2 -0.293,0.756 -0.685,1.734 -0.871,2.174 -1.011,2.396 -2.395,6.194 -2.395,6.574 0,0.24 -0.158,0.749 -0.351,1.131 -0.539,1.067 -1.389,4.093 -2.838,10.095 -2.757,11.422 -3.849,25.919 -2.787,36.982 1.191,12.392 3.045,20.824 7.041,32.018 1.682,4.712 1.804,4.998 4.968,11.6 1.37,2.86 3.093,6.148 3.829,7.308 0.736,1.159 1.338,2.214 1.338,2.345 0,0.131 1.281,2.152 2.847,4.492 12.768,19.079 31.649,34.952 52.153,43.843 0.88,0.381 1.96,0.85 2.4,1.042 2.664,1.159 8.378,3.15 13.6,4.739 2.193,0.667 8.369,2.106 10.6,2.47 9.752,1.591 13.787,1.94 22.4,1.94 8.613,0 12.648,-0.349 22.4,-1.94 2.203,-0.359 8.344,-1.788 10.6,-2.466 2.802,-0.842 10.064,-3.239 10.8,-3.565 0.44,-0.194 1.475,-0.636 2.3,-0.981 22.845,-9.55 41.361,-24.716 55.042,-45.082 1.572,-2.34 2.858,-4.455 2.858,-4.7 0,-0.245 0.135,-0.446 0.3,-0.448 0.165,-0.002 0.501,-0.407 0.747,-0.9 0.246,-0.493 1.692,-3.327 3.213,-6.297 2.437,-4.759 3.355,-6.738 4.547,-9.8 0.171,-0.44 0.579,-1.43 0.906,-2.2 0.327,-0.77 0.821,-2.12 1.096,-3 0.276,-0.88 0.632,-1.96 0.791,-2.4 0.505,-1.398 1.12,-3.521 1.796,-6.2 0.36,-1.43 0.822,-3.23 1.026,-4 2.578,-9.744 3.854,-26.874 2.766,-37.123 -0.869,-8.188 -1.126,-9.762 -3.179,-19.477 -0.186,-0.88 -0.641,-2.59 -1.012,-3.8 -0.37,-1.21 -0.767,-2.697 -0.881,-3.305 -0.115,-0.608 -0.367,-1.203 -0.562,-1.324 -0.195,-0.12 -0.354,-0.551 -0.354,-0.958 0,-0.407 -0.911,-3.014 -2.023,-5.794 -7.888,-19.7 -19.626,-35.838 -35.977,-49.462 -3.541,-2.951 -8.68,-6.757 -9.124,-6.757 -0.225,0 -0.469,-0.136 -0.543,-0.302 -0.625,-1.416 -14.348,-8.717 -22.733,-12.094 -1.21,-0.488 -2.56,-1.039 -3,-1.225 -1.268,-0.537 -4.4,-1.5 -11.6,-3.569 -0.66,-0.189 -1.785,-0.463 -2.5,-0.609 -1.592,-0.324 -1.598,-0.174 0.1,-2.828 0.77,-1.204 1.4,-2.267 1.4,-2.364 0,-0.096 1.26,-2.171 2.8,-4.609 1.54,-2.438 2.8,-4.587 2.8,-4.774 0,-0.574 1.16,-0.824 2.105,-0.454 0.492,0.193 2.515,0.829 4.495,1.413 1.98,0.585 3.96,1.217 4.4,1.407 0.44,0.189 2.15,0.836 3.8,1.438 29.043,10.597 55.954,33.949 71.413,61.97 2.507,4.545 6.229,12.339 7.353,15.4 0.283,0.77 0.662,1.76 0.842,2.2 1.097,2.677 2.392,6.515 2.392,7.085 0,0.367 0.156,0.764 0.346,0.882 0.19,0.117 0.458,0.803 0.595,1.523 0.137,0.721 0.538,2.3 0.892,3.51 1.546,5.287 3.196,13.311 3.783,18.4 2.055,17.823 1.293,33.226 -2.455,49.6 -1.55,6.776 -4.773,16.881 -6.408,20.095 -0.194,0.382 -0.353,0.87 -0.353,1.084 0,0.215 -0.823,2.152 -1.829,4.306 -1.006,2.153 -2.124,4.545 -2.484,5.315 -3.084,6.596 -14.672,24.181 -17.66,26.8 -0.126,0.11 -0.833,0.92 -1.573,1.8 -4.672,5.562 -14.233,14.462 -20.941,19.494 -3.55,2.664 -12.461,8.706 -12.839,8.706 -0.114,0 -1.528,0.77 -3.141,1.712 -2.86,1.67 -8.921,4.709 -12.133,6.084 -0.88,0.377 -1.96,0.842 -2.4,1.034 -5.894,2.565 -17.747,6.226 -24.4,7.536 -1.32,0.26 -3.21,0.637 -4.2,0.839 -14.883,3.032 -31.251,2.901 -51,-0.408 -6.217,-1.042 -20.145,-5.245 -26.4,-7.967 -0.44,-0.192 -1.52,-0.658 -2.4,-1.037 -3.555,-1.53 -9.367,-4.436 -12.133,-6.065 -1.613,-0.95 -3.034,-1.728 -3.157,-1.728 -0.84,0 -14.419,-9.711 -18.71,-13.381 -5.392,-4.611 -13.707,-12.984 -16.8,-16.917 -0.44,-0.559 -1.34,-1.679 -2,-2.488 -0.66,-0.81 -1.56,-1.972 -2,-2.583 -0.44,-0.611 -1.312,-1.768 -1.939,-2.571 -1.378,-1.766 -6.261,-9.154 -6.261,-9.472 0,-0.124 -0.597,-1.163 -1.327,-2.307 -1.303,-2.044 -7.073,-13.454 -7.073,-13.987 0,-0.15 -0.433,-1.222 -0.961,-2.383 -0.529,-1.161 -1.45,-3.461 -2.048,-5.111 -0.597,-1.65 -1.225,-3.36 -1.396,-3.8 -0.697,-1.796 -2.793,-9.239 -3.549,-12.6 -2.109,-9.373 -2.579,-12.769 -3.304,-23.864 -0.877,-13.431 0.598,-28.709 4.071,-42.136 0.58,-2.246 2.443,-8.527 2.787,-9.4 0.173,-0.44 0.618,-1.7 0.989,-2.8 0.72,-2.138 1.289,-3.576 1.858,-4.695 0.194,-0.382 0.353,-0.87 0.353,-1.084 0,-0.215 0.823,-2.152 1.829,-4.306 1.006,-2.153 2.124,-4.545 2.484,-5.315 6.478,-13.852 19.542,-30.595 32.887,-42.148 5.949,-5.151 19.006,-14.652 20.135,-14.652 0.137,0 1.198,-0.599 2.357,-1.331 1.948,-1.23 9.299,-4.917 12.808,-6.425 0.825,-0.354 2.085,-0.9 2.8,-1.214 0.715,-0.313 2.38,-0.956 3.7,-1.428 1.32,-0.472 2.76,-1.015 3.2,-1.207 0.44,-0.191 2.42,-0.826 4.4,-1.411 1.98,-0.584 3.96,-1.215 4.4,-1.401 1.445,-0.611 1.867,-0.228 4.432,4.017 M 194,171.441 c -11.612,2.505 -19.325,9.757 -23.569,22.159 -1.719,5.024 -0.75,15.098 1.995,20.748 14.252,29.329 57.821,19.563 57.763,-12.948 C 230.154,181.751 212.801,167.386 194,171.441 m 10,0.352 c 10.341,1.762 17.587,6.767 22.338,15.43 1.14,2.078 1.459,2.912 2.904,7.577 0.765,2.469 0.665,10.697 -0.164,13.6 -1.109,3.881 -1.365,4.558 -2.616,6.908 -1.695,3.186 -4.515,6.759 -6.765,8.571 -1.039,0.837 -2.197,1.791 -2.573,2.121 -0.633,0.555 -4.269,2.462 -6.124,3.211 -6.71,2.71 -15.692,2.673 -22.2,-0.091 -1.871,-0.795 -4.198,-2.037 -4.831,-2.579 -0.348,-0.298 -0.751,-0.541 -0.897,-0.541 -0.82,0 -5.231,-4.359 -7.362,-7.273 -3.768,-5.156 -5.404,-10.4 -5.404,-17.327 0,-4.509 0.233,-6 1.625,-10.4 1.162,-3.675 5.238,-9.555 8.372,-12.079 1.039,-0.837 2.197,-1.791 2.573,-2.121 0.627,-0.55 4.203,-2.428 6.124,-3.216 2.468,-1.013 7.927,-2.211 10.6,-2.327 0.55,-0.024 2.53,0.218 4.4,0.536 m 20.864,54.163 c -13.315,13.883 -35.513,14.035 -49.523,0.34 l -2.86,-2.795 -2.94,2.328 c -1.618,1.28 -3.031,2.431 -3.141,2.558 -0.11,0.126 -11.428,9.226 -25.152,20.221 -13.724,10.996 -26.414,21.166 -28.2,22.602 -3.881,3.118 -3.846,2.861 -0.853,6.265 45.718,52.002 124.929,53.807 172.22,3.925 3.454,-3.643 6.385,-7.082 6.385,-7.491 0,-0.422 -0.118,-0.301 -3.6,3.692 -4.021,4.611 -9.824,10.25 -13.8,13.41 -1.1,0.874 -2.09,1.691 -2.2,1.815 -0.333,0.376 -8.049,5.718 -10.379,7.186 -4.824,3.039 -17.24,9.188 -18.552,9.188 -0.28,0 -0.68,0.153 -0.889,0.339 -1.295,1.156 -15.377,5.02 -21.98,6.032 -6.571,1.007 -8.807,1.224 -13.6,1.323 l -5.2,0.106 -0.324,-39.179 c -0.178,-21.548 -0.226,-39.566 -0.107,-40.04 0.192,-0.766 0.582,-0.89 3.524,-1.125 3.268,-0.261 6.799,-1.015 7.354,-1.57 0.158,-0.157 0.583,-0.286 0.945,-0.286 2.913,0 15.608,-9.092 15.608,-11.178 0,-0.551 0.171,-0.697 -2.736,2.334"
       stroke="none"
       fill="#8e6cc2"
       fill-rule="evenodd" />
    <path
       id="path3"
       d="m 225.4,226.158 c -4.053,4.124 -11.063,8.642 -13.408,8.642 -0.362,0 -0.787,0.129 -0.945,0.286 -0.555,0.555 -4.086,1.309 -7.354,1.57 -2.942,0.235 -3.332,0.359 -3.524,1.125 -0.119,0.474 -0.071,18.492 0.107,40.04 L 200.6,317 l 5.2,-0.106 c 9.862,-0.202 20.177,-2.088 31.2,-5.704 2.2,-0.721 4.171,-1.464 4.38,-1.651 0.209,-0.186 0.609,-0.339 0.889,-0.339 1.312,0 13.728,-6.149 18.552,-9.188 2.33,-1.468 10.046,-6.81 10.379,-7.186 0.11,-0.124 1.1,-0.941 2.2,-1.815 3.998,-3.178 9.809,-8.828 13.8,-13.42 1.43,-1.645 2.735,-3.051 2.9,-3.124 1.041,-0.463 -0.49,-2.06 -6.583,-6.867 -3.764,-2.97 -9.651,-7.621 -13.081,-10.336 -3.43,-2.714 -8.326,-6.584 -10.881,-8.6 -2.555,-2.015 -10.565,-8.356 -17.8,-14.091 -7.235,-5.736 -13.335,-10.525 -13.555,-10.643 -0.22,-0.118 -1.48,0.885 -2.8,2.228"
       stroke="none"
       fill="#fd68d0"
       fill-rule="evenodd" />
    <path
       id="path4"
       d="m 257.2,100.421 c 1.042,0.709 2.8,1.607 2.8,1.429 0,-0.222 -2.761,-1.852 -3.123,-1.844 -0.152,0.003 -0.007,0.19 0.323,0.415 m 8.8,5.325 c 0,0.11 0.54,0.584 1.2,1.054 0.66,0.47 1.2,0.764 1.2,0.654 0,-0.11 -0.54,-0.584 -1.2,-1.054 -0.66,-0.47 -1.2,-0.764 -1.2,-0.654 m 8.4,6.379 c 0,0.069 0.585,0.654 1.3,1.3 l 1.3,1.175 -1.175,-1.3 c -1.095,-1.212 -1.425,-1.484 -1.425,-1.175 m 7.6,7.275 c 2.523,2.53 4.677,4.6 4.787,4.6 0.11,0 -1.864,-2.07 -4.387,-4.6 -2.523,-2.53 -4.677,-4.6 -4.787,-4.6 -0.11,0 1.864,2.07 4.387,4.6 m 12.4,14.6 c 0.47,0.66 0.944,1.2 1.054,1.2 0.11,0 -0.184,-0.54 -0.654,-1.2 -0.47,-0.66 -0.944,-1.2 -1.054,-1.2 -0.11,0 0.184,0.54 0.654,1.2 m -76.6,37.007 c 0.44,0.359 1.16,0.828 1.6,1.044 l 0.8,0.393 -0.8,-0.651 c -0.44,-0.359 -1.16,-0.828 -1.6,-1.044 l -0.8,-0.393 0.8,0.651 m 4.2,2.703 c 0,0.061 1.395,1.456 3.1,3.1 l 3.1,2.99 -2.99,-3.1 c -2.777,-2.879 -3.21,-3.283 -3.21,-2.99 m 90.767,0.652 c -0.179,1.032 0.251,0.895 -10.367,3.294 -2.09,0.472 -6.41,1.464 -9.6,2.204 -3.19,0.741 -7.78,1.805 -10.2,2.366 -2.42,0.561 -5.93,1.378 -7.8,1.816 -7.63,1.787 -12.88,2.997 -20.6,4.747 -4.46,1.011 -11.765,2.705 -15.785,3.662 -3.268,0.777 -3.404,0.78 -3.941,0.077 -0.529,-0.692 -0.546,-0.689 -0.331,0.072 2.561,9.057 0.33,21.233 -5.321,29.033 -0.681,0.941 -1.1,1.829 -0.93,1.974 0.463,0.396 31,24.553 39.165,30.983 11.361,8.945 23.185,18.418 23.448,18.785 1.079,1.503 12.018,-16.083 16.43,-26.415 4.279,-10.021 7.019,-20.264 8.496,-31.76 0.827,-6.432 0.605,-25.03 -0.364,-30.6 -1.639,-9.412 -2.093,-11.433 -2.3,-10.238 M 228.8,181.2 c 0.47,0.66 0.944,1.2 1.054,1.2 0.11,0 -0.184,-0.54 -0.654,-1.2 -0.47,-0.66 -0.944,-1.2 -1.054,-1.2 -0.11,0 0.184,0.54 0.654,1.2"
       stroke="none"
       fill="#f74344"
       fill-rule="evenodd" />
    <path
       id="path5"
       d="m 176.291,87.887 c 0.569,0.105 1.424,1.027 2.361,2.545 0.808,1.309 1.547,2.302 1.642,2.208 0.501,-0.502 -2.971,-4.842 -3.902,-4.879 -0.857,-0.033 -0.871,-0.016 -0.101,0.126 m 43.677,4.413 c -1.588,2.585 -3.827,6.23 -4.976,8.1 -1.149,1.87 -3.221,5.29 -4.603,7.6 -1.383,2.31 -2.789,4.65 -3.125,5.2 -0.336,0.55 -0.42,0.82 -0.187,0.6 0.444,-0.419 5.323,-8.122 5.323,-8.404 0,-0.089 1.234,-2.116 2.741,-4.503 1.508,-2.387 2.813,-4.519 2.9,-4.737 0.961,-2.399 5.092,-8.144 5.954,-8.279 L 225,87.72 223.927,87.66 c -0.958,-0.054 -1.38,0.44 -3.959,4.64 m -47.368,-3.9 -0.8,0.344 h 0.8 c 0.44,0 1.16,-0.155 1.6,-0.344 l 0.8,-0.344 h -0.8 c -0.44,0 -1.16,0.155 -1.6,0.344 m 53.4,0 c 0.33,0.213 0.96,0.378 1.4,0.366 l 0.8,-0.022 -0.8,-0.344 c -1.196,-0.514 -2.195,-0.514 -1.4,0 m -57.4,1.011 c -0.88,0.29 -1.33,0.539 -1,0.552 0.33,0.014 1.41,-0.23 2.4,-0.542 0.99,-0.312 1.44,-0.561 1,-0.552 -0.44,0.008 -1.52,0.252 -2.4,0.542 m 61.4,0.01 c 0.99,0.312 2.07,0.558 2.4,0.546 0.33,-0.011 -0.21,-0.276 -1.2,-0.588 -0.99,-0.312 -2.07,-0.558 -2.4,-0.546 -0.33,0.011 0.21,0.276 1.2,0.588 M 162.8,91.2 c -0.533,0.345 -0.533,0.388 0,0.388 0.33,0 0.87,-0.175 1.2,-0.388 0.533,-0.345 0.533,-0.388 0,-0.388 -0.33,0 -0.87,0.175 -1.2,0.388 m 73.2,0 c 0.33,0.213 0.87,0.388 1.2,0.388 0.533,0 0.533,-0.043 0,-0.388 -0.33,-0.213 -0.87,-0.388 -1.2,-0.388 -0.533,0 -0.533,0.043 0,0.388 m -77.2,1.416 c -1.21,0.521 -2.02,0.955 -1.8,0.965 0.425,0.02 4.685,-1.538 4.967,-1.816 0.442,-0.438 -1.194,0.002 -3.167,0.851 m 81.368,0.001 c 1.302,0.541 2.562,0.975 2.8,0.966 0.238,-0.009 -0.634,-0.459 -1.936,-1 -1.302,-0.541 -2.562,-0.975 -2.8,-0.966 -0.238,0.009 0.634,0.459 1.936,1 m 3.432,1.164 c 0,0.162 0.694,0.492 4.9,2.333 1.476,0.646 1.478,0.64 -1.545,6.958 -1.455,3.04 -3.413,7.148 -4.351,9.128 -0.937,1.98 -2.964,6.21 -4.503,9.4 -1.54,3.19 -3.565,7.42 -4.501,9.4 -2.79,5.903 -7.512,15.775 -13.393,28 -1.482,3.08 -3.13,6.545 -3.663,7.7 -1.104,2.397 -1.509,2.515 -4.381,1.284 -1.047,-0.449 -2.168,-0.764 -2.491,-0.7 -0.323,0.064 0.958,0.629 2.847,1.256 9.637,3.199 17.679,11.438 21.049,21.563 1.118,3.36 0.941,3.276 4.913,2.332 3.99,-0.949 11.323,-2.65 15.719,-3.646 5.206,-1.181 12.159,-2.778 15.8,-3.631 1.87,-0.438 4.48,-1.047 5.8,-1.354 1.32,-0.307 4.29,-0.998 6.6,-1.536 3.841,-0.895 12.108,-2.801 20.2,-4.658 1.76,-0.404 4.64,-1.053 6.4,-1.443 4.058,-0.897 4.064,-0.904 3.439,-3.464 -0.774,-3.17 -2.902,-10.043 -3.622,-11.703 -0.191,-0.44 -0.923,-2.24 -1.625,-4 -7.504,-18.803 -21.065,-36.049 -38.792,-49.331 -6.807,-5.101 -24.8,-15.176 -24.8,-13.888 m -91.8,1.804 c -1.32,0.631 -2.22,1.156 -2,1.168 0.22,0.012 1.48,-0.5 2.8,-1.138 1.32,-0.638 2.22,-1.164 2,-1.168 -0.22,-0.004 -1.48,0.508 -2.8,1.138 m 29.45,-0.967 c 0.321,0.893 4.477,7.389 4.63,7.236 0.089,-0.089 -0.779,-1.668 -1.928,-3.508 -2.029,-3.249 -3.021,-4.618 -2.702,-3.728 m 5.55,9.081 c 0,0.335 4.771,7.975 5.308,8.501 0.568,0.555 0.184,-0.14 -2.431,-4.4 -2.255,-3.674 -2.877,-4.56 -2.877,-4.101 m 5.624,9.236 c -0.173,2.456 6.287,6.508 8.785,5.511 0.867,-0.346 0.752,-0.398 -0.922,-0.421 -3.167,-0.042 -5.329,-1.41 -7.363,-4.663 -0.263,-0.419 -0.488,-0.611 -0.5,-0.427 m 13.216,2.609 c -0.448,0.629 -1.405,1.435 -2.127,1.791 -0.722,0.356 -1.06,0.651 -0.751,0.656 0.742,0.012 3.116,-1.815 3.647,-2.807 0.623,-1.164 0.163,-0.949 -0.769,0.36 m -8.34,50.753 c 1.485,0.077 3.915,0.077 5.4,0 1.485,-0.077 0.27,-0.14 -2.7,-0.14 -2.97,0 -4.185,0.063 -2.7,0.14 m -5.5,0.503 -0.8,0.344 0.8,-0.012 c 0.44,-0.006 1.25,-0.156 1.8,-0.332 l 1,-0.32 -1,-0.012 c -0.55,-0.006 -1.36,0.143 -1.8,0.332 m 14.6,0 c 0.55,0.176 1.36,0.326 1.8,0.332 l 0.8,0.012 -0.8,-0.344 c -0.44,-0.189 -1.25,-0.338 -1.8,-0.332 l -1,0.012 1,0.32 m -19.2,1.416 c -2.88,1.239 -2.114,1.238 1.2,-0.002 1.43,-0.535 2.24,-0.966 1.8,-0.958 -0.44,0.007 -1.79,0.44 -3,0.96"
       stroke="none"
       fill="#faa048"
       fill-rule="evenodd" />
    <path
       id="path6"
       d="m 170.8,89.203 c -2.31,0.61 -5.1,1.411 -6.2,1.78 -3.126,1.048 -7.481,2.642 -8.8,3.221 -2.911,1.278 -6.012,2.704 -6.15,2.828 -0.082,0.074 0.397,1.267 1.066,2.651 1.964,4.065 9.083,18.719 12.98,26.717 1.983,4.07 4.64,9.56 5.906,12.2 1.265,2.64 4.229,8.76 6.588,13.6 2.359,4.84 5.183,10.645 6.277,12.9 1.093,2.255 2.059,4.1 2.145,4.1 0.087,0 1.11,-0.378 2.273,-0.841 7.546,-3.001 18.764,-3.091 25.664,-0.207 2.483,1.039 2.921,0.88 3.995,-1.452 0.533,-1.155 2.181,-4.62 3.663,-7.7 5.881,-12.225 10.603,-22.097 13.393,-28 0.936,-1.98 2.961,-6.21 4.501,-9.4 1.539,-3.19 3.566,-7.42 4.503,-9.4 0.938,-1.98 2.896,-6.088 4.351,-9.128 3.067,-6.41 3.046,-6.303 1.345,-7.04 -0.715,-0.309 -2.2,-0.964 -3.3,-1.454 -5.688,-2.536 -16.63,-5.963 -20.6,-6.452 -1.391,-0.172 -3.339,2.317 -6.629,8.471 -0.236,0.442 -1.393,2.333 -2.571,4.203 -1.178,1.87 -2.335,3.763 -2.571,4.207 -1.925,3.617 -7.045,11.262 -8.02,11.975 -4.013,2.934 -9.405,1.446 -11.83,-3.264 -0.317,-0.615 -1.792,-3.061 -3.277,-5.435 -1.486,-2.374 -2.702,-4.391 -2.702,-4.483 0,-0.092 -1.26,-2.162 -2.8,-4.6 -1.54,-2.438 -2.8,-4.51 -2.8,-4.604 0,-0.093 -0.918,-1.615 -2.04,-3.383 -2.384,-3.755 -2.054,-3.675 -8.36,-2.01"
       stroke="none"
       fill="#ecd83b"
       fill-rule="evenodd" />
    <path
       id="path7"
       d="m 78.5,0.298 c -2.564,0.104 -3.3,0.264 -3.3,0.718 0,0.456 -0.612,0.584 -2.8,0.584 -1.6,0 -2.8,0.171 -2.8,0.4 0,0.222 -1.067,0.4 -2.4,0.4 -1.333,0 -2.4,0.178 -2.4,0.4 0,0.22 -0.63,0.4 -1.4,0.4 -0.978,0 -1.4,0.181 -1.4,0.6 0,0.444 -0.467,0.6 -1.8,0.6 -0.99,0 -1.8,0.18 -1.8,0.4 0,0.22 -0.45,0.4 -1,0.4 -0.55,0 -1,0.18 -1,0.4 C 56.4,5.82 55.77,6 55,6 54.022,6 53.6,6.181 53.6,6.6 53.6,6.933 53.244,7.2 52.8,7.2 52.36,7.2 52,7.38 52,7.6 52,7.82 51.37,8 50.6,8 c -0.77,0 -1.4,0.18 -1.4,0.4 0,0.22 -0.45,0.4 -1,0.4 -0.622,0 -1,0.227 -1,0.6 0,0.373 -0.378,0.6 -1,0.6 -0.55,0 -1,0.18 -1,0.4 0,0.22 -0.36,0.4 -0.8,0.4 -0.44,0 -0.8,0.18 -0.8,0.4 0,0.22 -0.27,0.4 -0.6,0.4 -0.33,0 -0.6,0.27 -0.6,0.6 0,0.333 -0.356,0.6 -0.8,0.6 -0.44,0 -0.8,0.18 -0.8,0.4 0,0.22 -0.373,0.4 -0.829,0.4 -0.885,0 -1.971,0.866 -1.971,1.571 0,0.236 -0.41,0.429 -0.912,0.429 -0.501,0 -1.171,0.36 -1.488,0.8 -0.317,0.44 -0.807,0.8 -1.088,0.8 -0.282,0 -0.512,0.193 -0.512,0.429 0,0.647 -1.058,1.571 -1.8,1.571 -0.647,0 -1.8,0.897 -1.8,1.4 0,0.334 -1.066,1.4 -1.4,1.4 -0.334,0 -1.4,1.066 -1.4,1.4 0,0.557 -1.187,1.4 -1.971,1.4 -0.572,0 -0.829,0.257 -0.829,0.829 0,0.784 -0.843,1.971 -1.4,1.971 -0.334,0 -1.4,1.066 -1.4,1.4 0,0.334 -1.066,1.4 -1.4,1.4 -0.415,0 -1.4,1.105 -1.4,1.571 0,0.236 -0.18,0.429 -0.4,0.429 -0.22,0 -0.4,0.36 -0.4,0.8 0,0.444 -0.267,0.8 -0.6,0.8 -0.33,0 -0.6,0.23 -0.6,0.512 0,0.281 -0.36,0.771 -0.8,1.088 -0.44,0.317 -0.8,0.987 -0.8,1.488 0,0.502 -0.193,0.912 -0.429,0.912 -0.705,0 -1.571,1.086 -1.571,1.971 0,0.456 -0.18,0.829 -0.4,0.829 -0.22,0 -0.4,0.36 -0.4,0.8 0,0.444 -0.267,0.8 -0.6,0.8 -0.33,0 -0.6,0.27 -0.6,0.6 0,0.33 -0.18,0.6 -0.4,0.6 -0.22,0 -0.4,0.36 -0.4,0.8 0,0.44 -0.18,0.8 -0.4,0.8 -0.22,0 -0.4,0.45 -0.4,1 0,0.622 -0.227,1 -0.6,1 -0.373,0 -0.6,0.378 -0.6,1 0,0.55 -0.18,1 -0.4,1 C 8.18,49.2 8,49.83 8,50.6 8,51.37 7.82,52 7.6,52 c -0.22,0 -0.4,0.36 -0.4,0.8 0,0.444 -0.267,0.8 -0.6,0.8 -0.373,0 -0.6,0.378 -0.6,1 0,0.55 -0.18,1 -0.4,1 -0.22,0 -0.4,0.63 -0.4,1.4 0,0.77 -0.18,1.4 -0.4,1.4 -0.22,0 -0.4,0.81 -0.4,1.8 0,1.333 -0.156,1.8 -0.6,1.8 -0.419,0 -0.6,0.422 -0.6,1.4 0,0.77 -0.18,1.4 -0.4,1.4 -0.222,0 -0.4,1.067 -0.4,2.4 0,1.333 -0.178,2.4 -0.4,2.4 -0.229,0 -0.4,1.2 -0.4,2.8 0,2.08 -0.138,2.8 -0.539,2.8 C 0.071,75.2 0,83.541 0,200 c 0,116.459 0.071,124.8 1.061,124.8 0.401,0 0.539,0.72 0.539,2.8 0,1.6 0.171,2.8 0.4,2.8 0.222,0 0.4,1.067 0.4,2.4 0,1.333 0.178,2.4 0.4,2.4 0.22,0 0.4,0.63 0.4,1.4 0,0.978 0.181,1.4 0.6,1.4 0.444,0 0.6,0.467 0.6,1.8 0,0.99 0.18,1.8 0.4,1.8 0.22,0 0.4,0.63 0.4,1.4 0,0.77 0.18,1.4 0.4,1.4 0.22,0 0.4,0.45 0.4,1 0,0.622 0.227,1 0.6,1 0.333,0 0.6,0.356 0.6,0.8 0,0.44 0.18,0.8 0.4,0.8 0.22,0 0.4,0.63 0.4,1.4 0,0.77 0.18,1.4 0.4,1.4 0.22,0 0.4,0.45 0.4,1 0,0.622 0.227,1 0.6,1 0.373,0 0.6,0.378 0.6,1 0,0.55 0.18,1 0.4,1 0.22,0 0.4,0.36 0.4,0.8 0,0.44 0.18,0.8 0.4,0.8 0.22,0 0.4,0.27 0.4,0.6 0,0.33 0.27,0.6 0.6,0.6 0.333,0 0.6,0.356 0.6,0.8 0,0.44 0.18,0.8 0.4,0.8 0.22,0 0.4,0.373 0.4,0.829 0,0.885 0.866,1.971 1.571,1.971 0.236,0 0.429,0.41 0.429,0.912 0,0.501 0.36,1.171 0.8,1.488 0.44,0.317 0.8,0.807 0.8,1.088 0,0.282 0.27,0.512 0.6,0.512 0.333,0 0.6,0.356 0.6,0.8 0,0.44 0.18,0.8 0.4,0.8 0.22,0 0.4,0.193 0.4,0.429 0,0.466 0.985,1.571 1.4,1.571 0.334,0 1.4,1.066 1.4,1.4 0,0.334 1.066,1.4 1.4,1.4 0.334,0 1.4,1.066 1.4,1.4 0,0.334 1.066,1.4 1.4,1.4 0.334,0 1.4,1.066 1.4,1.4 0,0.334 1.066,1.4 1.4,1.4 0.334,0 1.4,1.066 1.4,1.4 0,0.503 1.153,1.4 1.8,1.4 0.742,0 1.8,0.924 1.8,1.571 0,0.236 0.23,0.429 0.512,0.429 0.281,0 0.771,0.36 1.088,0.8 0.317,0.44 0.987,0.8 1.488,0.8 0.544,0 0.912,0.242 0.912,0.6 0,0.333 0.356,0.6 0.8,0.6 0.44,0 0.8,0.18 0.8,0.4 0,0.22 0.27,0.4 0.6,0.4 0.33,0 0.6,0.18 0.6,0.4 0,0.22 0.36,0.4 0.8,0.4 0.444,0 0.8,0.267 0.8,0.6 0,0.33 0.27,0.6 0.6,0.6 0.33,0 0.6,0.18 0.6,0.4 0,0.22 0.36,0.4 0.8,0.4 0.44,0 0.8,0.18 0.8,0.4 0,0.22 0.45,0.4 1,0.4 0.622,0 1,0.227 1,0.6 0,0.373 0.378,0.6 1,0.6 0.55,0 1,0.18 1,0.4 0,0.22 0.63,0.4 1.4,0.4 0.77,0 1.4,0.18 1.4,0.4 0,0.22 0.36,0.4 0.8,0.4 0.444,0 0.8,0.267 0.8,0.6 0,0.419 0.422,0.6 1.4,0.6 0.77,0 1.4,0.18 1.4,0.4 0,0.22 0.63,0.4 1.4,0.4 0.77,0 1.4,0.18 1.4,0.4 0,0.22 0.63,0.4 1.4,0.4 0.978,0 1.4,0.181 1.4,0.6 0,0.419 0.422,0.6 1.4,0.6 0.77,0 1.4,0.18 1.4,0.4 0,0.222 1.067,0.4 2.4,0.4 1.333,0 2.4,0.178 2.4,0.4 0,0.229 1.2,0.4 2.8,0.4 2.08,0 2.8,0.138 2.8,0.539 0,0.99 8.341,1.061 124.8,1.061 116.459,0 124.8,-0.071 124.8,-1.061 0,-0.401 0.72,-0.539 2.8,-0.539 1.6,0 2.8,-0.171 2.8,-0.4 0,-0.222 1.067,-0.4 2.4,-0.4 1.333,0 2.4,-0.178 2.4,-0.4 0,-0.22 0.63,-0.4 1.4,-0.4 0.978,0 1.4,-0.181 1.4,-0.6 0,-0.419 0.422,-0.6 1.4,-0.6 0.77,0 1.4,-0.18 1.4,-0.4 0,-0.22 0.63,-0.4 1.4,-0.4 0.77,0 1.4,-0.18 1.4,-0.4 0,-0.22 0.63,-0.4 1.4,-0.4 0.978,0 1.4,-0.181 1.4,-0.6 0,-0.333 0.356,-0.6 0.8,-0.6 0.44,0 0.8,-0.18 0.8,-0.4 0,-0.22 0.63,-0.4 1.4,-0.4 0.77,0 1.4,-0.18 1.4,-0.4 0,-0.22 0.45,-0.4 1,-0.4 0.622,0 1,-0.227 1,-0.6 0,-0.373 0.378,-0.6 1,-0.6 0.55,0 1,-0.18 1,-0.4 0,-0.22 0.36,-0.4 0.8,-0.4 0.44,0 0.8,-0.18 0.8,-0.4 0,-0.22 0.27,-0.4 0.6,-0.4 0.33,0 0.6,-0.27 0.6,-0.6 0,-0.333 0.356,-0.6 0.8,-0.6 0.44,0 0.8,-0.18 0.8,-0.4 0,-0.22 0.27,-0.4 0.6,-0.4 0.33,0 0.6,-0.18 0.6,-0.4 0,-0.22 0.36,-0.4 0.8,-0.4 0.444,0 0.8,-0.267 0.8,-0.6 0,-0.358 0.368,-0.6 0.912,-0.6 0.501,0 1.171,-0.36 1.488,-0.8 0.317,-0.44 0.807,-0.8 1.088,-0.8 0.282,0 0.512,-0.193 0.512,-0.429 0,-0.647 1.058,-1.571 1.8,-1.571 0.647,0 1.8,-0.897 1.8,-1.4 0,-0.334 1.066,-1.4 1.4,-1.4 0.334,0 1.4,-1.066 1.4,-1.4 0,-0.334 1.066,-1.4 1.4,-1.4 0.334,0 1.4,-1.066 1.4,-1.4 0,-0.334 1.066,-1.4 1.4,-1.4 0.334,0 1.4,-1.066 1.4,-1.4 0,-0.334 1.066,-1.4 1.4,-1.4 0.415,0 1.4,-1.105 1.4,-1.571 0,-0.236 0.18,-0.429 0.4,-0.429 0.22,0 0.4,-0.36 0.4,-0.8 0,-0.444 0.267,-0.8 0.6,-0.8 0.33,0 0.6,-0.23 0.6,-0.512 0,-0.281 0.36,-0.771 0.8,-1.088 0.44,-0.317 0.8,-0.987 0.8,-1.488 0,-0.502 0.193,-0.912 0.429,-0.912 0.705,0 1.571,-1.086 1.571,-1.971 0,-0.456 0.18,-0.829 0.4,-0.829 0.22,0 0.4,-0.36 0.4,-0.8 0,-0.444 0.267,-0.8 0.6,-0.8 0.33,0 0.6,-0.27 0.6,-0.6 0,-0.33 0.18,-0.6 0.4,-0.6 0.22,0 0.4,-0.36 0.4,-0.8 0,-0.44 0.18,-0.8 0.4,-0.8 0.22,0 0.4,-0.45 0.4,-1 0,-0.622 0.227,-1 0.6,-1 0.373,0 0.6,-0.378 0.6,-1 0,-0.55 0.18,-1 0.4,-1 0.22,0 0.4,-0.63 0.4,-1.4 0,-0.77 0.18,-1.4 0.4,-1.4 0.22,0 0.4,-0.36 0.4,-0.8 0,-0.444 0.267,-0.8 0.6,-0.8 0.373,0 0.6,-0.378 0.6,-1 0,-0.55 0.18,-1 0.4,-1 0.22,0 0.4,-0.81 0.4,-1.8 0,-0.99 0.18,-1.8 0.4,-1.8 0.22,0 0.4,-0.63 0.4,-1.4 0,-0.978 0.181,-1.4 0.6,-1.4 0.419,0 0.6,-0.422 0.6,-1.4 0,-0.77 0.18,-1.4 0.4,-1.4 0.222,0 0.4,-1.067 0.4,-2.4 0,-1.333 0.178,-2.4 0.4,-2.4 0.229,0 0.4,-1.2 0.4,-2.8 0,-2.08 0.138,-2.8 0.539,-2.8 0.99,0 1.061,-8.341 1.061,-124.8 0,-116.459 -0.071,-124.8 -1.061,-124.8 -0.401,0 -0.539,-0.72 -0.539,-2.8 0,-1.6 -0.171,-2.8 -0.4,-2.8 -0.222,0 -0.4,-1.067 -0.4,-2.4 0,-1.333 -0.178,-2.4 -0.4,-2.4 -0.22,0 -0.4,-0.63 -0.4,-1.4 0,-0.978 -0.181,-1.4 -0.6,-1.4 -0.444,0 -0.6,-0.467 -0.6,-1.8 0,-0.99 -0.18,-1.8 -0.4,-1.8 -0.22,0 -0.4,-0.63 -0.4,-1.4 0,-0.77 -0.18,-1.4 -0.4,-1.4 -0.22,0 -0.4,-0.45 -0.4,-1 0,-0.622 -0.227,-1 -0.6,-1 -0.333,0 -0.6,-0.356 -0.6,-0.8 0,-0.44 -0.18,-0.8 -0.4,-0.8 -0.22,0 -0.4,-0.63 -0.4,-1.4 0,-0.77 -0.18,-1.4 -0.4,-1.4 -0.22,0 -0.4,-0.45 -0.4,-1 0,-0.622 -0.227,-1 -0.6,-1 -0.373,0 -0.6,-0.378 -0.6,-1 0,-0.55 -0.18,-1 -0.4,-1 -0.22,0 -0.4,-0.36 -0.4,-0.8 0,-0.44 -0.18,-0.8 -0.4,-0.8 -0.22,0 -0.4,-0.27 -0.4,-0.6 0,-0.33 -0.27,-0.6 -0.6,-0.6 -0.333,0 -0.6,-0.356 -0.6,-0.8 0,-0.44 -0.18,-0.8 -0.4,-0.8 -0.22,0 -0.4,-0.373 -0.4,-0.829 0,-0.885 -0.866,-1.971 -1.571,-1.971 -0.236,0 -0.429,-0.41 -0.429,-0.912 0,-0.501 -0.36,-1.171 -0.8,-1.488 -0.44,-0.317 -0.8,-0.807 -0.8,-1.088 0,-0.282 -0.27,-0.512 -0.6,-0.512 -0.333,0 -0.6,-0.356 -0.6,-0.8 0,-0.44 -0.18,-0.8 -0.4,-0.8 -0.22,0 -0.4,-0.193 -0.4,-0.429 0,-0.466 -0.985,-1.571 -1.4,-1.571 -0.334,0 -1.4,-1.066 -1.4,-1.4 0,-0.334 -1.066,-1.4 -1.4,-1.4 -0.334,0 -1.4,-1.066 -1.4,-1.4 0,-0.334 -1.066,-1.4 -1.4,-1.4 -0.334,0 -1.4,-1.066 -1.4,-1.4 0,-0.334 -1.066,-1.4 -1.4,-1.4 -0.334,0 -1.4,-1.066 -1.4,-1.4 0,-0.503 -1.153,-1.4 -1.8,-1.4 -0.742,0 -1.8,-0.924 -1.8,-1.571 0,-0.236 -0.23,-0.429 -0.512,-0.429 -0.281,0 -0.771,-0.36 -1.088,-0.8 -0.317,-0.44 -0.987,-0.8 -1.488,-0.8 -0.502,0 -0.912,-0.193 -0.912,-0.429 0,-0.705 -1.086,-1.571 -1.971,-1.571 -0.456,0 -0.829,-0.18 -0.829,-0.4 0,-0.22 -0.36,-0.4 -0.8,-0.4 -0.444,0 -0.8,-0.267 -0.8,-0.6 0,-0.33 -0.27,-0.6 -0.6,-0.6 -0.33,0 -0.6,-0.18 -0.6,-0.4 0,-0.22 -0.36,-0.4 -0.8,-0.4 -0.44,0 -0.8,-0.18 -0.8,-0.4 0,-0.22 -0.45,-0.4 -1,-0.4 -0.622,0 -1,-0.227 -1,-0.6 0,-0.373 -0.378,-0.6 -1,-0.6 -0.55,0 -1,-0.18 -1,-0.4 0,-0.22 -0.63,-0.4 -1.4,-0.4 -0.77,0 -1.4,-0.18 -1.4,-0.4 0,-0.22 -0.36,-0.4 -0.8,-0.4 -0.444,0 -0.8,-0.267 -0.8,-0.6 0,-0.419 -0.422,-0.6 -1.4,-0.6 -0.77,0 -1.4,-0.18 -1.4,-0.4 0,-0.22 -0.45,-0.4 -1,-0.4 -0.55,0 -1,-0.18 -1,-0.4 0,-0.22 -0.81,-0.4 -1.8,-0.4 -1.333,0 -1.8,-0.156 -1.8,-0.6 0,-0.419 -0.422,-0.6 -1.4,-0.6 -0.77,0 -1.4,-0.18 -1.4,-0.4 0,-0.222 -1.067,-0.4 -2.4,-0.4 -1.333,0 -2.4,-0.178 -2.4,-0.4 0,-0.229 -1.2,-0.4 -2.8,-0.4 -2.08,0 -2.8,-0.138 -2.8,-0.539 0,-0.407 -1.183,-0.602 -4.863,-0.8 C 315.129,0.003 84.872,0.037 78.5,0.298 m 159.648,48.51 c 4.149,2.631 4.528,8.628 0.811,12.824 -0.691,0.78 -0.247,1.025 4.641,2.549 3.42,1.067 8.142,2.722 10,3.505 0.55,0.231 1.36,0.562 1.8,0.735 6.001,2.351 18.952,9.162 22.473,11.818 0.701,0.529 1.388,0.961 1.527,0.961 0.254,0 0.624,0.26 6.2,4.368 6.879,5.067 17.996,15.34 23.408,21.632 10.36,12.045 20.697,29.319 25.372,42.4 0.276,0.77 0.658,1.76 0.85,2.2 0.471,1.078 2.791,8.1 3.172,9.6 0.167,0.66 0.66,2.55 1.095,4.2 0.434,1.65 1.01,4.08 1.279,5.4 0.269,1.32 0.657,3.12 0.862,4 2.65,11.379 2.94,35.285 0.594,49 -0.535,3.124 -0.783,4.428 -1.827,9.6 -0.2,0.99 -0.835,3.42 -1.412,5.4 -0.576,1.98 -1.193,4.14 -1.369,4.8 -0.416,1.555 -1.952,6.17 -2.397,7.2 -0.191,0.44 -0.571,1.43 -0.847,2.2 -1.538,4.303 -6.05,13.959 -8.599,18.4 -0.821,1.43 -1.692,2.963 -1.937,3.406 -0.244,0.443 -0.849,1.371 -1.344,2.061 -0.495,0.691 -0.9,1.387 -0.9,1.548 0,0.421 -5.263,7.784 -8.567,11.985 -17.823,22.661 -42.68,39.675 -70.833,48.481 -1.76,0.551 -3.83,1.149 -4.6,1.329 -0.77,0.181 -2.84,0.679 -4.6,1.109 -3.879,0.947 -6.752,1.526 -10.2,2.057 -1.43,0.221 -3.86,0.604 -5.4,0.851 -4.234,0.68 -24.434,0.954 -29.84,0.404 -7.677,-0.781 -13.532,-1.654 -17.76,-2.646 -1.54,-0.362 -3.43,-0.803 -4.2,-0.981 -12.072,-2.794 -27.755,-9.16 -38.364,-15.571 -1.85,-1.118 -3.415,-2.033 -3.478,-2.033 -0.266,0 -9.788,-6.706 -12.358,-8.703 -8.907,-6.923 -19.32,-17.455 -25.604,-25.897 -0.656,-0.88 -1.283,-1.69 -1.396,-1.8 -0.904,-0.884 -8.8,-12.923 -8.8,-13.417 0,-0.109 -0.436,-0.89 -0.969,-1.734 -1.039,-1.646 -4.965,-9.34 -5.944,-11.649 -0.327,-0.77 -0.979,-2.263 -1.451,-3.317 -0.471,-1.054 -1.138,-2.674 -1.483,-3.6 -0.345,-0.926 -0.783,-2.043 -0.972,-2.483 -0.913,-2.118 -3.641,-11.13 -4.602,-15.2 -0.363,-1.54 -0.814,-3.43 -1.002,-4.2 -0.494,-2.022 -1.458,-7.69 -1.94,-11.4 -1.983,-15.274 -1.443,-32.831 1.423,-46.2 0.354,-1.65 0.787,-3.72 0.962,-4.6 0.823,-4.135 3.915,-14.692 5.155,-17.6 0.188,-0.44 1.102,-2.69 2.031,-5 1.997,-4.962 5.321,-11.957 7.411,-15.6 0.821,-1.43 1.692,-2.963 1.937,-3.406 0.244,-0.443 0.849,-1.371 1.344,-2.061 0.495,-0.691 0.9,-1.387 0.9,-1.548 0,-0.685 8.8,-12.551 12.597,-16.985 2.067,-2.413 13.099,-13.353 15.403,-15.274 4.647,-3.874 16.698,-12.726 17.325,-12.726 0.085,0 1.796,-0.989 3.802,-2.199 4.372,-2.635 15.438,-8.201 16.307,-8.201 0.096,0 0.938,-0.342 1.87,-0.761 2.21,-0.991 6.358,-2.496 11.096,-4.024 5.248,-1.694 4.947,-1.552 4.499,-2.12 -3.363,-4.253 -3.507,-9.303 -0.352,-12.251 2.197,-2.052 0.465,-1.963 39.075,-2.005 l 36.221,-0.039 1.905,1.208 m -73.572,5.373 c -0.635,0.969 -0.075,2.727 1.534,4.817 0.341,0.443 3.965,6.441 5.14,8.507 0.408,0.718 1.824,3.023 3.146,5.121 1.322,2.099 2.404,3.887 2.404,3.973 0,0.087 1.32,2.283 2.933,4.879 1.613,2.597 4.191,6.792 5.729,9.322 2.947,4.848 6.743,11.078 10.907,17.9 3.04,4.979 3.946,5.33 6.012,2.328 0.67,-0.975 1.219,-1.965 1.219,-2.2 0,-0.235 0.18,-0.428 0.4,-0.428 0.22,0 0.4,-0.185 0.4,-0.411 0,-0.227 1.08,-2.126 2.4,-4.221 1.32,-2.096 2.4,-3.883 2.4,-3.972 0,-0.089 1.26,-2.158 2.8,-4.596 1.54,-2.438 2.8,-4.508 2.8,-4.6 0,-0.092 1.26,-2.162 2.8,-4.6 1.54,-2.438 2.8,-4.508 2.8,-4.6 0,-0.092 1.26,-2.162 2.8,-4.6 1.54,-2.438 2.8,-4.507 2.8,-4.596 0,-0.089 1.082,-1.879 2.404,-3.978 1.322,-2.098 2.735,-4.403 3.141,-5.121 0.405,-0.718 1.605,-2.709 2.666,-4.425 1.668,-2.696 1.878,-3.266 1.55,-4.2 l -0.38,-1.08 -35.08,-0.102 -35.08,-0.102 -0.645,0.985 M 163,67.983 c -0.44,0.186 -2.42,0.817 -4.4,1.401 -1.98,0.585 -3.96,1.22 -4.4,1.411 -0.44,0.192 -1.88,0.735 -3.2,1.207 -1.32,0.472 -2.985,1.115 -3.7,1.428 -0.715,0.314 -1.975,0.86 -2.8,1.214 -3.509,1.508 -10.86,5.195 -12.808,6.425 -1.159,0.732 -2.22,1.331 -2.357,1.331 -0.411,0 -10.936,7.153 -13.735,9.335 -12.356,9.632 -22.325,20.305 -30.696,32.865 -3.062,4.594 -7.203,11.632 -8.591,14.6 -0.36,0.77 -1.478,3.162 -2.484,5.315 -1.006,2.154 -1.829,4.091 -1.829,4.306 0,0.214 -0.159,0.702 -0.353,1.084 -0.569,1.119 -1.138,2.557 -1.858,4.695 -0.371,1.1 -0.816,2.36 -0.989,2.8 -0.684,1.735 -2.789,9.197 -3.554,12.6 -2.132,9.476 -2.593,12.847 -3.304,24.136 -0.854,13.558 0.59,28.404 4.071,41.864 0.564,2.184 2.437,8.511 2.782,9.4 0.171,0.44 0.799,2.15 1.396,3.8 0.598,1.65 1.519,3.95 2.048,5.111 0.528,1.161 0.961,2.233 0.961,2.383 0,0.533 5.77,11.943 7.073,13.987 0.73,1.144 1.327,2.183 1.327,2.307 0,0.318 4.883,7.706 6.261,9.472 0.627,0.803 1.499,1.96 1.939,2.571 0.44,0.611 1.34,1.773 2,2.583 0.66,0.809 1.56,1.929 2,2.488 3.093,3.933 11.408,12.306 16.8,16.917 4.291,3.67 17.87,13.381 18.71,13.381 0.123,0 1.544,0.778 3.157,1.728 2.766,1.629 8.578,4.535 12.133,6.065 0.88,0.379 1.96,0.845 2.4,1.037 6.255,2.722 20.183,6.925 26.4,7.967 19.749,3.309 36.117,3.44 51,0.408 0.99,-0.202 2.88,-0.579 4.2,-0.839 6.653,-1.31 18.506,-4.971 24.4,-7.536 0.44,-0.192 1.52,-0.657 2.4,-1.034 3.212,-1.375 9.273,-4.414 12.133,-6.084 1.613,-0.942 3.027,-1.712 3.141,-1.712 0.378,0 9.289,-6.042 12.839,-8.706 6.708,-5.032 16.269,-13.932 20.941,-19.494 0.74,-0.88 1.447,-1.69 1.573,-1.8 2.988,-2.619 14.576,-20.204 17.66,-26.8 0.36,-0.77 1.478,-3.162 2.484,-5.315 1.006,-2.154 1.829,-4.091 1.829,-4.306 0,-0.214 0.159,-0.702 0.353,-1.084 1.635,-3.214 4.858,-13.319 6.408,-20.095 3.748,-16.374 4.51,-31.777 2.455,-49.6 -0.587,-5.089 -2.237,-13.113 -3.783,-18.4 -0.354,-1.21 -0.755,-2.789 -0.892,-3.51 -0.137,-0.72 -0.405,-1.406 -0.595,-1.523 -0.19,-0.118 -0.346,-0.515 -0.346,-0.882 0,-0.57 -1.295,-4.408 -2.392,-7.085 -0.18,-0.44 -0.559,-1.43 -0.842,-2.2 -3.597,-9.792 -12.009,-24.232 -19.922,-34.2 C 293.099,96.07 271.489,80.217 249.6,72.23 c -1.65,-0.602 -3.36,-1.249 -3.8,-1.438 -0.44,-0.19 -2.42,-0.822 -4.4,-1.407 -1.98,-0.584 -4.003,-1.22 -4.495,-1.413 -0.945,-0.37 -2.105,-0.12 -2.105,0.454 0,0.187 -1.26,2.336 -2.8,4.774 -1.54,2.438 -2.8,4.513 -2.8,4.609 0,0.097 -0.63,1.16 -1.4,2.364 -1.698,2.654 -1.692,2.504 -0.1,2.828 0.715,0.146 1.84,0.42 2.5,0.609 7.2,2.069 10.332,3.032 11.6,3.569 0.44,0.186 1.79,0.737 3,1.225 8.385,3.377 22.108,10.678 22.733,12.094 0.074,0.166 0.318,0.302 0.543,0.302 0.444,0 5.583,3.806 9.124,6.757 16.351,13.624 28.089,29.762 35.977,49.462 1.112,2.78 2.023,5.387 2.023,5.794 0,0.407 0.159,0.838 0.354,0.958 0.195,0.121 0.447,0.716 0.562,1.324 0.114,0.608 0.511,2.095 0.881,3.305 0.371,1.21 0.826,2.92 1.012,3.8 2.053,9.715 2.31,11.289 3.179,19.477 1.088,10.249 -0.188,27.379 -2.766,37.123 -0.204,0.77 -0.666,2.57 -1.026,4 -0.676,2.679 -1.291,4.802 -1.796,6.2 -0.159,0.44 -0.515,1.52 -0.791,2.4 -0.275,0.88 -0.769,2.23 -1.096,3 -0.327,0.77 -0.735,1.76 -0.906,2.2 -1.192,3.062 -2.11,5.041 -4.547,9.8 -1.521,2.97 -2.967,5.804 -3.213,6.297 -0.246,0.493 -0.582,0.898 -0.747,0.9 -0.165,0.002 -0.3,0.203 -0.3,0.448 0,0.245 -1.286,2.36 -2.858,4.7 -13.681,20.366 -32.197,35.532 -55.042,45.082 -0.825,0.345 -1.86,0.787 -2.3,0.981 -0.736,0.326 -7.998,2.723 -10.8,3.565 -2.256,0.678 -8.397,2.107 -10.6,2.466 -9.752,1.591 -13.787,1.94 -22.4,1.94 -8.613,0 -12.648,-0.349 -22.4,-1.94 -2.231,-0.364 -8.407,-1.803 -10.6,-2.47 -5.222,-1.589 -10.936,-3.58 -13.6,-4.739 -0.44,-0.192 -1.52,-0.661 -2.4,-1.042 -20.504,-8.891 -39.385,-24.764 -52.153,-43.843 -1.566,-2.34 -2.847,-4.361 -2.847,-4.492 0,-0.131 -0.602,-1.186 -1.338,-2.345 -1.511,-2.381 -6.061,-11.688 -7.483,-15.308 -1.555,-3.955 -3.804,-10.741 -4.575,-13.8 -1.584,-6.284 -1.969,-8.156 -2.755,-13.4 -2.327,-15.516 -1.729,-30.939 1.762,-45.4 1.449,-6.002 2.299,-9.028 2.838,-10.095 0.193,-0.382 0.351,-0.891 0.351,-1.131 0,-0.38 1.384,-4.178 2.395,-6.574 0.186,-0.44 0.578,-1.418 0.871,-2.174 0.294,-0.756 1.86,-3.996 3.482,-7.2 1.621,-3.204 3.151,-6.23 3.4,-6.723 0.248,-0.493 0.587,-0.898 0.752,-0.9 0.165,-0.002 0.3,-0.203 0.3,-0.448 0,-0.564 5.059,-8.124 7.732,-11.555 9.444,-12.12 19.654,-21.181 34.068,-30.232 3.482,-2.187 10.873,-5.864 16.8,-8.359 2.22,-0.934 12.097,-4.26 13.8,-4.646 6.055,-1.374 5.767,-1.061 3.8,-4.136 -0.77,-1.204 -1.4,-2.295 -1.4,-2.425 0,-0.13 -0.187,-0.453 -0.415,-0.719 C 170.156,76.417 168.827,74.31 167.432,72 164.867,67.755 164.445,67.372 163,67.983 m 32.8,103.795 c -2.664,0.454 -5.045,1.086 -6.8,1.806 -1.921,0.788 -5.497,2.666 -6.124,3.216 -0.376,0.33 -1.534,1.284 -2.573,2.121 -3.134,2.524 -7.21,8.404 -8.372,12.079 -1.392,4.4 -1.625,5.891 -1.625,10.4 0,6.927 1.636,12.171 5.404,17.327 2.131,2.914 6.542,7.273 7.362,7.273 0.146,0 0.549,0.243 0.897,0.541 4.97,4.255 17.242,5.963 24.831,3.456 2.863,-0.946 7.245,-3.05 8.324,-3.997 0.376,-0.33 1.534,-1.284 2.573,-2.121 2.25,-1.812 5.07,-5.385 6.765,-8.571 1.251,-2.35 1.507,-3.027 2.616,-6.908 0.829,-2.903 0.929,-11.131 0.164,-13.6 -1.445,-4.665 -1.764,-5.499 -2.904,-7.577 -6.095,-11.114 -18.659,-17.469 -30.538,-15.445"
       stroke="none"
       fill="#ffffff"
       fill-rule="evenodd" />
    <path
       id="path8"
       d="m 163.8,48.481 c -4.084,1.424 -5.785,6.307 -3.595,10.319 1.981,3.628 1.949,3.532 1.405,4.188 -0.279,0.337 -0.779,0.612 -1.11,0.612 -0.568,0 -6.155,1.711 -7.9,2.419 -0.44,0.178 -1.88,0.71 -3.2,1.183 -6.449,2.306 -19.867,8.861 -23.862,11.655 -0.584,0.409 -1.176,0.743 -1.317,0.743 -0.14,0 -0.472,0.185 -0.738,0.411 -0.266,0.226 -2.4,1.711 -4.744,3.3 -13.525,9.172 -26.647,22.196 -36.666,36.394 -1.36,1.927 -2.473,3.59 -2.473,3.695 0,0.106 -0.774,1.409 -1.721,2.896 -2.79,4.383 -6.826,11.986 -8.868,16.704 -0.381,0.88 -0.849,1.96 -1.04,2.4 -12.674,29.207 -14.791,64.777 -5.703,95.8 1.613,5.507 3.69,11.34 6.051,17 3.048,7.307 12.135,23.325 14.962,26.375 0.396,0.427 0.719,0.909 0.719,1.072 0,0.163 0.225,0.534 0.5,0.824 0.275,0.291 1.037,1.249 1.693,2.129 5.316,7.128 14.114,16.299 22.35,23.296 4.34,3.688 14.789,10.929 20.057,13.899 3.336,1.881 10.664,5.581 13,6.563 1.21,0.509 2.74,1.153 3.4,1.43 27.898,11.747 61.163,14.193 90.2,6.633 4.106,-1.069 13.103,-3.891 15.4,-4.83 0.66,-0.27 1.56,-0.63 2,-0.801 0.44,-0.171 1.663,-0.693 2.717,-1.16 1.054,-0.468 2.674,-1.15 3.6,-1.517 7.847,-3.111 21.533,-11.459 30.28,-18.47 5.828,-4.671 5.801,-4.647 12.419,-11.243 6.716,-6.694 18.784,-21.471 18.784,-23 0,-0.106 0.78,-1.409 1.733,-2.896 2.679,-4.181 6.761,-11.868 8.816,-16.604 0.358,-0.825 0.907,-2.085 1.219,-2.8 11.764,-26.902 14.242,-57.723 7.211,-89.7 -0.628,-2.857 -4.443,-15.127 -5.347,-17.2 -0.192,-0.44 -0.748,-1.79 -1.236,-3 C 318.4,111.461 287.402,80.931 252.2,67.819 c -2.2,-0.82 -4.36,-1.635 -4.8,-1.812 -0.669,-0.268 -6.815,-2.182 -8.509,-2.649 -1.039,-0.286 -0.892,-1.3 0.536,-3.696 2.795,-4.693 1.619,-9.179 -2.903,-11.068 -1.769,-0.739 -70.62,-0.846 -72.724,-0.113 m 72.056,4.939 c 1.239,1.239 1.1,2.096 -0.833,5.117 -0.747,1.168 -1.709,2.74 -2.138,3.493 -1.097,1.926 -8.15,13.485 -9.862,16.161 -0.783,1.223 -1.423,2.303 -1.423,2.4 0,0.096 -1.26,2.171 -2.8,4.609 -1.54,2.438 -2.8,4.508 -2.8,4.6 0,0.092 -1.26,2.162 -2.8,4.6 -1.54,2.438 -2.8,4.508 -2.8,4.6 0,0.092 -1.26,2.162 -2.8,4.6 -1.54,2.438 -2.8,4.513 -2.8,4.609 0,1.829 -3.875,5.538 -5.389,5.158 -0.845,-0.212 -6.211,-7.835 -6.211,-8.823 0,-0.11 -0.512,-0.952 -1.138,-1.872 -1.071,-1.573 -5.298,-8.465 -10.47,-17.072 -1.256,-2.09 -4.041,-6.68 -6.188,-10.2 -2.147,-3.52 -4.239,-6.987 -4.65,-7.705 -0.41,-0.718 -1.828,-3.023 -3.15,-5.121 -1.322,-2.099 -2.408,-3.941 -2.413,-4.095 -0.005,-0.153 -0.361,-0.729 -0.791,-1.279 -1.116,-1.427 -1.017,-2.971 0.254,-3.971 1.048,-0.824 1.256,-0.829 35.618,-0.829 h 34.564 l 1.02,1.02 m -67.691,18.602 c 1.669,2.651 3.035,4.898 3.035,4.992 0,0.094 0.599,1.119 1.332,2.278 2.454,3.884 2.644,3.626 -3.932,5.339 -3.768,0.981 -7.802,2.221 -9.6,2.951 -0.44,0.178 -2.06,0.827 -3.6,1.44 -5.418,2.16 -10.357,4.474 -13.6,6.373 -1.32,0.773 -3.12,1.792 -4,2.263 -9.738,5.222 -23.779,17.595 -32.727,28.839 -2.728,3.428 -8.673,11.977 -8.673,12.472 0,0.118 -0.599,1.164 -1.331,2.323 -5.714,9.051 -11.692,25.475 -14.015,38.508 -1.501,8.418 -1.635,10.182 -1.635,21.6 0,11.791 0.14,13.472 1.872,22.6 4.225,22.27 14.552,42.837 29.705,59.158 4.311,4.644 9.406,9.402 13.604,12.705 3.243,2.552 10.449,7.737 10.751,7.737 0.067,0 1.635,0.918 3.485,2.04 3.869,2.346 10.495,5.672 14.564,7.31 1.54,0.62 3.16,1.286 3.6,1.479 0.92,0.405 8.421,2.845 10.8,3.514 2.983,0.839 7.098,1.73 13,2.815 10.241,1.883 28.159,1.883 38.4,0 9.106,-1.674 11.602,-2.294 19.2,-4.767 22.327,-7.269 44.31,-23.005 57.82,-41.391 0.646,-0.88 1.286,-1.69 1.421,-1.8 0.364,-0.297 5.959,-8.717 5.959,-8.969 0,-0.118 0.599,-1.164 1.331,-2.323 3.228,-5.113 9.219,-18.869 10.673,-24.508 0.171,-0.66 0.617,-2.28 0.992,-3.6 1.091,-3.841 2.317,-9.88 3.453,-17 0.741,-4.65 0.746,-25.769 0.006,-30.2 -0.524,-3.142 -1.856,-10.242 -2.438,-13 -7.569,-35.854 -36.786,-69.846 -72.017,-83.786 -2.09,-0.827 -4.16,-1.651 -4.6,-1.83 -1.743,-0.712 -5.798,-1.964 -9.6,-2.964 -2.2,-0.579 -4.315,-1.147 -4.7,-1.263 -0.741,-0.223 -0.938,-1.339 -0.349,-1.977 0.192,-0.209 0.799,-1.19 1.348,-2.18 0.549,-0.99 1.966,-3.379 3.15,-5.309 1.183,-1.93 2.537,-4.18 3.009,-5 0.998,-1.733 1.669,-1.955 3.908,-1.291 2.959,0.877 12.41,4.065 13.634,4.6 0.66,0.288 2.01,0.853 3,1.255 7.629,3.098 25.135,13.081 28.45,16.224 0.303,0.286 1.27,1.058 2.15,1.714 7.838,5.846 17.788,15.804 24.784,24.803 22.46,28.893 32.995,67.187 28.173,102.404 -0.526,3.837 -2.286,13.518 -2.764,15.2 -0.188,0.66 -0.546,2.01 -0.796,3 -4.385,17.361 -13.396,35.426 -25.236,50.591 -9.369,11.999 -25.995,26.653 -37.561,33.106 -0.99,0.552 -2.968,1.671 -4.396,2.486 -7.904,4.512 -18.667,8.974 -29.404,12.189 -19.099,5.72 -42.502,6.745 -63.4,2.778 -2.962,-0.563 -10.71,-2.325 -12.2,-2.775 -11.31,-3.416 -22.077,-7.972 -32,-13.541 -11.133,-6.247 -26.712,-19.208 -35.14,-29.234 -1.572,-1.87 -2.958,-3.49 -3.08,-3.6 -0.122,-0.11 -0.752,-0.92 -1.399,-1.8 -0.647,-0.88 -1.274,-1.69 -1.394,-1.8 -0.119,-0.11 -1.123,-1.46 -2.23,-3 -9.382,-13.053 -17.372,-29.934 -21.154,-44.693 -0.353,-1.379 -0.799,-3.047 -0.99,-3.707 -4.403,-15.22 -4.935,-38.066 -1.35,-58 0.554,-3.08 1.157,-6.14 1.341,-6.8 0.183,-0.66 0.602,-2.19 0.929,-3.4 11.268,-41.616 41.634,-76.481 80.467,-92.39 3.921,-1.606 5.553,-2.205 9.858,-3.62 2.718,-0.893 5.392,-1.777 5.942,-1.964 2.7,-0.92 2.915,-0.766 6.165,4.396 M 178.869,90 c 0.818,1.21 1.497,2.332 1.509,2.492 0.012,0.161 0.662,1.294 1.445,2.517 1.846,2.886 8.688,14.1 10.488,17.191 2.592,4.45 4.434,5.8 7.916,5.8 3.859,0 4.58,-0.703 10.054,-9.8 11.297,-18.771 12.475,-20.6 13.279,-20.6 1.81,0 12.941,3.223 18.623,5.393 27.7,10.577 53.21,34.981 64.186,61.407 0.503,1.21 1.148,2.74 1.434,3.4 0.441,1.019 1.526,3.968 3.016,8.2 0.555,1.577 2.226,7.98 2.714,10.4 0.244,1.21 0.628,3.1 0.853,4.2 2.218,10.812 2.205,30.36 -0.028,41.8 -4.899,25.099 -16.916,47.075 -34.996,64 -48.035,44.967 -123.816,40.907 -167.167,-8.955 -1.317,-1.515 -2.902,-3.315 -3.522,-4 C 100.642,264.574 89.68,242.08 86.82,228.6 c -6.093,-28.72 -3.122,-54.285 9.185,-79.031 7.723,-15.53 20.275,-30.819 32.995,-40.19 0.88,-0.649 1.831,-1.397 2.112,-1.663 0.282,-0.266 2.262,-1.63 4.4,-3.031 11.911,-7.805 22.529,-12.531 36.088,-16.062 5.146,-1.34 5.474,-1.278 7.269,1.377 m 12.838,77.216 c -26.733,6.907 -35.71,38.881 -16.542,58.92 19.475,20.359 55.202,8.772 59.62,-19.336 3.841,-24.433 -19.326,-45.721 -43.078,-39.584 m 13.967,4.189 c 25.225,5.214 33.532,36.687 14.048,53.217 -20.476,17.371 -51.239,1.97 -49.984,-25.022 0.218,-4.673 0.377,-5.396 2.202,-9.993 5.186,-13.064 19.978,-21.046 33.734,-18.202"
       stroke="none"
       fill="#1e1e1e"
       fill-rule="evenodd" />
  </g>
</svg>
